<svg xmlns="http://www.w3.org/2000/svg" xmlns:xlink="http://www.w3.org/1999/xlink" width="1024" zoomAndPan="magnify" viewBox="0 0 768 767.999994" height="1024" preserveAspectRatio="xMidYMid meet" version="1.0"><defs><clipPath id="a2e64b05ad"><path d="M 230.398438 318.910156 L 537.898438 318.910156 L 537.898438 434 L 230.398438 434 Z M 230.398438 318.910156 " clip-rule="nonzero"/></clipPath><clipPath id="b3867661a7"><path d="M 230.398438 318.910156 L 537.898438 318.910156 L 537.898438 449.410156 L 230.398438 449.410156 Z M 230.398438 318.910156 " clip-rule="nonzero"/></clipPath></defs><g clip-path="url(#a2e64b05ad)"><path fill="#e35d54" d="M 537.292969 375.945312 L 537.292969 376.183594 C 537.292969 376.265625 537.292969 376.265625 537.292969 376.34375 C 537.292969 408.074219 511.589844 433.773438 479.863281 433.773438 L 288.132812 433.773438 C 256.402344 433.773438 230.703125 407.992188 230.703125 376.34375 C 230.703125 376.183594 230.703125 376.105469 230.703125 375.945312 C 230.703125 375.789062 230.703125 375.707031 230.703125 375.550781 C 231.179688 344.214844 256.640625 318.910156 288.132812 318.910156 L 479.863281 318.910156 C 479.863281 318.910156 479.863281 318.910156 479.941406 318.910156 C 511.433594 318.910156 537.054688 344.375 537.292969 375.945312 Z M 537.292969 375.945312 L 537.292969 376.183594 C 537.292969 376.265625 537.292969 376.265625 537.292969 376.34375 C 537.292969 408.074219 511.589844 433.773438 479.863281 433.773438 L 288.132812 433.773438 C 256.402344 433.773438 230.703125 407.992188 230.703125 376.34375 C 230.703125 376.183594 230.703125 376.105469 230.703125 375.945312 C 230.703125 375.789062 230.703125 375.707031 230.703125 375.550781 C 231.179688 344.214844 256.640625 318.910156 288.132812 318.910156 L 479.863281 318.910156 C 479.863281 318.910156 479.863281 318.910156 479.941406 318.910156 C 511.433594 318.910156 537.054688 344.375 537.292969 375.945312 Z M 537.292969 375.945312 " fill-opacity="1" fill-rule="nonzero"/></g><path fill="#090202" d="M 317.484375 352.070312 L 328.035156 352.070312 C 331.285156 352.070312 333.824219 353.023438 335.730469 354.925781 C 337.632812 356.828125 338.585938 359.445312 338.585938 362.621094 L 338.585938 367.855469 C 338.585938 371.109375 337.632812 373.644531 335.730469 375.550781 C 333.824219 377.453125 331.285156 378.40625 328.035156 378.40625 L 324.226562 378.40625 L 324.226562 396.414062 L 317.484375 396.414062 C 317.484375 396.414062 317.484375 352.070312 317.484375 352.070312 Z M 327.636719 372.140625 C 328.984375 372.140625 329.9375 371.742188 330.652344 371.027344 C 331.367188 370.3125 331.761719 369.28125 331.761719 368.015625 L 331.761719 362.539062 C 331.761719 361.191406 331.367188 360.238281 330.652344 359.527344 C 329.9375 358.8125 328.90625 358.414062 327.636719 358.414062 L 324.148438 358.414062 L 324.148438 372.140625 Z M 353.65625 352.070312 L 360.398438 352.070312 L 360.398438 390.144531 L 372.375 390.144531 L 372.375 396.492188 L 353.65625 396.492188 Z M 401.011719 386.65625 L 393.792969 386.65625 L 392.367188 396.492188 L 385.625 396.492188 L 393 352.070312 L 402.042969 352.070312 L 409.421875 396.492188 L 402.597656 396.492188 Z M 400.140625 380.152344 L 397.441406 361.589844 L 394.746094 380.152344 Z M 443.691406 352.070312 L 434.648438 377.929688 L 434.648438 396.492188 L 427.902344 396.492188 L 427.902344 377.929688 L 418.859375 352.070312 L 426 352.070312 L 431.234375 369.046875 L 436.550781 352.070312 C 436.550781 352.070312 443.691406 352.070312 443.691406 352.070312 Z M 443.691406 352.070312 " fill-opacity="1" fill-rule="nonzero"/><g clip-path="url(#b3867661a7)"><path fill="#090202" d="M 479.941406 318.910156 C 479.863281 318.910156 479.863281 318.910156 479.941406 318.910156 L 288.132812 318.910156 C 256.640625 318.910156 231.179688 344.214844 230.703125 375.550781 C 230.703125 375.707031 230.703125 375.789062 230.703125 375.945312 C 230.703125 376.105469 230.703125 376.183594 230.703125 376.34375 C 230.703125 377.851562 230.78125 379.277344 230.859375 380.707031 L 230.703125 380.707031 L 230.703125 390.859375 C 230.703125 391.019531 230.703125 391.097656 230.703125 391.257812 C 230.703125 391.414062 230.703125 391.492188 230.703125 391.652344 C 230.703125 423.304688 256.402344 449.082031 288.132812 449.082031 L 479.863281 449.082031 C 511.589844 449.082031 537.292969 423.382812 537.292969 391.652344 C 537.292969 391.574219 537.292969 391.574219 537.292969 391.492188 L 537.292969 380.707031 L 537.132812 380.707031 C 537.214844 379.277344 537.292969 377.851562 537.292969 376.34375 C 537.292969 376.265625 537.292969 376.265625 537.292969 376.183594 L 537.292969 375.945312 C 537.054688 344.375 511.433594 318.910156 479.941406 318.910156 Z M 238.636719 375.945312 L 238.636719 375.628906 C 238.875 362.539062 244.109375 350.324219 253.390625 341.121094 C 262.671875 331.921875 275.046875 326.84375 288.132812 326.84375 L 479.941406 326.84375 C 493.03125 326.84375 505.402344 331.921875 514.765625 341.203125 C 524.046875 350.484375 529.28125 362.777344 529.359375 375.945312 L 529.359375 376.34375 C 529.359375 403.628906 507.148438 425.839844 479.863281 425.839844 L 288.132812 425.839844 C 260.847656 425.839844 238.636719 403.628906 238.636719 376.34375 Z M 238.636719 375.945312 " fill-opacity="1" fill-rule="nonzero"/></g></svg>