<svg xmlns="http://www.w3.org/2000/svg" xmlns:xlink="http://www.w3.org/1999/xlink" width="1024" zoomAndPan="magnify" viewBox="0 0 768 767.999994" height="1024" preserveAspectRatio="xMidYMid meet" version="1.0"><path fill="#EE807D" d="M 312.617188 308.644531 L 299.246094 308.644531 L 299.246094 295.277344 C 299.246094 294.589844 299.210938 293.902344 299.144531 293.21875 C 299.078125 292.535156 298.976562 291.855469 298.839844 291.179688 C 298.707031 290.507812 298.539062 289.839844 298.339844 289.183594 C 298.140625 288.523438 297.90625 287.878906 297.644531 287.242188 C 297.378906 286.609375 297.085938 285.988281 296.761719 285.378906 C 296.4375 284.773438 296.085938 284.183594 295.703125 283.613281 C 295.320312 283.042969 294.910156 282.488281 294.476562 281.957031 C 294.039062 281.425781 293.578125 280.917969 293.089844 280.433594 C 292.605469 279.945312 292.097656 279.484375 291.566406 279.046875 C 291.03125 278.609375 290.480469 278.203125 289.910156 277.820312 C 289.339844 277.4375 288.75 277.085938 288.144531 276.757812 C 287.535156 276.433594 286.917969 276.140625 286.28125 275.878906 C 285.644531 275.613281 285 275.382812 284.339844 275.183594 C 283.683594 274.980469 283.015625 274.8125 282.34375 274.679688 C 281.667969 274.542969 280.988281 274.445312 280.304688 274.375 C 279.621094 274.308594 278.933594 274.273438 278.246094 274.273438 L 255.332031 274.273438 C 254.644531 274.273438 253.957031 274.308594 253.273438 274.375 C 252.589844 274.445312 251.910156 274.542969 251.234375 274.679688 C 250.5625 274.8125 249.894531 274.980469 249.238281 275.183594 C 248.578125 275.382812 247.933594 275.613281 247.296875 275.878906 C 246.664062 276.140625 246.042969 276.433594 245.4375 276.757812 C 244.828125 277.085938 244.242188 277.4375 243.667969 277.820312 C 243.097656 278.203125 242.546875 278.609375 242.015625 279.046875 C 241.484375 279.484375 240.972656 279.945312 240.488281 280.433594 C 240 280.917969 239.539062 281.425781 239.105469 281.957031 C 238.667969 282.488281 238.257812 283.042969 237.875 283.613281 C 237.496094 284.183594 237.140625 284.773438 236.816406 285.378906 C 236.492188 285.988281 236.199219 286.609375 235.933594 287.242188 C 235.671875 287.878906 235.441406 288.523438 235.242188 289.183594 C 235.039062 289.839844 234.871094 290.507812 234.738281 291.179688 C 234.605469 291.855469 234.503906 292.535156 234.433594 293.21875 C 234.367188 293.902344 234.332031 294.589844 234.332031 295.277344 L 234.332031 308.644531 L 220.960938 308.644531 C 220.273438 308.648438 219.589844 308.679688 218.90625 308.75 C 218.21875 308.816406 217.542969 308.917969 216.867188 309.054688 C 216.191406 309.1875 215.527344 309.355469 214.867188 309.554688 C 214.210938 309.753906 213.566406 309.988281 212.929688 310.25 C 212.292969 310.515625 211.675781 310.808594 211.066406 311.132812 C 210.460938 311.457031 209.871094 311.808594 209.300781 312.191406 C 208.730469 312.574219 208.179688 312.984375 207.648438 313.421875 C 207.113281 313.855469 206.605469 314.316406 206.121094 314.804688 C 205.632812 315.289062 205.171875 315.796875 204.738281 316.332031 C 204.300781 316.863281 203.890625 317.414062 203.507812 317.984375 C 203.125 318.554688 202.773438 319.144531 202.449219 319.75 C 202.125 320.359375 201.832031 320.976562 201.566406 321.613281 C 201.304688 322.25 201.070312 322.894531 200.871094 323.550781 C 200.671875 324.210938 200.503906 324.875 200.371094 325.550781 C 200.234375 326.226562 200.132812 326.902344 200.066406 327.589844 C 199.996094 328.273438 199.964844 328.957031 199.960938 329.644531 L 199.960938 352.5625 C 199.964844 353.25 199.996094 353.933594 200.066406 354.621094 C 200.132812 355.304688 200.234375 355.984375 200.371094 356.65625 C 200.503906 357.332031 200.671875 357.996094 200.871094 358.65625 C 201.070312 359.3125 201.304688 359.960938 201.566406 360.59375 C 201.832031 361.230469 202.125 361.851562 202.449219 362.457031 C 202.773438 363.0625 203.125 363.652344 203.507812 364.222656 C 203.890625 364.792969 204.300781 365.347656 204.738281 365.878906 C 205.171875 366.410156 205.632812 366.917969 206.121094 367.402344 C 206.605469 367.890625 207.113281 368.351562 207.648438 368.789062 C 208.179688 369.222656 208.730469 369.632812 209.300781 370.015625 C 209.871094 370.398438 210.460938 370.75 211.066406 371.074219 C 211.675781 371.398438 212.292969 371.691406 212.929688 371.957031 C 213.566406 372.21875 214.210938 372.453125 214.867188 372.652344 C 215.527344 372.851562 216.191406 373.019531 216.867188 373.15625 C 217.542969 373.289062 218.21875 373.390625 218.90625 373.457031 C 219.589844 373.527344 220.273438 373.5625 220.960938 373.5625 L 234.332031 373.5625 L 234.332031 386.929688 C 234.332031 387.617188 234.367188 388.304688 234.433594 388.988281 C 234.503906 389.671875 234.605469 390.351562 234.738281 391.027344 C 234.875 391.699219 235.042969 392.367188 235.242188 393.023438 C 235.441406 393.683594 235.671875 394.328125 235.9375 394.964844 C 236.199219 395.597656 236.492188 396.21875 236.816406 396.824219 C 237.144531 397.433594 237.496094 398.019531 237.878906 398.59375 C 238.261719 399.164062 238.667969 399.714844 239.105469 400.246094 C 239.542969 400.777344 240.003906 401.285156 240.488281 401.773438 C 240.976562 402.257812 241.484375 402.71875 242.015625 403.15625 C 242.546875 403.59375 243.097656 404.003906 243.671875 404.382812 C 244.242188 404.765625 244.832031 405.121094 245.4375 405.445312 C 246.042969 405.769531 246.664062 406.0625 247.300781 406.324219 C 247.933594 406.589844 248.582031 406.820312 249.238281 407.019531 C 249.894531 407.222656 250.5625 407.386719 251.238281 407.523438 C 251.910156 407.65625 252.589844 407.757812 253.273438 407.828125 C 253.957031 407.894531 254.644531 407.929688 255.332031 407.929688 L 278.246094 407.929688 C 278.933594 407.929688 279.621094 407.894531 280.304688 407.828125 C 280.988281 407.757812 281.667969 407.65625 282.34375 407.523438 C 283.015625 407.386719 283.683594 407.222656 284.339844 407.019531 C 285 406.820312 285.644531 406.589844 286.28125 406.324219 C 286.914062 406.0625 287.535156 405.769531 288.140625 405.445312 C 288.75 405.121094 289.335938 404.765625 289.910156 404.382812 C 290.480469 404.003906 291.03125 403.59375 291.5625 403.15625 C 292.09375 402.71875 292.605469 402.257812 293.089844 401.773438 C 293.574219 401.285156 294.039062 400.777344 294.472656 400.246094 C 294.910156 399.714844 295.320312 399.164062 295.699219 398.59375 C 296.082031 398.019531 296.4375 397.429688 296.761719 396.824219 C 297.085938 396.21875 297.378906 395.597656 297.644531 394.964844 C 297.90625 394.328125 298.136719 393.683594 298.339844 393.023438 C 298.539062 392.367188 298.707031 391.699219 298.839844 391.027344 C 298.976562 390.351562 299.078125 389.671875 299.144531 388.988281 C 299.210938 388.304688 299.246094 387.617188 299.246094 386.929688 L 299.246094 373.5625 L 312.617188 373.5625 C 313.304688 373.5625 313.992188 373.527344 314.675781 373.457031 C 315.359375 373.390625 316.039062 373.289062 316.710938 373.15625 C 317.386719 373.019531 318.050781 372.851562 318.710938 372.652344 C 319.367188 372.453125 320.015625 372.21875 320.648438 371.957031 C 321.285156 371.691406 321.90625 371.398438 322.511719 371.074219 C 323.117188 370.75 323.707031 370.398438 324.277344 370.015625 C 324.851562 369.632812 325.402344 369.222656 325.933594 368.789062 C 326.464844 368.351562 326.972656 367.890625 327.460938 367.402344 C 327.945312 366.917969 328.40625 366.410156 328.84375 365.878906 C 329.28125 365.347656 329.6875 364.792969 330.070312 364.222656 C 330.453125 363.652344 330.804688 363.0625 331.128906 362.457031 C 331.453125 361.851562 331.75 361.230469 332.011719 360.59375 C 332.277344 359.960938 332.507812 359.3125 332.707031 358.65625 C 332.90625 357.996094 333.074219 357.332031 333.210938 356.65625 C 333.34375 355.984375 333.445312 355.304688 333.515625 354.621094 C 333.582031 353.933594 333.617188 353.25 333.617188 352.5625 L 333.617188 329.644531 C 333.617188 328.957031 333.582031 328.273438 333.515625 327.589844 C 333.445312 326.902344 333.34375 326.226562 333.210938 325.550781 C 333.074219 324.875 332.90625 324.210938 332.707031 323.550781 C 332.507812 322.894531 332.277344 322.25 332.011719 321.613281 C 331.75 320.976562 331.453125 320.359375 331.128906 319.75 C 330.804688 319.144531 330.453125 318.554688 330.070312 317.984375 C 329.6875 317.414062 329.28125 316.863281 328.84375 316.332031 C 328.40625 315.796875 327.945312 315.289062 327.460938 314.804688 C 326.972656 314.316406 326.464844 313.855469 325.933594 313.421875 C 325.402344 312.984375 324.851562 312.574219 324.277344 312.191406 C 323.707031 311.808594 323.117188 311.457031 322.511719 311.132812 C 321.90625 310.808594 321.285156 310.515625 320.648438 310.25 C 320.015625 309.988281 319.367188 309.753906 318.710938 309.554688 C 318.054688 309.355469 317.386719 309.1875 316.710938 309.054688 C 316.039062 308.917969 315.359375 308.816406 314.675781 308.75 C 313.992188 308.679688 313.304688 308.648438 312.617188 308.644531 Z M 314.523438 352.5625 C 314.523438 352.816406 314.476562 353.058594 314.378906 353.292969 C 314.28125 353.523438 314.144531 353.730469 313.964844 353.910156 C 313.785156 354.089844 313.582031 354.226562 313.347656 354.324219 C 313.113281 354.421875 312.871094 354.46875 312.617188 354.46875 L 289.699219 354.46875 C 289.074219 354.46875 288.453125 354.53125 287.839844 354.652344 C 287.222656 354.773438 286.625 354.957031 286.046875 355.195312 C 285.46875 355.433594 284.917969 355.730469 284.398438 356.078125 C 283.875 356.425781 283.394531 356.820312 282.949219 357.265625 C 282.507812 357.707031 282.113281 358.191406 281.761719 358.710938 C 281.414062 359.234375 281.121094 359.78125 280.882812 360.363281 C 280.640625 360.941406 280.460938 361.539062 280.335938 362.152344 C 280.214844 362.765625 280.152344 363.386719 280.152344 364.015625 L 280.152344 386.929688 C 280.152344 387.183594 280.105469 387.425781 280.007812 387.660156 C 279.914062 387.894531 279.773438 388.101562 279.597656 388.28125 C 279.417969 388.457031 279.210938 388.597656 278.976562 388.691406 C 278.742188 388.789062 278.5 388.835938 278.246094 388.835938 L 255.332031 388.835938 C 255.078125 388.835938 254.835938 388.789062 254.601562 388.691406 C 254.367188 388.597656 254.160156 388.457031 253.984375 388.28125 C 253.804688 388.101562 253.667969 387.894531 253.570312 387.660156 C 253.472656 387.425781 253.425781 387.183594 253.425781 386.929688 L 253.425781 364.015625 C 253.425781 363.386719 253.363281 362.765625 253.242188 362.152344 C 253.121094 361.539062 252.9375 360.941406 252.699219 360.363281 C 252.457031 359.78125 252.164062 359.234375 251.816406 358.710938 C 251.46875 358.191406 251.070312 357.707031 250.628906 357.265625 C 250.183594 356.820312 249.703125 356.425781 249.183594 356.078125 C 248.660156 355.730469 248.109375 355.433594 247.53125 355.195312 C 246.953125 354.957031 246.355469 354.773438 245.742188 354.652344 C 245.125 354.53125 244.503906 354.46875 243.878906 354.46875 L 220.960938 354.46875 C 220.710938 354.46875 220.464844 354.421875 220.234375 354.324219 C 220 354.226562 219.792969 354.089844 219.613281 353.910156 C 219.433594 353.730469 219.296875 353.523438 219.199219 353.292969 C 219.105469 353.058594 219.054688 352.816406 219.054688 352.5625 L 219.054688 329.644531 C 219.054688 329.394531 219.105469 329.148438 219.199219 328.917969 C 219.296875 328.683594 219.433594 328.476562 219.613281 328.296875 C 219.792969 328.117188 220 327.980469 220.234375 327.882812 C 220.464844 327.789062 220.710938 327.738281 220.960938 327.738281 L 243.878906 327.738281 C 244.503906 327.738281 245.125 327.679688 245.742188 327.554688 C 246.355469 327.433594 246.953125 327.253906 247.53125 327.011719 C 248.109375 326.773438 248.660156 326.480469 249.183594 326.128906 C 249.703125 325.78125 250.183594 325.386719 250.628906 324.941406 C 251.070312 324.5 251.46875 324.019531 251.816406 323.496094 C 252.164062 322.976562 252.457031 322.425781 252.699219 321.847656 C 252.9375 321.265625 253.121094 320.667969 253.242188 320.054688 C 253.363281 319.441406 253.425781 318.820312 253.425781 318.191406 L 253.425781 295.277344 C 253.425781 295.023438 253.472656 294.78125 253.570312 294.546875 C 253.667969 294.3125 253.804688 294.105469 253.984375 293.925781 C 254.160156 293.746094 254.367188 293.609375 254.601562 293.511719 C 254.835938 293.414062 255.078125 293.367188 255.332031 293.367188 L 278.246094 293.367188 C 278.5 293.367188 278.742188 293.414062 278.976562 293.511719 C 279.210938 293.609375 279.417969 293.746094 279.597656 293.925781 C 279.773438 294.105469 279.914062 294.3125 280.007812 294.546875 C 280.105469 294.78125 280.152344 295.023438 280.152344 295.277344 L 280.152344 318.191406 C 280.152344 318.820312 280.214844 319.441406 280.335938 320.054688 C 280.460938 320.667969 280.640625 321.265625 280.878906 321.847656 C 281.121094 322.425781 281.414062 322.976562 281.761719 323.496094 C 282.109375 324.019531 282.507812 324.5 282.949219 324.941406 C 283.394531 325.386719 283.875 325.78125 284.398438 326.128906 C 284.917969 326.480469 285.46875 326.773438 286.046875 327.011719 C 286.625 327.253906 287.222656 327.433594 287.839844 327.554688 C 288.453125 327.679688 289.074219 327.738281 289.699219 327.738281 L 312.617188 327.738281 C 312.871094 327.738281 313.113281 327.789062 313.347656 327.882812 C 313.582031 327.980469 313.785156 328.117188 313.964844 328.296875 C 314.144531 328.476562 314.28125 328.683594 314.378906 328.917969 C 314.476562 329.148438 314.523438 329.394531 314.523438 329.644531 Z M 314.523438 352.5625 " fill-opacity="1" fill-rule="nonzero"/><path fill="#EE807D" d="M 498.78125 364.398438 C 497.742188 364.386719 496.703125 364.425781 495.667969 364.511719 C 494.632812 364.601562 493.601562 364.742188 492.578125 364.933594 C 491.554688 365.121094 490.546875 365.363281 489.546875 365.652344 C 488.546875 365.941406 487.5625 366.277344 486.597656 366.664062 C 485.632812 367.046875 484.6875 367.480469 483.761719 367.957031 C 482.835938 368.4375 481.9375 368.957031 481.066406 369.523438 C 480.191406 370.089844 479.347656 370.695312 478.535156 371.34375 C 477.722656 371.992188 476.941406 372.679688 476.195312 373.402344 C 475.449219 374.128906 474.738281 374.886719 474.066406 375.679688 C 473.394531 376.476562 472.761719 377.300781 472.171875 378.15625 C 471.582031 379.011719 471.03125 379.894531 470.527344 380.804688 C 470.023438 381.714844 469.5625 382.644531 469.148438 383.601562 C 468.734375 384.554688 468.367188 385.527344 468.050781 386.515625 C 467.730469 387.507812 467.460938 388.511719 467.242188 389.527344 C 467.019531 390.542969 466.851562 391.570312 466.730469 392.601562 C 466.609375 393.636719 466.539062 394.671875 466.519531 395.710938 C 466.503906 396.753906 466.535156 397.792969 466.617188 398.828125 C 466.699219 399.867188 466.832031 400.894531 467.015625 401.921875 C 467.199219 402.945312 467.433594 403.957031 467.71875 404.957031 C 468 405.957031 468.332031 406.945312 468.710938 407.914062 C 469.089844 408.882812 469.515625 409.828125 469.988281 410.757812 C 470.457031 411.683594 470.976562 412.585938 471.535156 413.460938 C 472.09375 414.339844 472.695312 415.1875 473.339844 416.003906 C 473.984375 416.820312 474.664062 417.605469 475.382812 418.355469 C 476.105469 419.109375 476.859375 419.820312 477.648438 420.5 C 478.4375 421.175781 479.257812 421.8125 480.113281 422.410156 C 480.964844 423.007812 481.84375 423.5625 482.75 424.070312 C 483.65625 424.582031 484.585938 425.046875 485.535156 425.46875 C 486.488281 425.886719 487.457031 426.261719 488.445312 426.585938 C 489.433594 426.910156 490.4375 427.1875 491.453125 427.414062 C 492.46875 427.640625 493.492188 427.816406 494.523438 427.945312 C 495.554688 428.070312 496.59375 428.144531 497.632812 428.171875 C 539.5625 427.398438 541.164062 366.191406 498.78125 364.398438 Z M 498.007812 409.082031 C 497.175781 409.0625 496.351562 408.964844 495.539062 408.785156 C 494.722656 408.605469 493.933594 408.347656 493.171875 408.011719 C 492.40625 407.679688 491.683594 407.273438 490.996094 406.796875 C 490.3125 406.324219 489.679688 405.785156 489.101562 405.1875 C 488.519531 404.585938 488.003906 403.9375 487.550781 403.238281 C 487.097656 402.535156 486.71875 401.800781 486.410156 401.023438 C 486.101562 400.25 485.871094 399.453125 485.71875 398.632812 C 485.566406 397.8125 485.492188 396.988281 485.5 396.152344 C 485.511719 395.320312 485.597656 394.496094 485.769531 393.679688 C 485.9375 392.863281 486.1875 392.070312 486.511719 391.300781 C 486.835938 390.535156 487.230469 389.804688 487.699219 389.113281 C 488.167969 388.421875 488.695312 387.785156 489.289062 387.199219 C 489.878906 386.609375 490.523438 386.085938 491.21875 385.625 C 491.914062 385.164062 492.644531 384.773438 493.414062 384.457031 C 494.1875 384.136719 494.980469 383.894531 495.796875 383.734375 C 496.617188 383.570312 497.441406 383.488281 498.277344 383.488281 C 499.109375 383.507812 499.933594 383.605469 500.746094 383.785156 C 501.558594 383.96875 502.347656 384.222656 503.109375 384.558594 C 503.875 384.894531 504.597656 385.296875 505.28125 385.773438 C 505.964844 386.25 506.597656 386.789062 507.175781 387.386719 C 507.757812 387.984375 508.273438 388.636719 508.726562 389.335938 C 509.175781 390.035156 509.558594 390.773438 509.867188 391.546875 C 510.175781 392.320312 510.40625 393.117188 510.558594 393.9375 C 510.710938 394.757812 510.78125 395.582031 510.773438 396.414062 C 510.765625 397.25 510.675781 398.074219 510.507812 398.890625 C 510.335938 399.707031 510.089844 400.496094 509.765625 401.265625 C 509.441406 402.03125 509.042969 402.761719 508.578125 403.453125 C 508.109375 404.144531 507.582031 404.78125 506.992188 405.367188 C 506.398438 405.957031 505.757812 406.480469 505.0625 406.941406 C 504.367188 407.402344 503.636719 407.792969 502.867188 408.109375 C 502.097656 408.429688 501.300781 408.671875 500.484375 408.832031 C 499.667969 408.996094 498.84375 409.082031 498.007812 409.082031 Z M 498.007812 409.082031 " fill-opacity="1" fill-rule="nonzero"/><path fill="#EE807D" d="M 443.703125 309.117188 C 401.449219 309.476562 400.71875 372.105469 443.046875 372.703125 C 444.078125 372.699219 445.105469 372.644531 446.132812 372.539062 C 447.160156 372.4375 448.179688 372.28125 449.191406 372.078125 C 450.203125 371.875 451.199219 371.621094 452.1875 371.320312 C 453.175781 371.019531 454.144531 370.671875 455.097656 370.277344 C 456.050781 369.878906 456.980469 369.441406 457.890625 368.953125 C 458.800781 368.46875 459.6875 367.9375 460.542969 367.367188 C 461.402344 366.792969 462.230469 366.179688 463.03125 365.527344 C 463.828125 364.875 464.59375 364.183594 465.328125 363.457031 C 466.058594 362.730469 466.753906 361.96875 467.410156 361.175781 C 468.066406 360.378906 468.683594 359.554688 469.261719 358.699219 C 469.839844 357.84375 470.375 356.964844 470.867188 356.054688 C 471.359375 355.148438 471.804688 354.21875 472.207031 353.269531 C 472.605469 352.320312 472.960938 351.351562 473.265625 350.367188 C 473.574219 349.382812 473.832031 348.382812 474.042969 347.375 C 474.253906 346.363281 474.414062 345.347656 474.523438 344.320312 C 474.632812 343.292969 474.695312 342.265625 474.707031 341.234375 C 474.714844 340.203125 474.675781 339.171875 474.585938 338.144531 C 474.496094 337.117188 474.359375 336.097656 474.167969 335.082031 C 473.980469 334.066406 473.742188 333.066406 473.457031 332.074219 C 473.167969 331.082031 472.835938 330.109375 472.453125 329.148438 C 472.074219 328.191406 471.644531 327.253906 471.171875 326.335938 C 470.699219 325.417969 470.183594 324.527344 469.625 323.660156 C 469.066406 322.792969 468.464844 321.957031 467.824219 321.148438 C 467.183594 320.339844 466.503906 319.5625 465.789062 318.820312 C 465.070312 318.078125 464.320312 317.371094 463.535156 316.703125 C 462.75 316.035156 461.933594 315.40625 461.085938 314.816406 C 460.242188 314.226562 459.367188 313.679688 458.46875 313.171875 C 457.566406 312.667969 456.644531 312.207031 455.699219 311.792969 C 454.757812 311.378906 453.792969 311.011719 452.8125 310.6875 C 451.832031 310.367188 450.839844 310.09375 449.832031 309.871094 C 448.824219 309.644531 447.808594 309.46875 446.785156 309.34375 C 445.761719 309.21875 444.734375 309.140625 443.703125 309.117188 Z M 442.761719 353.605469 C 441.9375 353.566406 441.128906 353.449219 440.328125 353.253906 C 439.53125 353.058594 438.757812 352.789062 438.011719 352.441406 C 437.265625 352.09375 436.558594 351.679688 435.890625 351.199219 C 435.226562 350.714844 434.613281 350.171875 434.054688 349.570312 C 433.492188 348.96875 432.996094 348.316406 432.5625 347.617188 C 432.128906 346.917969 431.765625 346.183594 431.472656 345.414062 C 431.179688 344.644531 430.96875 343.855469 430.828125 343.042969 C 430.691406 342.230469 430.632812 341.414062 430.652344 340.59375 C 430.675781 339.769531 430.773438 338.957031 430.953125 338.15625 C 431.132812 337.351562 431.386719 336.574219 431.714844 335.820312 C 432.046875 335.066406 432.445312 334.351562 432.914062 333.675781 C 433.382812 333 433.914062 332.375 434.503906 331.800781 C 435.09375 331.226562 435.734375 330.714844 436.421875 330.265625 C 437.113281 329.820312 437.839844 329.441406 438.601562 329.132812 C 439.367188 328.824219 440.152344 328.59375 440.957031 328.4375 C 441.765625 328.28125 442.582031 328.207031 443.40625 328.210938 C 444.25 328.214844 445.085938 328.300781 445.914062 328.472656 C 446.746094 328.640625 447.546875 328.890625 448.324219 329.222656 C 449.105469 329.554688 449.839844 329.957031 450.539062 330.4375 C 451.238281 330.914062 451.878906 331.457031 452.46875 332.0625 C 453.058594 332.671875 453.582031 333.328125 454.039062 334.039062 C 454.496094 334.753906 454.878906 335.5 455.1875 336.289062 C 455.496094 337.078125 455.722656 337.886719 455.867188 338.71875 C 456.015625 339.550781 456.078125 340.390625 456.054688 341.238281 C 456.035156 342.082031 455.929688 342.917969 455.742188 343.742188 C 455.550781 344.566406 455.285156 345.363281 454.9375 346.136719 C 454.589844 346.90625 454.167969 347.632812 453.675781 348.320312 C 453.183594 349.007812 452.628906 349.640625 452.007812 350.214844 C 451.390625 350.792969 450.71875 351.300781 450 351.742188 C 449.277344 352.1875 448.519531 352.550781 447.726562 352.84375 C 446.933594 353.132812 446.117188 353.34375 445.28125 353.472656 C 444.445312 353.601562 443.605469 353.644531 442.761719 353.605469 Z M 442.761719 353.605469 " fill-opacity="1" fill-rule="nonzero"/><path fill="#EE807D" d="M 553.78125 309.117188 C 511.59375 310.191406 510.671875 371.710938 553.332031 372.703125 C 595.242188 372.011719 595.265625 310.484375 553.78125 309.117188 Z M 553.027344 353.605469 C 552.199219 353.585938 551.378906 353.484375 550.570312 353.300781 C 549.761719 353.117188 548.976562 352.859375 548.21875 352.523438 C 547.460938 352.1875 546.742188 351.78125 546.0625 351.304688 C 545.382812 350.828125 544.757812 350.292969 544.183594 349.691406 C 543.609375 349.09375 543.097656 348.445312 542.652344 347.746094 C 542.207031 347.046875 541.832031 346.308594 541.527344 345.535156 C 541.226562 344.765625 541.003906 343.96875 540.855469 343.152344 C 540.710938 342.335938 540.644531 341.511719 540.660156 340.683594 C 540.671875 339.855469 540.769531 339.035156 540.945312 338.222656 C 541.121094 337.410156 541.371094 336.625 541.703125 335.863281 C 542.03125 335.101562 542.429688 334.382812 542.902344 333.699219 C 543.375 333.015625 543.90625 332.382812 544.5 331.804688 C 545.097656 331.226562 545.742188 330.710938 546.4375 330.261719 C 547.132812 329.808594 547.867188 329.429688 548.636719 329.121094 C 549.40625 328.8125 550.199219 328.582031 551.015625 328.425781 C 551.828125 328.273438 552.652344 328.203125 553.480469 328.210938 C 554.3125 328.230469 555.128906 328.332031 555.941406 328.515625 C 556.75 328.699219 557.535156 328.957031 558.292969 329.292969 C 559.050781 329.628906 559.769531 330.035156 560.449219 330.511719 C 561.128906 330.988281 561.753906 331.523438 562.328125 332.125 C 562.902344 332.722656 563.410156 333.371094 563.859375 334.070312 C 564.304688 334.769531 564.679688 335.507812 564.980469 336.28125 C 565.285156 337.050781 565.507812 337.847656 565.65625 338.664062 C 565.800781 339.480469 565.867188 340.304688 565.851562 341.132812 C 565.835938 341.960938 565.742188 342.78125 565.566406 343.59375 C 565.390625 344.402344 565.136719 345.191406 564.808594 345.953125 C 564.480469 346.714844 564.078125 347.433594 563.609375 348.117188 C 563.136719 348.800781 562.605469 349.429688 562.007812 350.011719 C 561.414062 350.589844 560.769531 351.105469 560.074219 351.554688 C 559.378906 352.007812 558.644531 352.386719 557.875 352.695312 C 557.105469 353.003906 556.3125 353.234375 555.496094 353.390625 C 554.679688 353.542969 553.859375 353.613281 553.027344 353.605469 Z M 553.027344 353.605469 " fill-opacity="1" fill-rule="nonzero"/><path fill="#EE807D" d="M 497.898438 317.996094 C 498.9375 317.992188 499.976562 317.941406 501.011719 317.835938 C 502.046875 317.734375 503.074219 317.578125 504.09375 317.375 C 505.117188 317.171875 506.125 316.917969 507.121094 316.617188 C 508.113281 316.3125 509.09375 315.964844 510.054688 315.566406 C 511.015625 315.167969 511.957031 314.726562 512.875 314.238281 C 513.792969 313.75 514.6875 313.214844 515.554688 312.640625 C 516.421875 312.066406 517.257812 311.449219 518.066406 310.792969 C 518.871094 310.136719 519.644531 309.441406 520.382812 308.707031 C 521.125 307.976562 521.824219 307.210938 522.492188 306.410156 C 523.15625 305.609375 523.78125 304.777344 524.363281 303.914062 C 524.949219 303.054688 525.488281 302.167969 525.984375 301.253906 C 526.484375 300.339844 526.933594 299.402344 527.339844 298.445312 C 527.75 297.488281 528.105469 296.511719 528.417969 295.519531 C 528.730469 294.527344 528.992188 293.519531 529.207031 292.503906 C 529.421875 291.484375 529.585938 290.457031 529.699219 289.421875 C 529.8125 288.390625 529.875 287.351562 529.886719 286.3125 C 529.902344 285.269531 529.863281 284.230469 529.773438 283.195312 C 529.6875 282.15625 529.546875 281.128906 529.359375 280.105469 C 529.171875 279.082031 528.933594 278.070312 528.648438 277.070312 C 528.359375 276.070312 528.027344 275.085938 527.644531 274.117188 C 527.261719 273.148438 526.832031 272.203125 526.359375 271.277344 C 525.882812 270.351562 525.363281 269.449219 524.800781 268.574219 C 524.238281 267.699219 523.636719 266.851562 522.992188 266.035156 C 522.347656 265.21875 521.664062 264.433594 520.941406 263.683594 C 520.222656 262.933594 519.464844 262.21875 518.675781 261.542969 C 517.886719 260.867188 517.066406 260.230469 516.210938 259.632812 C 515.359375 259.035156 514.480469 258.480469 513.574219 257.96875 C 512.667969 257.460938 511.738281 256.992188 510.789062 256.570312 C 509.835938 256.152344 508.867188 255.777344 507.878906 255.449219 C 506.890625 255.125 505.890625 254.84375 504.875 254.617188 C 503.859375 254.386719 502.835938 254.207031 501.804688 254.078125 C 500.769531 253.949219 499.734375 253.871094 498.695312 253.839844 C 497.652344 253.84375 496.613281 253.898438 495.578125 254 C 494.542969 254.105469 493.515625 254.257812 492.496094 254.460938 C 491.476562 254.667969 490.46875 254.917969 489.472656 255.222656 C 488.476562 255.523438 487.496094 255.875 486.535156 256.269531 C 485.574219 256.667969 484.632812 257.109375 483.714844 257.601562 C 482.796875 258.089844 481.902344 258.621094 481.035156 259.195312 C 480.167969 259.773438 479.332031 260.386719 478.527344 261.046875 C 477.71875 261.703125 476.945312 262.398438 476.207031 263.128906 C 475.46875 263.863281 474.765625 264.628906 474.101562 265.429688 C 473.4375 266.230469 472.8125 267.058594 472.226562 267.921875 C 471.644531 268.78125 471.101562 269.671875 470.605469 270.585938 C 470.109375 271.5 469.65625 272.433594 469.25 273.390625 C 468.84375 274.351562 468.484375 275.324219 468.171875 276.316406 C 467.859375 277.3125 467.597656 278.316406 467.382812 279.335938 C 467.171875 280.355469 467.007812 281.378906 466.894531 282.414062 C 466.78125 283.449219 466.714844 284.484375 466.703125 285.527344 C 466.691406 286.566406 466.726562 287.605469 466.816406 288.640625 C 466.902344 289.679688 467.042969 290.710938 467.230469 291.734375 C 467.417969 292.757812 467.65625 293.769531 467.945312 294.769531 C 468.230469 295.769531 468.566406 296.753906 468.949219 297.71875 C 469.328125 298.6875 469.757812 299.636719 470.234375 300.5625 C 470.707031 301.488281 471.226562 302.386719 471.789062 303.261719 C 472.351562 304.140625 472.953125 304.984375 473.597656 305.800781 C 474.242188 306.617188 474.925781 307.402344 475.648438 308.152344 C 476.367188 308.902344 477.125 309.617188 477.914062 310.292969 C 478.703125 310.96875 479.527344 311.605469 480.378906 312.203125 C 481.230469 312.800781 482.109375 313.355469 483.015625 313.867188 C 483.921875 314.378906 484.851562 314.84375 485.804688 315.265625 C 486.753906 315.6875 487.726562 316.058594 488.710938 316.386719 C 489.699219 316.714844 490.703125 316.992188 491.71875 317.222656 C 492.730469 317.449219 493.757812 317.628906 494.789062 317.757812 C 495.820312 317.890625 496.855469 317.96875 497.898438 317.996094 Z M 489.367188 276.757812 C 490.273438 275.890625 491.289062 275.167969 492.40625 274.597656 C 493.527344 274.027344 494.703125 273.628906 495.941406 273.402344 C 497.175781 273.175781 498.417969 273.128906 499.667969 273.265625 C 500.914062 273.402344 502.117188 273.714844 503.277344 274.207031 C 504.433594 274.695312 505.496094 275.339844 506.464844 276.136719 C 507.433594 276.9375 508.265625 277.859375 508.964844 278.902344 C 509.664062 279.945312 510.199219 281.070312 510.570312 282.269531 C 510.941406 283.46875 511.132812 284.699219 511.144531 285.953125 C 511.113281 286.792969 511 287.625 510.8125 288.441406 C 510.625 289.261719 510.363281 290.058594 510.027344 290.828125 C 509.691406 291.597656 509.285156 292.328125 508.8125 293.023438 C 508.335938 293.71875 507.804688 294.363281 507.210938 294.957031 C 506.613281 295.554688 505.972656 296.085938 505.277344 296.5625 C 504.582031 297.035156 503.851562 297.441406 503.082031 297.777344 C 502.3125 298.117188 501.515625 298.378906 500.699219 298.570312 C 499.878906 298.757812 499.050781 298.871094 498.210938 298.902344 C 496.9375 298.875 495.699219 298.664062 494.492188 298.269531 C 493.285156 297.875 492.160156 297.316406 491.113281 296.589844 C 490.070312 295.867188 489.152344 295.007812 488.363281 294.011719 C 487.570312 293.019531 486.941406 291.933594 486.46875 290.75 C 486 289.570312 485.707031 288.347656 485.597656 287.082031 C 485.484375 285.816406 485.558594 284.5625 485.816406 283.320312 C 486.074219 282.074219 486.503906 280.894531 487.109375 279.777344 C 487.714844 278.660156 488.464844 277.652344 489.367188 276.757812 Z M 489.367188 276.757812 " fill-opacity="1" fill-rule="nonzero"/><path fill="#EE807D" d="M 646.078125 510.640625 C 660.824219 455.613281 653.484375 407.207031 637.804688 340.515625 C 622.195312 273.253906 578.0625 180.355469 490.699219 198.042969 C 448.671875 204.332031 398.675781 226.640625 358.53125 215.183594 C 335.589844 209.394531 312.46875 204.589844 289.6875 199.644531 C 159.589844 171.203125 124.417969 346.59375 119.152344 452.035156 C 115.898438 522.621094 151.867188 581.097656 227.761719 540.140625 C 250.78125 527.199219 271.824219 511.59375 290.890625 493.316406 C 297.046875 487.230469 303.851562 481.992188 311.3125 477.597656 C 318.769531 473.203125 326.648438 469.789062 334.953125 467.351562 C 384.964844 454.777344 443.675781 456.234375 484.628906 495.34375 C 523.007812 534.042969 615.570312 595.570312 646.078125 510.640625 Z M 574.085938 531.53125 C 516.378906 514.179688 486.238281 452.738281 427.785156 445.21875 C 374.714844 436.871094 319.519531 439.898438 277.929688 479.292969 C 260.058594 496.457031 240.335938 511.125 218.757812 523.304688 C 85.890625 591.40625 151.070312 320.730469 177.9375 278.679688 C 223.140625 191.316406 273.507812 215.261719 353.828125 233.691406 C 380.71875 241.738281 416.683594 235.714844 447.367188 227.160156 C 496.535156 213.773438 544.140625 203.140625 578.539062 251.75 C 622.050781 298.035156 682.546875 564.042969 574.085938 531.53125 Z M 574.085938 531.53125 " fill-opacity="1" fill-rule="nonzero"/></svg>