<svg xmlns="http://www.w3.org/2000/svg" xmlns:xlink="http://www.w3.org/1999/xlink" width="1024" zoomAndPan="magnify" viewBox="0 0 768 767.999994" height="1024" preserveAspectRatio="xMidYMid meet" version="1.0"><path fill="#EE807D" d="M 282.648438 277.003906 L 263.664062 277.003906 L 263.664062 258.023438 C 263.664062 257.046875 263.613281 256.074219 263.519531 255.101562 C 263.421875 254.128906 263.277344 253.164062 263.085938 252.207031 C 262.894531 251.25 262.65625 250.304688 262.375 249.371094 C 262.089844 248.4375 261.761719 247.519531 261.386719 246.617188 C 261.011719 245.714844 260.597656 244.832031 260.136719 243.972656 C 259.675781 243.109375 259.171875 242.273438 258.628906 241.460938 C 258.089844 240.652344 257.507812 239.867188 256.886719 239.113281 C 256.269531 238.359375 255.613281 237.636719 254.921875 236.945312 C 254.234375 236.253906 253.511719 235.601562 252.753906 234.980469 C 252 234.359375 251.21875 233.78125 250.40625 233.238281 C 249.59375 232.695312 248.757812 232.191406 247.898438 231.730469 C 247.035156 231.269531 246.15625 230.851562 245.253906 230.480469 C 244.351562 230.105469 243.433594 229.777344 242.5 229.492188 C 241.566406 229.207031 240.621094 228.96875 239.664062 228.777344 C 238.703125 228.585938 237.742188 228.441406 236.769531 228.347656 C 235.796875 228.25 234.824219 228.199219 233.847656 228.199219 L 201.308594 228.199219 C 200.332031 228.199219 199.359375 228.25 198.386719 228.347656 C 197.414062 228.441406 196.453125 228.585938 195.492188 228.777344 C 194.535156 228.96875 193.589844 229.207031 192.65625 229.492188 C 191.722656 229.777344 190.804688 230.105469 189.902344 230.480469 C 189 230.851562 188.121094 231.269531 187.257812 231.730469 C 186.398438 232.191406 185.5625 232.695312 184.75 233.238281 C 183.9375 233.78125 183.15625 234.359375 182.402344 234.980469 C 181.644531 235.601562 180.925781 236.253906 180.234375 236.945312 C 179.542969 237.636719 178.886719 238.359375 178.269531 239.113281 C 177.648438 239.867188 177.070312 240.652344 176.527344 241.460938 C 175.984375 242.273438 175.480469 243.109375 175.019531 243.972656 C 174.5625 244.832031 174.144531 245.714844 173.769531 246.617188 C 173.394531 247.519531 173.066406 248.4375 172.78125 249.371094 C 172.5 250.304688 172.261719 251.25 172.070312 252.207031 C 171.878906 253.164062 171.734375 254.128906 171.636719 255.101562 C 171.542969 256.074219 171.492188 257.046875 171.492188 258.023438 L 171.492188 277.003906 L 152.507812 277.003906 C 151.535156 277.007812 150.558594 277.054688 149.589844 277.152344 C 148.617188 277.25 147.652344 277.394531 146.695312 277.585938 C 145.738281 277.777344 144.792969 278.011719 143.859375 278.296875 C 142.925781 278.582031 142.007812 278.910156 141.105469 279.285156 C 140.203125 279.660156 139.320312 280.074219 138.460938 280.535156 C 137.601562 280.996094 136.765625 281.5 135.953125 282.042969 C 135.140625 282.582031 134.359375 283.164062 133.601562 283.785156 C 132.847656 284.402344 132.125 285.058594 131.4375 285.75 C 130.746094 286.4375 130.089844 287.160156 129.472656 287.917969 C 128.851562 288.671875 128.269531 289.453125 127.726562 290.265625 C 127.183594 291.078125 126.683594 291.914062 126.222656 292.773438 C 125.761719 293.636719 125.34375 294.515625 124.972656 295.417969 C 124.597656 296.320312 124.269531 297.238281 123.984375 298.171875 C 123.699219 299.105469 123.460938 300.050781 123.269531 301.007812 C 123.078125 301.964844 122.9375 302.929688 122.839844 303.902344 C 122.742188 304.871094 122.695312 305.847656 122.691406 306.824219 L 122.691406 339.359375 C 122.695312 340.335938 122.742188 341.3125 122.839844 342.28125 C 122.9375 343.253906 123.078125 344.21875 123.269531 345.175781 C 123.460938 346.132812 123.699219 347.078125 123.984375 348.011719 C 124.269531 348.945312 124.597656 349.863281 124.972656 350.765625 C 125.34375 351.667969 125.761719 352.546875 126.222656 353.410156 C 126.683594 354.269531 127.183594 355.105469 127.726562 355.917969 C 128.269531 356.730469 128.851562 357.511719 129.472656 358.265625 C 130.089844 359.023438 130.746094 359.746094 131.4375 360.433594 C 132.125 361.125 132.847656 361.78125 133.601562 362.398438 C 134.359375 363.019531 135.140625 363.601562 135.953125 364.140625 C 136.765625 364.683594 137.601562 365.1875 138.460938 365.648438 C 139.320312 366.109375 140.203125 366.523438 141.105469 366.898438 C 142.007812 367.273438 142.925781 367.601562 143.859375 367.886719 C 144.792969 368.171875 145.738281 368.40625 146.695312 368.597656 C 147.652344 368.789062 148.617188 368.933594 149.589844 369.03125 C 150.558594 369.128906 151.535156 369.175781 152.507812 369.179688 L 171.492188 369.179688 L 171.492188 388.160156 C 171.492188 389.136719 171.542969 390.109375 171.640625 391.082031 C 171.734375 392.054688 171.878906 393.019531 172.070312 393.976562 C 172.261719 394.933594 172.5 395.878906 172.785156 396.8125 C 173.066406 397.746094 173.398438 398.664062 173.769531 399.566406 C 174.144531 400.46875 174.5625 401.347656 175.023438 402.210938 C 175.484375 403.070312 175.984375 403.90625 176.527344 404.71875 C 177.070312 405.527344 177.652344 406.3125 178.269531 407.066406 C 178.890625 407.820312 179.546875 408.542969 180.234375 409.234375 C 180.925781 409.925781 181.648438 410.578125 182.402344 411.199219 C 183.15625 411.816406 183.941406 412.398438 184.753906 412.941406 C 185.5625 413.484375 186.398438 413.984375 187.261719 414.445312 C 188.121094 414.90625 189.003906 415.324219 189.90625 415.699219 C 190.804688 416.074219 191.722656 416.402344 192.65625 416.6875 C 193.59375 416.96875 194.539062 417.207031 195.496094 417.398438 C 196.453125 417.589844 197.417969 417.734375 198.386719 417.832031 C 199.359375 417.925781 200.332031 417.976562 201.308594 417.976562 L 233.847656 417.976562 C 234.824219 417.976562 235.796875 417.925781 236.769531 417.832031 C 237.738281 417.734375 238.703125 417.589844 239.660156 417.398438 C 240.617188 417.207031 241.566406 416.96875 242.5 416.6875 C 243.433594 416.402344 244.351562 416.074219 245.253906 415.699219 C 246.152344 415.324219 247.035156 414.90625 247.894531 414.445312 C 248.757812 413.984375 249.59375 413.484375 250.40625 412.941406 C 251.214844 412.398438 252 411.816406 252.753906 411.199219 C 253.507812 410.578125 254.230469 409.925781 254.921875 409.234375 C 255.613281 408.542969 256.265625 407.820312 256.886719 407.066406 C 257.503906 406.3125 258.085938 405.527344 258.628906 404.71875 C 259.171875 403.90625 259.671875 403.070312 260.132812 402.207031 C 260.59375 401.347656 261.011719 400.46875 261.386719 399.566406 C 261.757812 398.664062 262.089844 397.746094 262.371094 396.8125 C 262.65625 395.878906 262.894531 394.933594 263.085938 393.972656 C 263.277344 393.015625 263.421875 392.054688 263.519531 391.082031 C 263.613281 390.109375 263.664062 389.136719 263.664062 388.160156 L 263.664062 369.179688 L 282.648438 369.179688 C 283.625 369.175781 284.597656 369.128906 285.570312 369.03125 C 286.539062 368.933594 287.503906 368.789062 288.460938 368.597656 C 289.417969 368.40625 290.367188 368.171875 291.300781 367.886719 C 292.234375 367.601562 293.152344 367.273438 294.054688 366.898438 C 294.953125 366.523438 295.835938 366.109375 296.695312 365.648438 C 297.558594 365.1875 298.394531 364.683594 299.203125 364.140625 C 300.015625 363.597656 300.800781 363.019531 301.554688 362.398438 C 302.308594 361.78125 303.03125 361.125 303.722656 360.433594 C 304.410156 359.746094 305.066406 359.023438 305.6875 358.265625 C 306.304688 357.511719 306.886719 356.730469 307.429688 355.917969 C 307.972656 355.105469 308.472656 354.269531 308.933594 353.410156 C 309.394531 352.550781 309.8125 351.667969 310.1875 350.765625 C 310.558594 349.863281 310.890625 348.945312 311.171875 348.011719 C 311.457031 347.078125 311.695312 346.132812 311.886719 345.175781 C 312.078125 344.21875 312.222656 343.253906 312.316406 342.28125 C 312.414062 341.3125 312.464844 340.335938 312.464844 339.359375 L 312.464844 306.824219 C 312.464844 305.847656 312.414062 304.871094 312.316406 303.902344 C 312.222656 302.929688 312.078125 301.964844 311.886719 301.007812 C 311.695312 300.050781 311.457031 299.105469 311.171875 298.171875 C 310.890625 297.238281 310.558594 296.320312 310.1875 295.417969 C 309.8125 294.515625 309.394531 293.636719 308.933594 292.773438 C 308.472656 291.914062 307.972656 291.078125 307.429688 290.265625 C 306.886719 289.453125 306.304688 288.671875 305.6875 287.917969 C 305.066406 287.160156 304.410156 286.4375 303.722656 285.75 C 303.03125 285.058594 302.308594 284.402344 301.554688 283.785156 C 300.800781 283.164062 300.015625 282.585938 299.207031 282.042969 C 298.394531 281.5 297.558594 280.996094 296.695312 280.535156 C 295.835938 280.074219 294.953125 279.660156 294.054688 279.285156 C 293.152344 278.910156 292.234375 278.582031 291.300781 278.296875 C 290.367188 278.011719 289.417969 277.777344 288.460938 277.585938 C 287.503906 277.394531 286.539062 277.25 285.570312 277.152344 C 284.597656 277.054688 283.625 277.007812 282.648438 277.003906 Z M 285.355469 339.359375 C 285.355469 339.71875 285.285156 340.066406 285.148438 340.398438 C 285.011719 340.726562 284.816406 341.019531 284.5625 341.273438 C 284.308594 341.527344 284.015625 341.722656 283.683594 341.863281 C 283.351562 342 283.007812 342.066406 282.648438 342.066406 L 250.109375 342.066406 C 249.21875 342.066406 248.335938 342.15625 247.464844 342.328125 C 246.59375 342.5 245.746094 342.757812 244.921875 343.097656 C 244.101562 343.441406 243.320312 343.859375 242.578125 344.351562 C 241.839844 344.847656 241.152344 345.410156 240.523438 346.039062 C 239.894531 346.667969 239.332031 347.351562 238.839844 348.09375 C 238.34375 348.832031 237.925781 349.613281 237.585938 350.433594 C 237.246094 351.257812 236.988281 352.105469 236.816406 352.976562 C 236.640625 353.851562 236.554688 354.734375 236.554688 355.621094 L 236.554688 388.160156 C 236.554688 388.519531 236.484375 388.863281 236.347656 389.195312 C 236.210938 389.527344 236.015625 389.820312 235.761719 390.074219 C 235.507812 390.328125 235.214844 390.523438 234.882812 390.660156 C 234.550781 390.800781 234.207031 390.867188 233.847656 390.867188 L 201.308594 390.867188 C 200.949219 390.867188 200.605469 390.800781 200.273438 390.660156 C 199.941406 390.523438 199.648438 390.328125 199.394531 390.074219 C 199.140625 389.820312 198.945312 389.527344 198.808594 389.195312 C 198.671875 388.863281 198.601562 388.519531 198.601562 388.160156 L 198.601562 355.621094 C 198.601562 354.734375 198.515625 353.851562 198.34375 352.976562 C 198.167969 352.105469 197.910156 351.257812 197.570312 350.433594 C 197.230469 349.613281 196.8125 348.832031 196.316406 348.09375 C 195.824219 347.351562 195.261719 346.667969 194.632812 346.039062 C 194.003906 345.410156 193.316406 344.847656 192.578125 344.351562 C 191.839844 343.859375 191.058594 343.441406 190.234375 343.101562 C 189.414062 342.757812 188.566406 342.5 187.691406 342.328125 C 186.820312 342.15625 185.9375 342.066406 185.046875 342.066406 L 152.507812 342.066406 C 152.152344 342.066406 151.804688 342 151.472656 341.863281 C 151.140625 341.722656 150.847656 341.527344 150.59375 341.273438 C 150.339844 341.019531 150.144531 340.726562 150.007812 340.398438 C 149.871094 340.066406 149.800781 339.71875 149.804688 339.359375 L 149.804688 306.824219 C 149.800781 306.464844 149.871094 306.117188 150.007812 305.785156 C 150.144531 305.457031 150.339844 305.164062 150.59375 304.910156 C 150.847656 304.65625 151.140625 304.460938 151.472656 304.320312 C 151.804688 304.183594 152.152344 304.117188 152.507812 304.117188 L 185.046875 304.117188 C 185.9375 304.117188 186.820312 304.027344 187.691406 303.855469 C 188.566406 303.683594 189.414062 303.425781 190.234375 303.085938 C 191.058594 302.742188 191.839844 302.324219 192.578125 301.832031 C 193.316406 301.335938 194.003906 300.773438 194.632812 300.144531 C 195.261719 299.515625 195.824219 298.832031 196.316406 298.089844 C 196.8125 297.351562 197.230469 296.570312 197.570312 295.75 C 197.910156 294.925781 198.167969 294.078125 198.34375 293.207031 C 198.515625 292.332031 198.601562 291.449219 198.601562 290.5625 L 198.601562 258.023438 C 198.601562 257.664062 198.671875 257.316406 198.808594 256.984375 C 198.945312 256.652344 199.140625 256.359375 199.394531 256.105469 C 199.648438 255.851562 199.941406 255.65625 200.273438 255.515625 C 200.605469 255.378906 200.949219 255.308594 201.308594 255.308594 L 233.847656 255.308594 C 234.207031 255.308594 234.550781 255.378906 234.882812 255.515625 C 235.214844 255.65625 235.507812 255.851562 235.761719 256.105469 C 236.015625 256.359375 236.210938 256.652344 236.347656 256.984375 C 236.484375 257.316406 236.554688 257.664062 236.554688 258.023438 L 236.554688 290.5625 C 236.554688 291.449219 236.640625 292.332031 236.816406 293.207031 C 236.988281 294.078125 237.246094 294.925781 237.585938 295.75 C 237.925781 296.570312 238.34375 297.351562 238.839844 298.089844 C 239.332031 298.832031 239.894531 299.515625 240.523438 300.144531 C 241.152344 300.773438 241.839844 301.335938 242.578125 301.832031 C 243.320312 302.324219 244.101562 302.742188 244.921875 303.085938 C 245.746094 303.425781 246.59375 303.683594 247.464844 303.855469 C 248.335938 304.027344 249.21875 304.117188 250.109375 304.117188 L 282.648438 304.117188 C 283.007812 304.117188 283.351562 304.183594 283.683594 304.320312 C 284.015625 304.460938 284.308594 304.65625 284.5625 304.910156 C 284.816406 305.164062 285.011719 305.457031 285.148438 305.785156 C 285.285156 306.117188 285.355469 306.464844 285.355469 306.824219 Z M 285.355469 339.359375 " fill-opacity="1" fill-rule="nonzero"/><path fill="#EE807D" d="M 546.976562 356.164062 C 545.5 356.148438 544.027344 356.203125 542.554688 356.332031 C 541.082031 356.457031 539.621094 356.65625 538.167969 356.925781 C 536.71875 357.195312 535.28125 357.535156 533.863281 357.945312 C 532.445312 358.355469 531.046875 358.835938 529.675781 359.382812 C 528.304688 359.929688 526.960938 360.542969 525.648438 361.222656 C 524.335938 361.898438 523.0625 362.640625 521.820312 363.445312 C 520.582031 364.246094 519.386719 365.109375 518.230469 366.027344 C 517.074219 366.949219 515.96875 367.925781 514.90625 368.953125 C 513.847656 369.980469 512.839844 371.058594 511.886719 372.1875 C 510.929688 373.316406 510.035156 374.484375 509.195312 375.699219 C 508.355469 376.917969 507.574219 378.167969 506.859375 379.460938 C 506.140625 380.753906 505.488281 382.074219 504.902344 383.429688 C 504.3125 384.785156 503.792969 386.167969 503.339844 387.574219 C 502.890625 388.980469 502.507812 390.402344 502.191406 391.847656 C 501.878906 393.289062 501.636719 394.746094 501.46875 396.214844 C 501.296875 397.679688 501.199219 399.152344 501.171875 400.628906 C 501.144531 402.105469 501.191406 403.582031 501.308594 405.054688 C 501.425781 406.527344 501.613281 407.988281 501.875 409.441406 C 502.136719 410.898438 502.46875 412.335938 502.867188 413.757812 C 503.269531 415.175781 503.742188 416.574219 504.277344 417.953125 C 504.816406 419.328125 505.421875 420.671875 506.089844 421.988281 C 506.761719 423.304688 507.496094 424.585938 508.289062 425.832031 C 509.085938 427.074219 509.9375 428.277344 510.851562 429.441406 C 511.765625 430.601562 512.734375 431.714844 513.753906 432.78125 C 514.777344 433.847656 515.847656 434.859375 516.96875 435.824219 C 518.09375 436.785156 519.257812 437.6875 520.46875 438.535156 C 521.675781 439.382812 522.925781 440.171875 524.210938 440.894531 C 525.5 441.621094 526.816406 442.28125 528.167969 442.878906 C 529.519531 443.472656 530.898438 444.003906 532.300781 444.464844 C 533.703125 444.925781 535.128906 445.316406 536.570312 445.640625 C 538.011719 445.960938 539.464844 446.210938 540.929688 446.394531 C 542.398438 446.574219 543.867188 446.679688 545.34375 446.714844 C 604.882812 445.621094 607.15625 358.714844 546.976562 356.164062 Z M 545.878906 419.613281 C 545.289062 419.597656 544.699219 419.558594 544.113281 419.488281 C 543.527344 419.414062 542.945312 419.316406 542.371094 419.1875 C 541.792969 419.0625 541.226562 418.90625 540.664062 418.722656 C 540.101562 418.539062 539.550781 418.332031 539.007812 418.09375 C 538.46875 417.855469 537.941406 417.59375 537.425781 417.308594 C 536.910156 417.019531 536.410156 416.707031 535.925781 416.371094 C 535.4375 416.03125 534.972656 415.671875 534.523438 415.289062 C 534.070312 414.90625 533.640625 414.503906 533.230469 414.078125 C 532.820312 413.65625 532.429688 413.210938 532.0625 412.75 C 531.695312 412.285156 531.351562 411.808594 531.03125 411.3125 C 530.710938 410.816406 530.414062 410.304688 530.144531 409.78125 C 529.875 409.257812 529.628906 408.71875 529.410156 408.171875 C 529.191406 407.621094 529 407.066406 528.835938 406.496094 C 528.671875 405.929688 528.535156 405.355469 528.425781 404.777344 C 528.320312 404.195312 528.238281 403.609375 528.1875 403.023438 C 528.136719 402.433594 528.113281 401.84375 528.121094 401.253906 C 528.125 400.664062 528.160156 400.074219 528.226562 399.488281 C 528.289062 398.902344 528.378906 398.320312 528.5 397.742188 C 528.621094 397.164062 528.769531 396.589844 528.945312 396.027344 C 529.121094 395.464844 529.324219 394.910156 529.554688 394.367188 C 529.785156 393.820312 530.039062 393.289062 530.320312 392.773438 C 530.605469 392.253906 530.910156 391.75 531.242188 391.257812 C 531.570312 390.769531 531.925781 390.296875 532.300781 389.84375 C 532.679688 389.390625 533.078125 388.953125 533.496094 388.539062 C 533.917969 388.121094 534.355469 387.726562 534.8125 387.355469 C 535.269531 386.980469 535.746094 386.632812 536.238281 386.304688 C 536.730469 385.980469 537.234375 385.675781 537.757812 385.398438 C 538.277344 385.121094 538.8125 384.871094 539.359375 384.644531 C 539.902344 384.417969 540.460938 384.222656 541.023438 384.050781 C 541.589844 383.878906 542.160156 383.734375 542.742188 383.621094 C 543.320312 383.503906 543.902344 383.417969 544.492188 383.359375 C 545.078125 383.300781 545.667969 383.269531 546.257812 383.269531 C 546.847656 383.285156 547.4375 383.324219 548.023438 383.398438 C 548.609375 383.46875 549.1875 383.566406 549.765625 383.695312 C 550.339844 383.824219 550.910156 383.980469 551.472656 384.164062 C 552.03125 384.34375 552.582031 384.554688 553.125 384.792969 C 553.664062 385.027344 554.191406 385.292969 554.707031 385.578125 C 555.222656 385.867188 555.722656 386.179688 556.207031 386.519531 C 556.691406 386.855469 557.160156 387.214844 557.609375 387.597656 C 558.058594 387.980469 558.488281 388.382812 558.898438 388.808594 C 559.308594 389.230469 559.695312 389.675781 560.0625 390.136719 C 560.429688 390.601562 560.773438 391.078125 561.09375 391.574219 C 561.414062 392.070312 561.710938 392.582031 561.980469 393.105469 C 562.25 393.628906 562.496094 394.164062 562.714844 394.714844 C 562.933594 395.261719 563.125 395.820312 563.289062 396.386719 C 563.453125 396.953125 563.589844 397.527344 563.695312 398.109375 C 563.804688 398.6875 563.882812 399.273438 563.9375 399.859375 C 563.988281 400.449219 564.007812 401.039062 564.003906 401.628906 C 563.996094 402.21875 563.960938 402.804688 563.898438 403.394531 C 563.835938 403.980469 563.742188 404.5625 563.625 405.140625 C 563.503906 405.71875 563.355469 406.289062 563.179688 406.851562 C 563.003906 407.414062 562.800781 407.96875 562.570312 408.511719 C 562.339844 409.058594 562.085938 409.589844 561.804688 410.105469 C 561.523438 410.625 561.214844 411.128906 560.886719 411.617188 C 560.554688 412.105469 560.203125 412.578125 559.824219 413.035156 C 559.449219 413.488281 559.050781 413.921875 558.632812 414.339844 C 558.210938 414.753906 557.773438 415.148438 557.316406 415.523438 C 556.859375 415.894531 556.386719 416.246094 555.894531 416.570312 C 555.402344 416.898438 554.894531 417.199219 554.375 417.476562 C 553.855469 417.757812 553.320312 418.007812 552.777344 418.234375 C 552.230469 418.457031 551.675781 418.65625 551.109375 418.828125 C 550.546875 419 549.972656 419.144531 549.394531 419.257812 C 548.816406 419.375 548.234375 419.460938 547.644531 419.523438 C 547.058594 419.582031 546.46875 419.609375 545.878906 419.613281 Z M 545.878906 419.613281 " fill-opacity="1" fill-rule="nonzero"/><path fill="#EE807D" d="M 468.773438 277.675781 C 408.777344 278.183594 407.738281 367.109375 467.839844 367.960938 C 469.304688 367.953125 470.765625 367.875 472.222656 367.726562 C 473.679688 367.578125 475.128906 367.359375 476.5625 367.070312 C 478 366.78125 479.417969 366.421875 480.820312 365.996094 C 482.21875 365.566406 483.597656 365.074219 484.949219 364.511719 C 486.304688 363.949219 487.625 363.324219 488.917969 362.632812 C 490.210938 361.945312 491.464844 361.191406 492.683594 360.378906 C 493.902344 359.566406 495.078125 358.699219 496.214844 357.769531 C 497.347656 356.84375 498.433594 355.863281 499.472656 354.832031 C 500.511719 353.800781 501.5 352.71875 502.433594 351.589844 C 503.367188 350.460938 504.242188 349.289062 505.0625 348.074219 C 505.882812 346.859375 506.640625 345.609375 507.339844 344.324219 C 508.039062 343.035156 508.671875 341.714844 509.242188 340.367188 C 509.8125 339.015625 510.3125 337.640625 510.75 336.242188 C 511.183594 334.84375 511.550781 333.429688 511.851562 331.996094 C 512.148438 330.558594 512.375 329.113281 512.53125 327.660156 C 512.691406 326.203125 512.777344 324.742188 512.792969 323.277344 C 512.808594 321.8125 512.75 320.347656 512.625 318.890625 C 512.496094 317.429688 512.296875 315.980469 512.03125 314.539062 C 511.761719 313.101562 511.425781 311.675781 511.019531 310.269531 C 510.609375 308.863281 510.136719 307.476562 509.59375 306.117188 C 509.054688 304.757812 508.445312 303.425781 507.777344 302.121094 C 507.105469 300.820312 506.371094 299.554688 505.578125 298.324219 C 504.78125 297.09375 503.929688 295.902344 503.019531 294.753906 C 502.109375 293.609375 501.144531 292.507812 500.128906 291.453125 C 499.109375 290.398438 498.046875 289.398438 496.929688 288.445312 C 495.816406 287.496094 494.65625 286.601562 493.453125 285.765625 C 492.253906 284.929688 491.011719 284.152344 489.734375 283.433594 C 488.457031 282.71875 487.148438 282.0625 485.808594 281.476562 C 484.464844 280.886719 483.101562 280.363281 481.707031 279.90625 C 480.316406 279.449219 478.90625 279.0625 477.476562 278.742188 C 476.046875 278.425781 474.601562 278.175781 473.148438 277.996094 C 471.695312 277.820312 470.234375 277.710938 468.773438 277.675781 Z M 467.433594 340.84375 C 466.851562 340.816406 466.273438 340.761719 465.695312 340.675781 C 465.121094 340.59375 464.546875 340.484375 463.980469 340.34375 C 463.417969 340.207031 462.859375 340.039062 462.308594 339.847656 C 461.757812 339.652344 461.21875 339.433594 460.691406 339.191406 C 460.160156 338.945312 459.644531 338.675781 459.144531 338.378906 C 458.640625 338.085938 458.152344 337.765625 457.683594 337.421875 C 457.210938 337.082031 456.757812 336.71875 456.320312 336.332031 C 455.882812 335.945312 455.46875 335.539062 455.070312 335.113281 C 454.671875 334.683594 454.296875 334.238281 453.945312 333.777344 C 453.589844 333.3125 453.257812 332.835938 452.953125 332.339844 C 452.644531 331.84375 452.363281 331.335938 452.105469 330.8125 C 451.84375 330.292969 451.613281 329.757812 451.40625 329.210938 C 451.199219 328.667969 451.019531 328.113281 450.867188 327.550781 C 450.714844 326.988281 450.589844 326.421875 450.492188 325.847656 C 450.394531 325.269531 450.324219 324.695312 450.285156 324.113281 C 450.242188 323.53125 450.230469 322.949219 450.242188 322.367188 C 450.257812 321.785156 450.300781 321.203125 450.371094 320.625 C 450.445312 320.046875 450.542969 319.472656 450.667969 318.902344 C 450.796875 318.335938 450.949219 317.773438 451.128906 317.21875 C 451.3125 316.664062 451.519531 316.121094 451.753906 315.589844 C 451.984375 315.054688 452.246094 314.53125 452.53125 314.023438 C 452.8125 313.515625 453.121094 313.023438 453.453125 312.542969 C 453.785156 312.0625 454.140625 311.601562 454.515625 311.15625 C 454.894531 310.714844 455.292969 310.289062 455.710938 309.882812 C 456.128906 309.476562 456.566406 309.089844 457.019531 308.726562 C 457.476562 308.363281 457.949219 308.023438 458.4375 307.707031 C 458.925781 307.386719 459.425781 307.09375 459.945312 306.824219 C 460.460938 306.554688 460.988281 306.3125 461.53125 306.09375 C 462.070312 305.875 462.621094 305.683594 463.179688 305.519531 C 463.738281 305.355469 464.304688 305.21875 464.875 305.109375 C 465.449219 305 466.023438 304.917969 466.605469 304.863281 C 467.183594 304.808594 467.765625 304.78125 468.347656 304.785156 C 468.949219 304.785156 469.546875 304.820312 470.140625 304.882812 C 470.738281 304.941406 471.328125 305.035156 471.914062 305.15625 C 472.5 305.277344 473.078125 305.425781 473.652344 305.605469 C 474.222656 305.78125 474.785156 305.988281 475.335938 306.222656 C 475.886719 306.457031 476.425781 306.71875 476.949219 307.007812 C 477.476562 307.292969 477.984375 307.605469 478.476562 307.945312 C 478.972656 308.285156 479.449219 308.648438 479.90625 309.03125 C 480.363281 309.417969 480.800781 309.828125 481.21875 310.257812 C 481.636719 310.6875 482.03125 311.136719 482.402344 311.605469 C 482.773438 312.074219 483.125 312.558594 483.449219 313.0625 C 483.773438 313.566406 484.070312 314.085938 484.34375 314.617188 C 484.613281 315.152344 484.859375 315.699219 485.078125 316.253906 C 485.296875 316.8125 485.484375 317.378906 485.648438 317.957031 C 485.808594 318.535156 485.941406 319.117188 486.042969 319.707031 C 486.148438 320.296875 486.222656 320.890625 486.265625 321.488281 C 486.3125 322.085938 486.324219 322.683594 486.308594 323.28125 C 486.296875 323.878906 486.25 324.476562 486.175781 325.070312 C 486.101562 325.664062 485.996094 326.253906 485.863281 326.835938 C 485.730469 327.421875 485.570312 327.996094 485.378906 328.566406 C 485.1875 329.132812 484.96875 329.6875 484.722656 330.234375 C 484.476562 330.78125 484.203125 331.3125 483.90625 331.832031 C 483.605469 332.351562 483.28125 332.855469 482.933594 333.339844 C 482.585938 333.828125 482.210938 334.292969 481.816406 334.746094 C 481.421875 335.195312 481.003906 335.621094 480.566406 336.03125 C 480.125 336.4375 479.667969 336.824219 479.191406 337.1875 C 478.714844 337.546875 478.222656 337.886719 477.710938 338.199219 C 477.199219 338.511719 476.675781 338.800781 476.136719 339.058594 C 475.597656 339.320312 475.046875 339.554688 474.484375 339.761719 C 473.921875 339.96875 473.351562 340.144531 472.773438 340.292969 C 472.191406 340.441406 471.605469 340.5625 471.015625 340.652344 C 470.421875 340.746094 469.828125 340.804688 469.230469 340.835938 C 468.632812 340.871094 468.03125 340.871094 467.433594 340.84375 Z M 467.433594 340.84375 " fill-opacity="1" fill-rule="nonzero"/><path fill="#EE807D" d="M 625.066406 277.675781 C 565.167969 279.203125 563.859375 366.550781 624.433594 367.960938 C 683.933594 366.976562 683.96875 279.617188 625.066406 277.675781 Z M 624 340.84375 C 623.414062 340.828125 622.828125 340.785156 622.246094 340.710938 C 621.660156 340.640625 621.082031 340.539062 620.511719 340.410156 C 619.9375 340.28125 619.371094 340.125 618.8125 339.941406 C 618.253906 339.757812 617.707031 339.546875 617.171875 339.308594 C 616.632812 339.070312 616.109375 338.804688 615.597656 338.515625 C 615.085938 338.226562 614.589844 337.914062 614.109375 337.578125 C 613.628906 337.238281 613.164062 336.878906 612.71875 336.496094 C 612.273438 336.113281 611.847656 335.710938 611.441406 335.285156 C 611.035156 334.863281 610.648438 334.417969 610.285156 333.957031 C 609.921875 333.496094 609.582031 333.015625 609.265625 332.519531 C 608.949219 332.023438 608.660156 331.515625 608.394531 330.992188 C 608.125 330.46875 607.886719 329.933594 607.671875 329.386719 C 607.457031 328.839844 607.269531 328.28125 607.113281 327.714844 C 606.953125 327.152344 606.820312 326.578125 606.714844 326 C 606.613281 325.421875 606.539062 324.839844 606.492188 324.253906 C 606.445312 323.667969 606.425781 323.082031 606.4375 322.496094 C 606.445312 321.90625 606.484375 321.320312 606.554688 320.738281 C 606.621094 320.15625 606.71875 319.574219 606.839844 319 C 606.964844 318.425781 607.117188 317.859375 607.296875 317.300781 C 607.476562 316.742188 607.683594 316.191406 607.917969 315.652344 C 608.152344 315.113281 608.410156 314.585938 608.695312 314.074219 C 608.980469 313.558594 609.289062 313.058594 609.621094 312.578125 C 609.957031 312.09375 610.3125 311.625 610.691406 311.179688 C 611.070312 310.730469 611.472656 310.300781 611.890625 309.890625 C 612.3125 309.480469 612.753906 309.09375 613.210938 308.726562 C 613.671875 308.359375 614.148438 308.015625 614.640625 307.695312 C 615.132812 307.375 615.640625 307.078125 616.160156 306.808594 C 616.683594 306.539062 617.21875 306.292969 617.761719 306.074219 C 618.308594 305.855469 618.863281 305.667969 619.425781 305.5 C 619.992188 305.335938 620.5625 305.203125 621.140625 305.09375 C 621.71875 304.984375 622.296875 304.90625 622.882812 304.851562 C 623.46875 304.800781 624.054688 304.777344 624.644531 304.785156 C 625.230469 304.800781 625.816406 304.84375 626.398438 304.914062 C 626.980469 304.988281 627.558594 305.089844 628.132812 305.21875 C 628.707031 305.347656 629.273438 305.503906 629.832031 305.6875 C 630.386719 305.871094 630.9375 306.082031 631.472656 306.320312 C 632.011719 306.558594 632.535156 306.820312 633.046875 307.109375 C 633.558594 307.398438 634.054688 307.710938 634.535156 308.050781 C 635.015625 308.386719 635.480469 308.746094 635.925781 309.128906 C 636.371094 309.511719 636.796875 309.917969 637.203125 310.339844 C 637.609375 310.765625 637.996094 311.210938 638.359375 311.671875 C 638.722656 312.132812 639.0625 312.613281 639.375 313.105469 C 639.691406 313.601562 639.984375 314.113281 640.25 314.636719 C 640.515625 315.160156 640.757812 315.695312 640.972656 316.242188 C 641.1875 316.789062 641.371094 317.34375 641.53125 317.910156 C 641.691406 318.476562 641.824219 319.046875 641.925781 319.625 C 642.03125 320.203125 642.105469 320.785156 642.152344 321.371094 C 642.199219 321.957031 642.21875 322.546875 642.207031 323.132812 C 642.195312 323.71875 642.15625 324.304688 642.089844 324.890625 C 642.023438 325.472656 641.925781 326.050781 641.800781 326.625 C 641.679688 327.199219 641.527344 327.765625 641.347656 328.328125 C 641.167969 328.886719 640.960938 329.4375 640.726562 329.976562 C 640.492188 330.515625 640.234375 331.039062 639.949219 331.554688 C 639.664062 332.070312 639.355469 332.566406 639.019531 333.050781 C 638.6875 333.535156 638.332031 334 637.953125 334.449219 C 637.574219 334.898438 637.171875 335.328125 636.75 335.738281 C 636.332031 336.148438 635.890625 336.535156 635.429688 336.902344 C 634.972656 337.269531 634.496094 337.613281 634.003906 337.933594 C 633.511719 338.253906 633.003906 338.546875 632.480469 338.820312 C 631.960938 339.089844 631.425781 339.332031 630.882812 339.550781 C 630.335938 339.769531 629.78125 339.960938 629.214844 340.125 C 628.652344 340.289062 628.082031 340.425781 627.503906 340.535156 C 626.925781 340.644531 626.34375 340.722656 625.761719 340.773438 C 625.175781 340.824219 624.589844 340.847656 624 340.84375 Z M 624 340.84375 " fill-opacity="1" fill-rule="nonzero"/><path fill="#EE807D" d="M 545.722656 290.28125 C 547.199219 290.277344 548.671875 290.203125 550.140625 290.054688 C 551.613281 289.90625 553.070312 289.6875 554.519531 289.398438 C 555.96875 289.109375 557.402344 288.75 558.816406 288.320312 C 560.230469 287.894531 561.617188 287.394531 562.984375 286.832031 C 564.347656 286.269531 565.683594 285.640625 566.988281 284.945312 C 568.292969 284.25 569.5625 283.496094 570.792969 282.679688 C 572.023438 281.859375 573.210938 280.984375 574.355469 280.054688 C 575.503906 279.121094 576.601562 278.132812 577.648438 277.09375 C 578.699219 276.054688 579.695312 274.964844 580.640625 273.828125 C 581.582031 272.691406 582.46875 271.511719 583.300781 270.289062 C 584.128906 269.066406 584.894531 267.804688 585.601562 266.507812 C 586.308594 265.210938 586.949219 263.882812 587.527344 262.523438 C 588.105469 261.160156 588.613281 259.777344 589.058594 258.367188 C 589.5 256.957031 589.871094 255.53125 590.175781 254.082031 C 590.480469 252.636719 590.710938 251.179688 590.875 249.710938 C 591.035156 248.242188 591.125 246.769531 591.144531 245.292969 C 591.160156 243.816406 591.109375 242.339844 590.984375 240.867188 C 590.859375 239.394531 590.660156 237.933594 590.394531 236.480469 C 590.125 235.027344 589.789062 233.589844 589.382812 232.171875 C 588.976562 230.75 588.5 229.351562 587.957031 227.980469 C 587.414062 226.605469 586.804688 225.261719 586.128906 223.945312 C 585.457031 222.632812 584.71875 221.351562 583.921875 220.109375 C 583.125 218.867188 582.265625 217.664062 581.351562 216.503906 C 580.4375 215.34375 579.464844 214.230469 578.441406 213.167969 C 577.417969 212.101562 576.347656 211.089844 575.222656 210.128906 C 574.101562 209.164062 572.9375 208.261719 571.726562 207.414062 C 570.515625 206.566406 569.265625 205.78125 567.980469 205.054688 C 566.695312 204.328125 565.375 203.664062 564.023438 203.066406 C 562.671875 202.46875 561.296875 201.9375 559.894531 201.476562 C 558.488281 201.011719 557.066406 200.617188 555.625 200.292969 C 554.1875 199.964844 552.730469 199.710938 551.265625 199.527344 C 549.800781 199.34375 548.328125 199.230469 546.851562 199.1875 C 545.375 199.195312 543.902344 199.269531 542.429688 199.417969 C 540.960938 199.566406 539.5 199.785156 538.050781 200.074219 C 536.601562 200.363281 535.171875 200.722656 533.757812 201.152344 C 532.34375 201.578125 530.953125 202.074219 529.589844 202.640625 C 528.222656 203.203125 526.886719 203.832031 525.582031 204.527344 C 524.28125 205.222656 523.011719 205.976562 521.78125 206.792969 C 520.550781 207.609375 519.363281 208.488281 518.214844 209.417969 C 517.070312 210.351562 515.972656 211.339844 514.921875 212.378906 C 513.875 213.417969 512.875 214.507812 511.933594 215.644531 C 510.988281 216.78125 510.101562 217.960938 509.273438 219.183594 C 508.445312 220.40625 507.675781 221.664062 506.96875 222.964844 C 506.265625 224.261719 505.621094 225.589844 505.042969 226.949219 C 504.46875 228.308594 503.957031 229.695312 503.515625 231.105469 C 503.074219 232.515625 502.699219 233.941406 502.398438 235.386719 C 502.09375 236.835938 501.859375 238.292969 501.699219 239.761719 C 501.539062 241.230469 501.449219 242.703125 501.429688 244.179688 C 501.410156 245.65625 501.464844 247.132812 501.589844 248.605469 C 501.714844 250.074219 501.910156 251.539062 502.179688 252.992188 C 502.445312 254.445312 502.78125 255.882812 503.191406 257.300781 C 503.597656 258.722656 504.074219 260.117188 504.617188 261.492188 C 505.160156 262.867188 505.769531 264.210938 506.441406 265.527344 C 507.117188 266.839844 507.851562 268.121094 508.648438 269.363281 C 509.449219 270.605469 510.304688 271.808594 511.222656 272.96875 C 512.136719 274.128906 513.105469 275.238281 514.128906 276.304688 C 515.152344 277.371094 516.226562 278.382812 517.347656 279.34375 C 518.46875 280.304688 519.636719 281.210938 520.847656 282.058594 C 522.058594 282.90625 523.304688 283.691406 524.59375 284.417969 C 525.878906 285.144531 527.199219 285.808594 528.550781 286.40625 C 529.898438 287.003906 531.277344 287.535156 532.679688 287.996094 C 534.082031 288.460938 535.503906 288.855469 536.945312 289.179688 C 538.386719 289.507812 539.839844 289.761719 541.304688 289.945312 C 542.773438 290.128906 544.242188 290.242188 545.722656 290.28125 Z M 533.609375 231.726562 C 534.25 231.113281 534.933594 230.550781 535.65625 230.039062 C 536.378906 229.523438 537.136719 229.066406 537.925781 228.664062 C 538.71875 228.257812 539.53125 227.914062 540.371094 227.632812 C 541.210938 227.347656 542.070312 227.125 542.941406 226.964844 C 543.8125 226.804688 544.695312 226.707031 545.582031 226.675781 C 546.46875 226.644531 547.351562 226.675781 548.234375 226.773438 C 549.113281 226.871094 549.984375 227.027344 550.84375 227.253906 C 551.703125 227.476562 552.539062 227.757812 553.355469 228.105469 C 554.175781 228.449219 554.960938 228.851562 555.722656 229.3125 C 556.480469 229.773438 557.203125 230.285156 557.886719 230.847656 C 558.570312 231.414062 559.210938 232.023438 559.804688 232.683594 C 560.398438 233.339844 560.945312 234.039062 561.4375 234.777344 C 561.929688 235.511719 562.371094 236.28125 562.75 237.082031 C 563.132812 237.882812 563.453125 238.707031 563.714844 239.554688 C 563.980469 240.402344 564.179688 241.265625 564.3125 242.140625 C 564.449219 243.019531 564.523438 243.898438 564.53125 244.785156 C 564.484375 245.980469 564.328125 247.15625 564.058594 248.320312 C 563.792969 249.484375 563.421875 250.613281 562.941406 251.707031 C 562.464844 252.800781 561.890625 253.839844 561.214844 254.824219 C 560.542969 255.8125 559.785156 256.726562 558.941406 257.570312 C 558.097656 258.414062 557.183594 259.175781 556.199219 259.847656 C 555.214844 260.519531 554.175781 261.097656 553.082031 261.578125 C 551.988281 262.054688 550.859375 262.429688 549.695312 262.699219 C 548.535156 262.964844 547.355469 263.125 546.164062 263.171875 C 545.265625 263.152344 544.375 263.066406 543.492188 262.914062 C 542.609375 262.765625 541.738281 262.550781 540.886719 262.273438 C 540.03125 261.996094 539.203125 261.65625 538.402344 261.257812 C 537.597656 260.859375 536.828125 260.402344 536.089844 259.890625 C 535.351562 259.378906 534.65625 258.816406 534.003906 258.203125 C 533.347656 257.589844 532.742188 256.929688 532.183594 256.230469 C 531.625 255.527344 531.121094 254.789062 530.671875 254.011719 C 530.21875 253.234375 529.828125 252.433594 529.496094 251.597656 C 529.164062 250.765625 528.894531 249.914062 528.683594 249.039062 C 528.476562 248.167969 528.332031 247.285156 528.253906 246.390625 C 528.175781 245.496094 528.164062 244.601562 528.214844 243.707031 C 528.265625 242.808594 528.382812 241.921875 528.566406 241.042969 C 528.746094 240.167969 528.992188 239.304688 529.300781 238.460938 C 529.609375 237.621094 529.976562 236.804688 530.402344 236.015625 C 530.828125 235.226562 531.3125 234.472656 531.847656 233.753906 C 532.386719 233.035156 532.972656 232.359375 533.609375 231.726562 Z M 533.609375 231.726562 " fill-opacity="1" fill-rule="nonzero"/><path fill="#EE807D" d="M 756.117188 563.8125 C 777.054688 485.683594 766.632812 416.949219 744.371094 322.257812 C 722.207031 226.75 659.542969 94.851562 535.5 119.964844 C 475.828125 128.894531 404.84375 160.566406 347.839844 144.300781 C 315.265625 136.082031 282.4375 129.257812 250.089844 122.242188 C 65.371094 81.855469 15.429688 330.886719 7.953125 480.601562 C 3.332031 580.820312 54.402344 663.851562 162.164062 605.695312 C 194.851562 587.324219 224.730469 565.164062 251.796875 539.210938 C 256.152344 534.910156 260.753906 530.890625 265.605469 527.15625 C 270.457031 523.425781 275.519531 520.003906 280.792969 516.894531 C 286.066406 513.789062 291.511719 511.015625 297.128906 508.582031 C 302.746094 506.148438 308.488281 504.070312 314.363281 502.347656 C 385.371094 484.492188 468.734375 486.5625 526.882812 542.089844 C 581.375 597.039062 712.800781 684.398438 756.117188 563.8125 Z M 653.898438 593.472656 C 571.964844 568.835938 529.167969 481.59375 446.167969 470.921875 C 370.816406 459.066406 292.449219 463.367188 233.398438 519.300781 C 208.023438 543.671875 180.019531 564.5 149.378906 581.792969 C -39.273438 678.488281 53.273438 294.164062 91.421875 234.457031 C 155.601562 110.410156 227.117188 144.410156 341.164062 170.578125 C 379.339844 182.003906 430.40625 173.453125 473.972656 161.308594 C 543.789062 142.296875 611.382812 127.203125 660.222656 196.222656 C 722 261.941406 807.902344 639.636719 653.898438 593.472656 Z M 653.898438 593.472656 " fill-opacity="1" fill-rule="nonzero"/></svg>