<svg xmlns="http://www.w3.org/2000/svg" xmlns:xlink="http://www.w3.org/1999/xlink" width="1024" zoomAndPan="magnify" viewBox="0 0 768 767.999994" height="1024" preserveAspectRatio="xMidYMid meet" version="1.0"><defs><clipPath id="c48bf1044e"><path d="M 243.070312 253 L 372 253 L 372 523 L 243.070312 523 Z M 243.070312 253 " clip-rule="nonzero"/></clipPath><clipPath id="7b32d3e8ee"><path d="M 396 268 L 525 268 L 525 537.898438 L 396 537.898438 Z M 396 268 " clip-rule="nonzero"/></clipPath><clipPath id="8762c968ff"><path d="M 386 230.398438 L 395 230.398438 L 395 268 L 386 268 Z M 386 230.398438 " clip-rule="nonzero"/></clipPath></defs><g clip-path="url(#c48bf1044e)"><path fill="#EE807D" d="M 349.25 356.488281 L 275.621094 356.488281 L 308.300781 258.910156 L 365.910156 274.308594 Z M 367.332031 269.160156 L 309.691406 253.71875 C 309.25 253.601562 308.792969 253.542969 308.335938 253.542969 C 306.023438 253.542969 303.984375 255.003906 303.257812 257.175781 L 265.738281 369.082031 C 265.070312 370.75 264.535156 372.34375 264.105469 373.949219 C 259.382812 391.578125 266.378906 410.273438 281.507812 420.464844 C 283.574219 421.855469 284.761719 424.550781 284.210938 426.605469 L 266.882812 491.277344 C 266.339844 493.300781 263.984375 494.988281 261.515625 495.117188 C 253.265625 495.546875 246.878906 498.546875 244 503.347656 C 243.265625 504.5625 243.148438 506.023438 243.683594 507.335938 C 244.253906 508.757812 245.507812 509.84375 247.035156 510.257812 L 293.324219 522.65625 C 293.761719 522.773438 294.207031 522.832031 294.65625 522.832031 C 295.980469 522.832031 297.25 522.3125 298.136719 521.410156 C 298.980469 520.546875 299.429688 519.410156 299.410156 518.195312 C 299.3125 512.601562 295.28125 506.804688 288.355469 502.304688 C 286.28125 500.957031 285.082031 498.324219 285.625 496.300781 L 302.949219 431.628906 C 303.5 429.578125 305.878906 427.835938 308.367188 427.660156 C 326.566406 426.398438 341.96875 413.703125 346.691406 396.082031 C 347.121094 394.496094 347.460938 392.796875 347.6875 391.203125 L 371.179688 275.371094 C 371.738281 272.617188 370.042969 269.886719 367.332031 269.160156 " fill-opacity="1" fill-rule="nonzero"/></g><g clip-path="url(#7b32d3e8ee)"><path fill="#EE807D" d="M 459.617188 273.648438 L 487.398438 356.488281 L 415.714844 356.488281 L 402.027344 289.125 Z M 523.972656 518.113281 C 521.085938 513.3125 514.699219 510.3125 506.449219 509.882812 C 503.984375 509.75 501.625 508.0625 501.085938 506.042969 L 483.753906 441.375 C 483.203125 439.316406 484.394531 436.625 486.460938 435.230469 C 501.589844 425.035156 508.585938 406.34375 503.859375 388.714844 C 503.433594 387.121094 502.886719 385.484375 502.285156 383.996094 L 464.714844 271.941406 C 463.988281 269.769531 461.945312 268.304688 459.632812 268.304688 C 459.175781 268.304688 458.71875 268.363281 458.277344 268.484375 L 400.644531 283.929688 C 397.921875 284.652344 396.230469 287.378906 396.792969 290.136719 L 420.253906 405.8125 C 420.503906 407.5625 420.851562 409.257812 421.277344 410.839844 C 426 428.46875 441.398438 441.160156 459.601562 442.429688 C 462.089844 442.601562 464.464844 444.339844 465.015625 446.394531 L 482.347656 511.070312 C 482.886719 513.089844 481.691406 515.722656 479.617188 517.074219 C 472.6875 521.566406 468.652344 527.363281 468.558594 532.960938 C 468.539062 534.171875 468.988281 535.3125 469.832031 536.175781 C 470.71875 537.078125 471.988281 537.59375 473.308594 537.59375 C 473.761719 537.59375 474.207031 537.535156 474.640625 537.421875 L 520.933594 525.019531 C 522.464844 524.609375 523.714844 523.519531 524.285156 522.101562 C 524.820312 520.785156 524.703125 519.328125 523.972656 518.113281 " fill-opacity="1" fill-rule="nonzero"/></g><path fill="#EE807D" d="M 365.597656 244.339844 L 380.679688 269.589844 L 371.660156 241.59375 L 365.597656 244.339844 " fill-opacity="1" fill-rule="nonzero"/><g clip-path="url(#8762c968ff)"><path fill="#EE807D" d="M 386.105469 230.402344 L 386.667969 267.917969 L 394.558594 231.234375 L 386.105469 230.402344 " fill-opacity="1" fill-rule="nonzero"/></g><path fill="#EE807D" d="M 408.050781 241.910156 L 392.6875 269.464844 L 413.855469 246.070312 L 408.050781 241.910156 " fill-opacity="1" fill-rule="nonzero"/><path fill="#EE807D" d="M 421.957031 265.8125 L 419.519531 260.433594 L 397.128906 273.804688 L 421.957031 265.8125 " fill-opacity="1" fill-rule="nonzero"/></svg>