<svg xmlns="http://www.w3.org/2000/svg" xmlns:xlink="http://www.w3.org/1999/xlink" width="1024" zoomAndPan="magnify" viewBox="0 0 768 767.999994" height="1024" preserveAspectRatio="xMidYMid meet" version="1.0"><defs><clipPath id="b9e065f4c6"><path d="M 37.015625 62 L 353 62 L 353 726 L 37.015625 726 Z M 37.015625 62 " clip-rule="nonzero"/></clipPath><clipPath id="9a7392f916"><path d="M 415 99 L 730.765625 99 L 730.765625 761.816406 L 415 761.816406 Z M 415 99 " clip-rule="nonzero"/></clipPath><clipPath id="9bcc97258e"><path d="M 389 5.816406 L 411 5.816406 L 411 99 L 389 99 Z M 389 5.816406 " clip-rule="nonzero"/></clipPath></defs><g clip-path="url(#b9e065f4c6)"><path fill="#EE807D" d="M 298.445312 316.265625 L 117.15625 316.265625 L 197.625 76.015625 L 339.46875 113.921875 Z M 342.964844 101.253906 L 201.046875 63.234375 C 199.960938 62.941406 198.839844 62.796875 197.707031 62.796875 C 192.019531 62.796875 186.992188 66.398438 185.203125 71.746094 L 92.828125 347.273438 C 91.1875 351.378906 89.871094 355.300781 88.8125 359.257812 C 77.183594 402.667969 94.402344 448.691406 131.660156 473.785156 C 136.746094 477.214844 139.671875 483.851562 138.3125 488.90625 L 95.648438 648.136719 C 94.3125 653.117188 88.507812 657.273438 82.433594 657.597656 C 62.113281 658.652344 46.390625 666.039062 39.304688 677.855469 C 37.496094 680.851562 37.210938 684.441406 38.523438 687.679688 C 39.929688 691.175781 43.015625 693.851562 46.78125 694.867188 L 160.753906 725.398438 C 161.828125 725.683594 162.925781 725.828125 164.03125 725.828125 C 167.285156 725.828125 170.414062 724.554688 172.597656 722.324219 C 174.671875 720.207031 175.785156 717.402344 175.734375 714.417969 C 175.492188 700.636719 165.566406 686.367188 148.515625 675.292969 C 143.40625 671.972656 140.457031 665.484375 141.789062 660.503906 L 184.453125 501.273438 C 185.804688 496.226562 191.664062 491.933594 197.785156 491.5 C 242.59375 488.398438 280.519531 457.140625 292.152344 413.75 C 293.203125 409.84375 294.046875 405.667969 294.601562 401.738281 L 352.4375 116.542969 C 353.816406 109.761719 349.648438 103.042969 342.964844 101.253906 " fill-opacity="1" fill-rule="nonzero"/></g><g clip-path="url(#9a7392f916)"><path fill="#EE807D" d="M 570.191406 112.300781 L 638.589844 316.269531 L 462.09375 316.269531 L 428.398438 150.402344 Z M 728.640625 714.207031 C 721.535156 702.390625 705.816406 695 685.5 693.949219 C 679.429688 693.621094 673.621094 689.46875 672.289062 684.492188 L 629.617188 525.269531 C 628.265625 520.203125 631.195312 513.574219 636.285156 510.136719 C 673.535156 485.039062 690.757812 439.011719 679.125 395.617188 C 678.074219 391.6875 676.726562 387.65625 675.246094 383.992188 L 582.738281 108.101562 C 580.949219 102.75 575.917969 99.148438 570.226562 99.148438 C 569.101562 99.148438 567.976562 99.292969 566.886719 99.589844 L 424.988281 137.613281 C 418.289062 139.394531 414.117188 146.113281 415.503906 152.902344 L 473.269531 437.714844 C 473.890625 442.019531 474.738281 446.191406 475.792969 450.089844 C 487.414062 493.488281 525.335938 524.738281 570.148438 527.863281 C 576.273438 528.285156 582.128906 532.570312 583.476562 537.625 L 626.15625 696.867188 C 627.484375 701.84375 624.535156 708.332031 619.433594 711.652344 C 602.371094 722.714844 592.441406 736.992188 592.199219 750.769531 C 592.152344 753.753906 593.265625 756.558594 595.339844 758.6875 C 597.527344 760.90625 600.652344 762.179688 603.898438 762.179688 C 605.015625 762.179688 606.117188 762.035156 607.179688 761.75 L 721.164062 731.214844 C 724.925781 730.203125 728.007812 727.519531 729.414062 724.027344 C 730.726562 720.792969 730.445312 717.203125 728.640625 714.207031 " fill-opacity="1" fill-rule="nonzero"/></g><path fill="#EE807D" d="M 338.695312 40.144531 L 375.832031 102.304688 L 353.628906 33.375 L 338.695312 40.144531 " fill-opacity="1" fill-rule="nonzero"/><g clip-path="url(#9bcc97258e)"><path fill="#EE807D" d="M 389.195312 5.820312 L 390.574219 98.1875 L 410.007812 7.867188 L 389.195312 5.820312 " fill-opacity="1" fill-rule="nonzero"/></g><path fill="#EE807D" d="M 443.226562 34.152344 L 405.398438 102 L 457.515625 44.402344 L 443.226562 34.152344 " fill-opacity="1" fill-rule="nonzero"/><path fill="#EE807D" d="M 477.460938 93.011719 L 471.464844 79.765625 L 416.335938 112.6875 L 477.460938 93.011719 " fill-opacity="1" fill-rule="nonzero"/></svg>