<svg xmlns="http://www.w3.org/2000/svg" xmlns:xlink="http://www.w3.org/1999/xlink" width="1024" zoomAndPan="magnify" viewBox="0 0 768 767.999994" height="1024" preserveAspectRatio="xMidYMid meet" version="1.0"><defs><clipPath id="c5881120b1"><path d="M 54.03125 61.457031 L 714 61.457031 L 714 706.457031 L 54.03125 706.457031 Z M 54.03125 61.457031 " clip-rule="nonzero"/></clipPath></defs><rect x="-76.8" width="921.6" fill="#ffffff" y="-76.799999" height="921.599993" fill-opacity="1"/><rect x="-76.8" width="921.6" fill="#000000" y="-76.799999" height="921.599993" fill-opacity="1"/><g clip-path="url(#c5881120b1)"><path fill="#ffffff" d="M 376.929688 508.808594 C 307.953125 508.808594 252.039062 452.894531 252.039062 383.917969 C 252.039062 314.941406 307.953125 259.027344 376.929688 259.027344 L 376.929688 61.402344 C 198.804688 61.402344 54.402344 205.804688 54.402344 383.929688 C 54.402344 562.058594 198.804688 706.472656 376.929688 706.472656 C 555.054688 706.472656 699.472656 562.058594 699.472656 383.929688 L 501.820312 383.929688 C 501.820312 452.894531 445.90625 508.808594 376.929688 508.808594 Z M 183.023438 587.039062 C 180.886719 589.109375 178.132812 590.140625 175.375 590.140625 C 172.503906 590.140625 169.640625 589.019531 167.492188 586.804688 C 114.519531 532.117188 85.34375 460.066406 85.34375 383.929688 C 85.34375 318.75 106.371094 257.117188 146.148438 205.6875 C 149.867188 200.886719 156.761719 200.003906 161.558594 203.722656 C 166.359375 207.441406 167.242188 214.335938 163.523438 219.132812 C 126.753906 266.675781 107.320312 323.65625 107.320312 383.929688 C 107.320312 454.332031 134.296875 520.949219 183.273438 571.511719 C 187.492188 575.859375 187.375 582.820312 183.023438 587.039062 Z M 210.550781 529.679688 C 208.535156 531.273438 206.121094 532.050781 203.734375 532.050781 C 200.492188 532.050781 197.289062 530.628906 195.125 527.886719 C 162.351562 486.566406 145.027344 436.785156 145.027344 383.929688 C 145.027344 345.199219 154.769531 306.847656 173.203125 273.042969 C 176.101562 267.714844 182.773438 265.753906 188.097656 268.652344 C 193.425781 271.554688 195.390625 278.222656 192.488281 283.550781 C 175.8125 314.148438 166.992188 348.847656 166.992188 383.929688 C 166.992188 431.773438 182.667969 476.851562 212.332031 514.253906 C 216.101562 519 215.308594 525.90625 210.550781 529.679688 Z M 230.945312 463.3125 C 229.457031 463.996094 227.886719 464.324219 226.34375 464.324219 C 222.191406 464.324219 218.222656 461.964844 216.363281 457.945312 C 205.621094 434.664062 200.164062 409.757812 200.164062 383.929688 C 200.164062 363.378906 203.667969 343.21875 210.5625 324.050781 C 212.621094 318.34375 218.910156 315.375 224.617188 317.433594 C 230.328125 319.488281 233.292969 325.777344 231.238281 331.484375 C 225.199219 348.269531 222.125 365.910156 222.125 383.929688 C 222.125 406.554688 226.898438 428.359375 236.300781 448.730469 C 238.855469 454.242188 236.445312 460.765625 230.945312 463.3125 Z M 363.207031 383.929688 C 363.207031 376.351562 369.347656 370.207031 376.929688 370.207031 L 376.929688 278.328125 C 318.605469 278.328125 271.328125 325.605469 271.328125 383.929688 C 271.328125 442.257812 318.605469 489.535156 376.929688 489.535156 C 435.253906 489.535156 482.53125 442.257812 482.53125 383.929688 L 390.65625 383.929688 C 390.65625 391.511719 384.511719 397.65625 376.929688 397.65625 C 369.347656 397.65625 363.207031 391.511719 363.207031 383.929688 Z M 533.277344 347.675781 C 543.824219 332.6875 548.976562 310.300781 548.742188 280.542969 L 548.042969 139.242188 C 547.804688 115.8125 542.292969 98.121094 531.523438 86.164062 C 520.738281 74.21875 504.574219 68.234375 483.019531 68.234375 L 399.710938 68.234375 L 399.710938 370.152344 L 480.910156 370.152344 C 505.273438 370.167969 522.742188 362.679688 533.277344 347.675781 Z M 460.527344 316.746094 L 460.527344 120.96875 L 467.210938 120.96875 C 473.066406 120.96875 477.402344 121.5625 480.210938 122.722656 C 483.019531 123.894531 484.957031 126.175781 486.011719 129.578125 C 487.066406 132.976562 487.59375 138.066406 487.59375 144.871094 L 487.59375 300.582031 C 487.59375 311.367188 482.085938 316.746094 471.074219 316.746094 Z M 652.789062 68.246094 L 652.789062 300.582031 C 652.789062 305.976562 651.667969 310.128906 649.453125 313.054688 C 647.222656 315.980469 643.886719 317.445312 639.433594 317.445312 C 634.738281 317.445312 631.285156 315.863281 629.070312 312.699219 C 626.84375 309.535156 625.734375 305.265625 625.734375 299.871094 L 625.734375 227.820312 L 566.328125 227.820312 L 566.328125 303.390625 C 566.328125 318.15625 569.546875 330.746094 575.992188 341.175781 C 582.4375 351.605469 591.285156 359.515625 602.53125 364.90625 C 613.777344 370.300781 626.316406 372.988281 640.144531 372.988281 C 654.433594 372.988281 667.144531 369.773438 678.285156 363.324219 C 689.410156 356.878906 698.085938 347.742188 704.296875 335.917969 C 710.507812 324.089844 713.617188 310.3125 713.617188 294.609375 L 713.617188 68.246094 Z M 652.789062 68.246094 " fill-opacity="1" fill-rule="nonzero"/></g></svg>