<svg xmlns="http://www.w3.org/2000/svg" xmlns:xlink="http://www.w3.org/1999/xlink" width="1024" zoomAndPan="magnify" viewBox="0 0 768 767.999994" height="1024" preserveAspectRatio="xMidYMid meet" version="1.0"><defs><clipPath id="036f24a4e7"><path d="M 230.398438 233.855469 L 537.898438 233.855469 L 537.898438 533.855469 L 230.398438 533.855469 Z M 230.398438 233.855469 " clip-rule="nonzero"/></clipPath></defs><g clip-path="url(#036f24a4e7)"><path fill="#EE807D" d="M 380.707031 442.09375 C 348.601562 442.09375 322.574219 416.070312 322.574219 383.960938 C 322.574219 351.851562 348.601562 325.824219 380.707031 325.824219 L 380.707031 233.832031 C 297.792969 233.832031 230.574219 301.050781 230.574219 383.964844 C 230.574219 466.882812 297.792969 534.105469 380.707031 534.105469 C 463.625 534.105469 530.847656 466.882812 530.847656 383.964844 L 438.84375 383.964844 C 438.84375 416.070312 412.816406 442.09375 380.707031 442.09375 Z M 290.445312 478.511719 C 289.453125 479.476562 288.167969 479.953125 286.886719 479.953125 C 285.546875 479.953125 284.21875 479.433594 283.214844 478.402344 C 258.558594 452.945312 244.976562 419.40625 244.976562 383.964844 C 244.976562 353.625 254.765625 324.933594 273.28125 300.996094 C 275.011719 298.761719 278.222656 298.347656 280.453125 300.078125 C 282.6875 301.808594 283.101562 305.019531 281.371094 307.253906 C 264.253906 329.382812 255.207031 355.90625 255.207031 383.964844 C 255.207031 416.738281 267.765625 447.746094 290.5625 471.28125 C 292.527344 473.308594 292.472656 476.546875 290.445312 478.511719 Z M 303.261719 451.808594 C 302.320312 452.550781 301.199219 452.914062 300.085938 452.914062 C 298.578125 452.914062 297.085938 452.25 296.078125 450.976562 C 280.824219 431.742188 272.757812 408.570312 272.757812 383.964844 C 272.757812 365.9375 277.292969 348.082031 285.875 332.347656 C 287.222656 329.867188 290.328125 328.953125 292.808594 330.304688 C 295.289062 331.65625 296.203125 334.761719 294.851562 337.238281 C 287.089844 351.484375 282.984375 367.636719 282.984375 383.964844 C 282.984375 406.238281 290.28125 427.21875 304.089844 444.628906 C 305.84375 446.839844 305.476562 450.054688 303.261719 451.808594 Z M 312.753906 420.917969 C 312.058594 421.234375 311.328125 421.390625 310.613281 421.390625 C 308.679688 421.390625 306.832031 420.289062 305.964844 418.417969 C 300.964844 407.582031 298.425781 395.988281 298.425781 383.964844 C 298.425781 374.398438 300.054688 365.015625 303.265625 356.09375 C 304.222656 353.433594 307.152344 352.054688 309.808594 353.011719 C 312.464844 353.96875 313.847656 356.894531 312.890625 359.554688 C 310.078125 367.367188 308.648438 375.578125 308.648438 383.964844 C 308.648438 394.496094 310.871094 404.648438 315.246094 414.128906 C 316.4375 416.695312 315.3125 419.730469 312.753906 420.917969 Z M 374.320312 383.964844 C 374.320312 380.4375 377.179688 377.578125 380.707031 377.578125 L 380.707031 334.808594 C 353.558594 334.808594 331.550781 356.816406 331.550781 383.964844 C 331.550781 411.117188 353.558594 433.121094 380.707031 433.121094 C 407.859375 433.121094 429.867188 411.117188 429.867188 383.964844 L 387.097656 383.964844 C 387.097656 387.496094 384.238281 390.355469 380.707031 390.355469 C 377.179688 390.355469 374.320312 387.496094 374.320312 383.964844 Z M 453.488281 367.089844 C 458.394531 360.113281 460.796875 349.691406 460.683594 335.839844 L 460.359375 270.0625 C 460.25 259.160156 457.683594 250.921875 452.671875 245.355469 C 447.648438 239.796875 440.125 237.011719 430.09375 237.011719 L 391.3125 237.011719 L 391.3125 377.554688 L 429.109375 377.554688 C 440.453125 377.558594 448.582031 374.074219 453.488281 367.089844 Z M 419.621094 352.691406 L 419.621094 261.558594 L 422.734375 261.558594 C 425.457031 261.558594 427.476562 261.835938 428.785156 262.375 C 430.09375 262.921875 430.996094 263.980469 431.484375 265.566406 C 431.976562 267.148438 432.222656 269.519531 432.222656 272.683594 L 432.222656 345.167969 C 432.222656 350.1875 429.65625 352.691406 424.53125 352.691406 Z M 509.117188 237.015625 L 509.117188 345.167969 C 509.117188 347.679688 508.597656 349.609375 507.566406 350.972656 C 506.527344 352.335938 504.976562 353.015625 502.902344 353.015625 C 500.714844 353.015625 499.109375 352.28125 498.078125 350.808594 C 497.039062 349.335938 496.523438 347.347656 496.523438 344.835938 L 496.523438 311.296875 L 468.871094 311.296875 L 468.871094 346.476562 C 468.871094 353.347656 470.371094 359.210938 473.371094 364.0625 C 476.371094 368.917969 480.488281 372.601562 485.722656 375.109375 C 490.957031 377.621094 496.792969 378.871094 503.234375 378.871094 C 509.886719 378.871094 515.800781 377.375 520.988281 374.375 C 526.167969 371.371094 530.203125 367.121094 533.09375 361.613281 C 535.984375 356.109375 537.433594 349.695312 537.433594 342.386719 L 537.433594 237.015625 Z M 509.117188 237.015625 " fill-opacity="1" fill-rule="nonzero"/></g></svg>