<svg xmlns="http://www.w3.org/2000/svg" xmlns:xlink="http://www.w3.org/1999/xlink" width="1024" zoomAndPan="magnify" viewBox="0 0 768 767.999994" height="1024" preserveAspectRatio="xMidYMid meet" version="1.0"><defs><clipPath id="4e9d88a5c7"><path d="M 11 19.363281 L 757 19.363281 L 757 748.363281 L 11 748.363281 Z M 11 19.363281 " clip-rule="nonzero"/></clipPath></defs><g clip-path="url(#4e9d88a5c7)"><path fill="#EE807D" d="M 376.011719 525.09375 C 298.03125 525.09375 234.820312 461.886719 234.820312 383.90625 C 234.820312 305.925781 298.03125 242.71875 376.011719 242.71875 L 376.011719 19.300781 C 174.636719 19.300781 11.390625 182.550781 11.390625 383.921875 C 11.390625 585.292969 174.636719 748.554688 376.011719 748.554688 C 577.382812 748.554688 740.644531 585.292969 740.644531 383.921875 L 517.199219 383.921875 C 517.199219 461.886719 453.992188 525.09375 376.011719 525.09375 Z M 156.796875 613.539062 C 154.382812 615.878906 151.269531 617.039062 148.152344 617.039062 C 144.902344 617.039062 141.667969 615.773438 139.242188 613.269531 C 79.355469 551.445312 46.371094 469.996094 46.371094 383.921875 C 46.371094 310.234375 70.144531 240.558594 115.109375 182.414062 C 119.3125 176.988281 127.109375 175.992188 132.535156 180.195312 C 137.957031 184.398438 138.957031 192.191406 134.753906 197.617188 C 93.1875 251.363281 71.21875 315.777344 71.21875 383.921875 C 71.21875 463.511719 101.710938 538.824219 157.082031 595.980469 C 161.851562 600.898438 161.714844 608.769531 156.796875 613.539062 Z M 187.917969 548.6875 C 185.636719 550.492188 182.910156 551.371094 180.210938 551.371094 C 176.546875 551.371094 172.925781 549.761719 170.480469 546.664062 C 133.429688 499.953125 113.84375 443.671875 113.84375 383.921875 C 113.84375 340.132812 124.859375 296.777344 145.695312 258.5625 C 148.972656 252.539062 156.515625 250.320312 162.535156 253.597656 C 168.558594 256.878906 170.777344 264.417969 167.5 270.441406 C 148.644531 305.03125 138.675781 344.261719 138.675781 383.921875 C 138.675781 438.007812 156.394531 488.96875 189.929688 531.25 C 194.191406 536.617188 193.296875 544.425781 187.917969 548.6875 Z M 210.976562 473.660156 C 209.289062 474.4375 207.515625 474.808594 205.773438 474.808594 C 201.078125 474.808594 196.59375 472.140625 194.492188 467.59375 C 182.34375 441.273438 176.171875 413.121094 176.171875 383.921875 C 176.171875 360.6875 180.136719 337.898438 187.933594 316.226562 C 190.257812 309.773438 197.367188 306.417969 203.820312 308.746094 C 210.273438 311.070312 213.628906 318.179688 211.304688 324.632812 C 204.476562 343.605469 201.003906 363.546875 201.003906 383.921875 C 201.003906 409.496094 206.398438 434.148438 217.027344 457.175781 C 219.917969 463.40625 217.191406 470.785156 210.976562 473.660156 Z M 360.496094 383.921875 C 360.496094 375.351562 367.441406 368.40625 376.011719 368.40625 L 376.011719 264.539062 C 310.074219 264.539062 256.628906 317.984375 256.628906 383.921875 C 256.628906 449.859375 310.074219 503.304688 376.011719 503.304688 C 441.949219 503.304688 495.394531 449.859375 495.394531 383.921875 L 391.527344 383.921875 C 391.527344 392.492188 384.582031 399.4375 376.011719 399.4375 C 367.441406 399.4375 360.496094 392.492188 360.496094 383.921875 Z M 552.761719 342.933594 C 564.683594 325.988281 570.511719 300.679688 570.246094 267.042969 L 569.453125 107.296875 C 569.1875 80.8125 562.957031 60.808594 550.777344 47.292969 C 538.585938 33.789062 520.316406 27.023438 495.945312 27.023438 L 401.765625 27.023438 L 401.765625 368.347656 L 493.5625 368.347656 C 521.105469 368.363281 540.851562 359.894531 552.761719 342.933594 Z M 470.519531 307.96875 L 470.519531 86.640625 L 478.074219 86.640625 C 484.695312 86.640625 489.597656 87.308594 492.773438 88.621094 C 495.945312 89.949219 498.136719 92.527344 499.328125 96.371094 C 500.523438 100.21875 501.117188 105.96875 501.117188 113.660156 L 501.117188 289.695312 C 501.117188 301.886719 494.886719 307.96875 482.441406 307.96875 Z M 687.871094 27.039062 L 687.871094 289.695312 C 687.871094 295.792969 686.601562 300.488281 684.097656 303.796875 C 681.578125 307.105469 677.808594 308.757812 672.769531 308.757812 C 667.464844 308.757812 663.558594 306.96875 661.054688 303.394531 C 658.539062 299.816406 657.285156 294.988281 657.285156 288.890625 L 657.285156 207.4375 L 590.125 207.4375 L 590.125 292.871094 C 590.125 309.5625 593.761719 323.796875 601.050781 335.585938 C 608.339844 347.375 618.339844 356.320312 631.054688 362.414062 C 643.765625 368.511719 657.941406 371.550781 673.574219 371.550781 C 689.734375 371.550781 704.101562 367.914062 716.695312 360.625 C 729.273438 353.339844 739.082031 343.007812 746.101562 329.640625 C 753.121094 316.269531 756.636719 300.695312 756.636719 282.945312 L 756.636719 27.039062 Z M 687.871094 27.039062 " fill-opacity="1" fill-rule="nonzero"/></g></svg>