<svg xmlns="http://www.w3.org/2000/svg" xmlns:xlink="http://www.w3.org/1999/xlink" width="1024" zoomAndPan="magnify" viewBox="0 0 768 767.999994" height="1024" preserveAspectRatio="xMidYMid meet" version="1.0"><defs><clipPath id="f4d3bbf8b2"><path d="M 6 50.398438 L 767 50.398438 L 767 717.898438 L 6 717.898438 Z M 6 50.398438 " clip-rule="nonzero"/></clipPath></defs><g clip-path="url(#f4d3bbf8b2)"><path fill="#EE807D" d="M 760.539062 126.304688 C 753.777344 119.542969 743.375 118.855469 735.785156 124.671875 C 670.734375 174.59375 608.699219 226.125 555.308594 272.25 C 535.125 215.308594 499.570312 164.515625 451.265625 125.554688 C 390.359375 76.421875 314.660156 50.449219 232.328125 50.449219 C 171.746094 50.449219 117.925781 66.875 76.683594 97.949219 C 41.839844 124.195312 17.320312 160.464844 9.378906 197.429688 C 0.0117188 241.097656 14.804688 277.496094 47.992188 292.429688 C 103.132812 317.25 111.046875 353.816406 110.855469 373.402344 C 110.789062 380.433594 110.789062 387.558594 110.855469 394.59375 C 111.046875 414.179688 103.132812 450.746094 47.992188 475.5625 C 14.804688 490.5 0.0117188 526.898438 9.378906 570.5625 C 17.320312 607.546875 41.839844 643.800781 76.683594 670.042969 C 117.925781 701.121094 171.746094 717.542969 232.328125 717.542969 C 314.660156 717.542969 390.359375 691.574219 451.265625 642.441406 C 529.542969 579.292969 574.4375 485.097656 574.4375 383.996094 C 574.4375 381.847656 574.386719 379.695312 574.347656 377.558594 C 629.347656 315.476562 697.121094 235.839844 762.171875 151.058594 C 767.988281 143.480469 767.300781 133.066406 760.539062 126.304688 Z M 439.0625 627.324219 C 381.65625 673.632812 310.167969 698.113281 232.328125 698.113281 C 175.996094 698.113281 126.214844 683.035156 88.367188 654.527344 C 57.214844 631.054688 35.347656 598.957031 28.378906 566.484375 C 21.035156 532.300781 31.605469 504.242188 55.957031 493.285156 C 84.648438 480.382812 105.464844 462.871094 117.835938 441.265625 C 128.328125 422.933594 130.402344 405.667969 130.285156 394.410156 C 130.21875 387.496094 130.21875 380.5 130.285156 373.582031 C 130.402344 362.328125 128.328125 345.058594 117.835938 326.730469 C 105.464844 305.125 84.648438 287.613281 55.957031 274.710938 C 31.605469 263.753906 21.035156 235.695312 28.378906 201.511719 C 35.347656 169.039062 57.214844 136.941406 88.367188 113.46875 C 126.214844 84.957031 175.996094 69.878906 232.328125 69.878906 C 310.167969 69.878906 381.65625 94.363281 439.0625 140.671875 C 486.5625 178.984375 520.980469 229.464844 539.453125 285.992188 C 448.480469 365.28125 386.125 425.578125 383.25 428.363281 C 383.210938 428.402344 383.183594 428.425781 383.15625 428.453125 C 383.144531 428.464844 383.132812 428.480469 383.117188 428.492188 C 383.09375 428.519531 383.082031 428.53125 383.054688 428.542969 L 360.902344 450.695312 C 354.945312 451.613281 342.976562 454.257812 330.152344 461.679688 C 313.804688 471.148438 292.730469 490.460938 285.242188 528.699219 C 275.527344 578.246094 268.351562 596.585938 251.863281 614.023438 C 245.257812 621.003906 243.585938 631.132812 247.628906 639.835938 C 251.449219 648.089844 259.597656 653.246094 268.613281 653.246094 C 269.050781 653.246094 269.492188 653.230469 269.933594 653.207031 C 294.699219 651.832031 331.074219 646.222656 363.742188 627.261719 C 401.253906 605.5 425.476562 571.535156 435.773438 526.316406 L 458.351562 503.738281 C 458.429688 503.660156 458.507812 503.582031 458.570312 503.503906 C 460.644531 501.378906 478.84375 482.535156 507.394531 451.601562 C 508.078125 450.863281 508.765625 450.125 509.453125 449.371094 C 516.5625 441.664062 524.285156 433.234375 532.535156 424.152344 C 533.90625 422.636719 535.308594 421.109375 536.707031 419.554688 C 542.445312 413.234375 548.414062 406.601562 554.59375 399.710938 C 550.214844 488.90625 508.675781 571.160156 439.0625 627.324219 Z M 379.15625 459.929688 L 389.917969 449.152344 L 437.691406 496.925781 L 426.914062 507.703125 Z M 416.242188 524.5 C 406.863281 563.011719 385.957031 591.910156 354 610.460938 C 324.648438 627.480469 291.5 632.558594 268.859375 633.816406 C 266.644531 633.929688 265.644531 632.519531 265.257812 631.664062 C 264.84375 630.785156 264.390625 629.046875 265.96875 627.375 C 287.265625 604.878906 295.011719 579.902344 304.3125 532.441406 C 313.960938 483.15625 349.648438 472.441406 361.941406 470.203125 Z M 572.703125 350.046875 C 566.550781 357.042969 560.539062 363.84375 554.683594 370.4375 C 504.828125 426.535156 466.292969 467.339844 451.292969 483.039062 L 403.804688 435.566406 C 422.109375 418.078125 474.464844 368.648438 545.421875 306.574219 C 550.761719 301.914062 556.199219 297.171875 561.746094 292.367188 C 615.253906 245.980469 677.9375 193.714844 743.894531 142.964844 C 685.035156 219.453125 624.113281 291.5625 572.703125 350.046875 Z M 572.703125 350.046875 " fill-opacity="1" fill-rule="nonzero"/></g><path fill="#EE807D" d="M 205.800781 203.726562 C 205.800781 170.023438 178.390625 142.613281 144.6875 142.613281 C 110.984375 142.613281 83.574219 170.023438 83.574219 203.726562 C 83.574219 237.429688 110.984375 264.839844 144.6875 264.839844 C 178.390625 264.839844 205.800781 237.429688 205.800781 203.726562 Z M 103.015625 203.726562 C 103.015625 180.746094 121.722656 162.042969 144.699219 162.042969 C 167.679688 162.042969 186.382812 180.746094 186.382812 203.726562 C 186.382812 226.707031 167.679688 245.410156 144.699219 245.410156 C 121.722656 245.410156 103.015625 226.71875 103.015625 203.726562 Z M 103.015625 203.726562 " fill-opacity="1" fill-rule="nonzero"/><path fill="#EE807D" d="M 302.058594 240.308594 C 331.605469 240.308594 355.644531 216.265625 355.644531 186.71875 C 355.644531 157.171875 331.605469 133.132812 302.058594 133.132812 C 272.511719 133.132812 248.46875 157.171875 248.46875 186.71875 C 248.46875 216.265625 272.511719 240.308594 302.058594 240.308594 Z M 302.058594 152.5625 C 320.890625 152.5625 336.214844 167.886719 336.214844 186.71875 C 336.214844 205.554688 320.890625 220.878906 302.058594 220.878906 C 283.222656 220.878906 267.898438 205.554688 267.898438 186.71875 C 267.898438 167.886719 283.222656 152.5625 302.058594 152.5625 Z M 302.058594 152.5625 " fill-opacity="1" fill-rule="nonzero"/><path fill="#EE807D" d="M 431.980469 303.882812 C 457.132812 303.882812 477.613281 283.414062 477.613281 258.246094 C 477.613281 233.078125 457.148438 212.613281 431.980469 212.613281 C 406.824219 212.613281 386.34375 233.078125 386.34375 258.246094 C 386.34375 283.414062 406.824219 303.882812 431.980469 303.882812 Z M 431.980469 232.054688 C 446.421875 232.054688 458.183594 243.804688 458.183594 258.261719 C 458.183594 272.714844 446.433594 284.464844 431.980469 284.464844 C 417.523438 284.464844 405.773438 272.714844 405.773438 258.261719 C 405.773438 243.804688 417.535156 232.054688 431.980469 232.054688 Z M 431.980469 232.054688 " fill-opacity="1" fill-rule="nonzero"/><path fill="#EE807D" d="M 161.851562 498.140625 C 132.304688 498.140625 108.261719 522.183594 108.261719 551.730469 C 108.261719 581.277344 132.304688 605.316406 161.851562 605.316406 C 191.398438 605.316406 215.4375 581.277344 215.4375 551.730469 C 215.4375 522.183594 191.398438 498.140625 161.851562 498.140625 Z M 161.851562 585.886719 C 143.015625 585.886719 127.695312 570.5625 127.695312 551.730469 C 127.695312 532.894531 143.015625 517.570312 161.851562 517.570312 C 180.683594 517.570312 196.007812 532.894531 196.007812 551.730469 C 196.007812 570.5625 180.683594 585.886719 161.851562 585.886719 Z M 161.851562 585.886719 " fill-opacity="1" fill-rule="nonzero"/></svg>