<svg xmlns="http://www.w3.org/2000/svg" xmlns:xlink="http://www.w3.org/1999/xlink" width="1024" zoomAndPan="magnify" viewBox="0 0 768 767.999994" height="1024" preserveAspectRatio="xMidYMid meet" version="1.0"><defs><clipPath id="3b0c833ec9"><path d="M 179 202.859375 L 592 202.859375 L 592 565.109375 L 179 565.109375 Z M 179 202.859375 " clip-rule="nonzero"/></clipPath></defs><g clip-path="url(#3b0c833ec9)"><path fill="#EE807D" d="M 588.441406 244.078125 C 584.773438 240.40625 579.125 240.035156 575.003906 243.191406 C 539.683594 270.296875 506 298.277344 477.007812 323.320312 C 466.050781 292.402344 446.746094 264.828125 420.519531 243.671875 C 387.449219 216.992188 346.34375 202.890625 301.640625 202.890625 C 268.746094 202.890625 239.523438 211.808594 217.132812 228.683594 C 198.210938 242.933594 184.898438 262.625 180.585938 282.699219 C 175.5 306.40625 183.535156 326.171875 201.550781 334.28125 C 231.492188 347.753906 235.789062 367.609375 235.683594 378.246094 C 235.648438 382.0625 235.648438 385.929688 235.683594 389.75 C 235.789062 400.386719 231.492188 420.238281 201.550781 433.714844 C 183.535156 441.824219 175.5 461.589844 180.585938 485.296875 C 184.898438 505.375 198.210938 525.0625 217.132812 539.3125 C 239.523438 556.183594 268.746094 565.101562 301.640625 565.101562 C 346.34375 565.101562 387.449219 551 420.519531 524.324219 C 463.019531 490.039062 487.398438 438.890625 487.398438 383.996094 C 487.398438 382.828125 487.367188 381.664062 487.347656 380.5 C 517.210938 346.792969 554.007812 303.550781 589.328125 257.519531 C 592.488281 253.40625 592.113281 247.75 588.441406 244.078125 Z M 413.894531 516.117188 C 382.722656 541.261719 343.90625 554.554688 301.640625 554.554688 C 271.054688 554.554688 244.027344 546.367188 223.476562 530.886719 C 206.558594 518.140625 194.6875 500.714844 190.902344 483.082031 C 186.917969 464.519531 192.65625 449.285156 205.878906 443.335938 C 221.457031 436.332031 232.757812 426.824219 239.476562 415.089844 C 245.171875 405.140625 246.296875 395.765625 246.234375 389.652344 C 246.199219 385.894531 246.199219 382.097656 246.234375 378.34375 C 246.296875 372.230469 245.171875 362.855469 239.476562 352.902344 C 232.757812 341.171875 221.457031 331.664062 205.878906 324.65625 C 192.65625 318.707031 186.917969 303.472656 190.902344 284.914062 C 194.6875 267.28125 206.558594 249.851562 223.476562 237.109375 C 244.027344 221.628906 271.054688 213.441406 301.640625 213.441406 C 343.90625 213.441406 382.722656 226.734375 413.894531 251.878906 C 439.683594 272.683594 458.371094 300.089844 468.398438 330.785156 C 419.003906 373.835938 385.148438 406.574219 383.585938 408.085938 C 383.566406 408.105469 383.550781 408.121094 383.539062 408.136719 C 383.53125 408.140625 383.523438 408.148438 383.515625 408.15625 C 383.503906 408.171875 383.496094 408.175781 383.480469 408.183594 L 371.453125 420.210938 C 368.21875 420.710938 361.71875 422.144531 354.757812 426.175781 C 345.882812 431.316406 334.4375 441.804688 330.375 462.566406 C 325.097656 489.46875 321.203125 499.425781 312.25 508.894531 C 308.660156 512.683594 307.753906 518.183594 309.949219 522.910156 C 312.023438 527.390625 316.449219 530.191406 321.34375 530.191406 C 321.582031 530.191406 321.820312 530.183594 322.058594 530.167969 C 335.507812 529.421875 355.257812 526.378906 372.996094 516.082031 C 393.363281 504.265625 406.515625 485.824219 412.105469 461.273438 L 424.363281 449.011719 C 424.40625 448.96875 424.449219 448.929688 424.484375 448.886719 C 425.609375 447.734375 435.492188 437.5 450.992188 420.703125 C 451.367188 420.304688 451.738281 419.902344 452.109375 419.492188 C 455.972656 415.308594 460.164062 410.730469 464.644531 405.800781 C 465.390625 404.976562 466.148438 404.148438 466.910156 403.304688 C 470.023438 399.871094 473.265625 396.269531 476.621094 392.527344 C 474.246094 440.960938 451.6875 485.621094 413.894531 516.117188 Z M 381.363281 425.226562 L 387.207031 419.375 L 413.148438 445.3125 L 407.296875 451.164062 Z M 401.5 460.285156 C 396.40625 481.195312 385.054688 496.886719 367.707031 506.960938 C 351.769531 516.199219 333.769531 518.957031 321.476562 519.640625 C 320.273438 519.703125 319.730469 518.9375 319.519531 518.472656 C 319.296875 517.996094 319.050781 517.050781 319.90625 516.144531 C 331.46875 503.929688 335.675781 490.367188 340.726562 464.597656 C 345.964844 437.835938 365.34375 432.019531 372.015625 430.804688 Z M 486.453125 365.5625 C 483.113281 369.359375 479.851562 373.054688 476.671875 376.632812 C 449.601562 407.09375 428.675781 429.25 420.53125 437.773438 L 394.75 411.996094 C 404.6875 402.5 433.113281 375.664062 471.640625 341.960938 C 474.539062 339.429688 477.492188 336.855469 480.503906 334.246094 C 509.558594 309.058594 543.59375 280.679688 579.40625 253.125 C 547.445312 294.65625 514.371094 333.808594 486.453125 365.5625 Z M 486.453125 365.5625 " fill-opacity="1" fill-rule="nonzero"/></g><path fill="#EE807D" d="M 287.238281 286.117188 C 287.238281 267.816406 272.355469 252.933594 254.054688 252.933594 C 235.753906 252.933594 220.871094 267.816406 220.871094 286.117188 C 220.871094 304.417969 235.753906 319.296875 254.054688 319.296875 C 272.355469 319.296875 287.238281 304.417969 287.238281 286.117188 Z M 231.429688 286.117188 C 231.429688 273.640625 241.585938 263.484375 254.0625 263.484375 C 266.539062 263.484375 276.695312 273.640625 276.695312 286.117188 C 276.695312 298.59375 266.539062 308.75 254.0625 308.75 C 241.585938 308.75 231.429688 298.601562 231.429688 286.117188 Z M 231.429688 286.117188 " fill-opacity="1" fill-rule="nonzero"/><path fill="#EE807D" d="M 339.503906 305.976562 C 355.546875 305.976562 368.597656 292.925781 368.597656 276.882812 C 368.597656 260.839844 355.546875 247.785156 339.503906 247.785156 C 323.460938 247.785156 310.40625 260.839844 310.40625 276.882812 C 310.40625 292.925781 323.460938 305.976562 339.503906 305.976562 Z M 339.503906 258.335938 C 349.730469 258.335938 358.050781 266.65625 358.050781 276.882812 C 358.050781 287.109375 349.730469 295.429688 339.503906 295.429688 C 329.277344 295.429688 320.957031 287.109375 320.957031 276.882812 C 320.957031 266.65625 329.277344 258.335938 339.503906 258.335938 Z M 339.503906 258.335938 " fill-opacity="1" fill-rule="nonzero"/><path fill="#EE807D" d="M 410.046875 340.496094 C 423.703125 340.496094 434.824219 329.382812 434.824219 315.71875 C 434.824219 302.054688 423.710938 290.941406 410.046875 290.941406 C 396.386719 290.941406 385.265625 302.054688 385.265625 315.71875 C 385.265625 329.382812 396.386719 340.496094 410.046875 340.496094 Z M 410.046875 301.496094 C 417.886719 301.496094 424.273438 307.875 424.273438 315.726562 C 424.273438 323.574219 417.894531 329.953125 410.046875 329.953125 C 402.195312 329.953125 395.816406 323.574219 395.816406 315.726562 C 395.816406 307.875 402.203125 301.496094 410.046875 301.496094 Z M 410.046875 301.496094 " fill-opacity="1" fill-rule="nonzero"/><path fill="#EE807D" d="M 263.375 445.972656 C 247.332031 445.972656 234.277344 459.027344 234.277344 475.070312 C 234.277344 491.113281 247.332031 504.167969 263.375 504.167969 C 279.417969 504.167969 292.472656 491.113281 292.472656 475.070312 C 292.472656 459.027344 279.417969 445.972656 263.375 445.972656 Z M 263.375 493.617188 C 253.148438 493.617188 244.828125 485.296875 244.828125 475.070312 C 244.828125 464.84375 253.148438 456.523438 263.375 456.523438 C 273.601562 456.523438 281.921875 464.84375 281.921875 475.070312 C 281.921875 485.296875 273.601562 493.617188 263.375 493.617188 Z M 263.375 493.617188 " fill-opacity="1" fill-rule="nonzero"/></svg>