<svg xmlns="http://www.w3.org/2000/svg" xmlns:xlink="http://www.w3.org/1999/xlink" width="1024" zoomAndPan="magnify" viewBox="0 0 768 767.999994" height="1024" preserveAspectRatio="xMidYMid meet" version="1.0"><path fill="#EE807D" d="M 411.597656 245.804688 C 407.667969 241.875 401.273438 241.875 397.34375 245.804688 C 393.402344 249.742188 393.402344 256.113281 397.34375 260.054688 L 507.945312 370.652344 C 511.871094 374.582031 518.265625 374.582031 522.195312 370.652344 C 526.136719 366.710938 526.136719 360.34375 522.195312 356.402344 C 518.496094 352.703125 418.800781 253.007812 411.597656 245.804688 Z M 411.597656 245.804688 " fill-opacity="1" fill-rule="nonzero"/><path fill="#EE807D" d="M 378.273438 330.890625 L 256.289062 470.953125 C 245.253906 483.609375 247.382812 503.226562 260.929688 513.183594 C 271.640625 521.066406 286.75 520.683594 297.042969 511.710938 L 437.105469 389.726562 C 408.578125 381.777344 386.257812 359.558594 378.273438 330.890625 Z M 378.273438 330.890625 " fill-opacity="1" fill-rule="nonzero"/><path fill="#EE807D" d="M 242.351562 511.394531 L 234.355469 519.390625 C 230.429688 523.320312 230.429688 529.710938 234.355469 533.640625 C 238.285156 537.570312 244.679688 537.570312 248.609375 533.640625 L 256.601562 525.648438 C 250.699219 522.101562 245.71875 517.003906 242.351562 511.394531 Z M 242.351562 511.394531 " fill-opacity="1" fill-rule="nonzero"/><path fill="#EE807D" d="M 395.453125 276.230469 C 386.015625 295.230469 385.152344 318.808594 395.28125 339.710938 C 402.378906 354.113281 414.507812 366.46875 430.277344 373.652344 C 449.644531 382.3125 472.355469 382.183594 491.769531 372.542969 C 486.429688 367.203125 400.8125 281.585938 395.453125 276.230469 Z M 395.453125 276.230469 " fill-opacity="1" fill-rule="nonzero"/><path fill="#EE807D" d="M 427.769531 243.914062 L 524.085938 340.226562 C 537.601562 313.019531 532.441406 279.332031 510.554688 257.445312 C 488.664062 235.558594 454.980469 230.394531 427.769531 243.914062 Z M 427.769531 243.914062 " fill-opacity="1" fill-rule="nonzero"/><path fill="#EE807D" d="M 250.566406 350.992188 C 240 350.992188 231.402344 342.398438 231.402344 331.832031 C 231.402344 321.265625 240 312.671875 250.566406 312.671875 C 261.128906 312.671875 269.726562 321.265625 269.726562 331.832031 C 269.726562 342.398438 261.128906 350.992188 250.566406 350.992188 Z M 250.566406 350.992188 " fill-opacity="1" fill-rule="nonzero"/><path fill="#EE807D" d="M 314.433594 338.601562 C 303.867188 338.601562 295.273438 330.003906 295.273438 319.441406 C 295.273438 308.875 303.867188 300.277344 314.433594 300.277344 C 325 300.277344 333.59375 308.875 333.59375 319.441406 C 333.59375 330.003906 325 338.601562 314.433594 338.601562 Z M 314.433594 338.601562 " fill-opacity="1" fill-rule="nonzero"/><path fill="#EE807D" d="M 263.339844 338.21875 C 259.808594 338.21875 256.949219 335.359375 256.949219 331.832031 L 256.949219 268.34375 C 256.949219 265.734375 258.539062 263.382812 260.964844 262.414062 L 324.835938 236.867188 C 329.03125 235.1875 333.59375 238.285156 333.59375 242.796875 L 333.59375 319.441406 C 333.59375 322.96875 330.734375 325.828125 327.207031 325.828125 C 323.679688 325.828125 320.820312 322.96875 320.820312 319.441406 L 320.820312 252.230469 L 269.726562 272.667969 L 269.726562 331.832031 C 269.726562 335.359375 266.867188 338.21875 263.339844 338.21875 Z M 263.339844 338.21875 " fill-opacity="1" fill-rule="nonzero"/><path fill="#EE807D" d="M 448.558594 536.59375 C 437.992188 536.59375 429.398438 528 429.398438 517.433594 C 429.398438 506.867188 437.992188 498.273438 448.558594 498.273438 C 459.125 498.273438 467.71875 506.867188 467.71875 517.433594 C 467.71875 528 459.125 536.59375 448.558594 536.59375 Z M 448.558594 536.59375 " fill-opacity="1" fill-rule="nonzero"/><path fill="#EE807D" d="M 512.425781 524.203125 C 501.863281 524.203125 493.265625 515.605469 493.265625 505.042969 C 493.265625 494.476562 501.863281 485.878906 512.425781 485.878906 C 522.992188 485.878906 531.589844 494.476562 531.589844 505.042969 C 531.589844 515.605469 522.992188 524.203125 512.425781 524.203125 Z M 512.425781 524.203125 " fill-opacity="1" fill-rule="nonzero"/><path fill="#EE807D" d="M 461.332031 523.820312 C 457.804688 523.820312 454.945312 520.960938 454.945312 517.433594 L 454.945312 453.945312 C 454.945312 451.335938 456.535156 448.988281 458.960938 448.015625 L 522.828125 422.46875 C 527.015625 420.792969 531.589844 423.878906 531.589844 428.398438 L 531.589844 505.042969 C 531.589844 508.570312 528.730469 511.429688 525.203125 511.429688 C 521.675781 511.429688 518.816406 508.570312 518.816406 505.042969 L 518.816406 437.832031 L 467.71875 458.269531 L 467.71875 517.433594 C 467.71875 520.960938 464.859375 523.820312 461.332031 523.820312 Z M 461.332031 523.820312 " fill-opacity="1" fill-rule="nonzero"/></svg>