<svg xmlns="http://www.w3.org/2000/svg" xmlns:xlink="http://www.w3.org/1999/xlink" width="1024" zoomAndPan="magnify" viewBox="0 0 768 767.999994" height="1024" preserveAspectRatio="xMidYMid meet" version="1.0"><path fill="#EE807D" d="M 452.996094 38.507812 C 443.171875 28.683594 427.191406 28.683594 417.367188 38.507812 C 407.515625 48.359375 407.515625 64.285156 417.367188 74.136719 L 693.871094 350.636719 C 703.691406 360.460938 719.675781 360.460938 729.5 350.636719 C 739.351562 340.785156 739.351562 324.863281 729.5 315.007812 C 720.25 305.761719 471.015625 56.523438 452.996094 38.507812 Z M 452.996094 38.507812 " fill-opacity="1" fill-rule="nonzero"/><path fill="#EE807D" d="M 369.6875 251.230469 L 64.71875 601.386719 C 37.132812 633.035156 42.457031 682.074219 76.328125 706.964844 C 103.101562 726.671875 140.878906 725.714844 166.613281 703.289062 L 516.773438 398.320312 C 445.453125 378.449219 389.65625 322.898438 369.6875 251.230469 Z M 369.6875 251.230469 " fill-opacity="1" fill-rule="nonzero"/><path fill="#EE807D" d="M 29.875 702.5 L 9.894531 722.488281 C 0.0703125 732.308594 0.0703125 748.292969 9.894531 758.117188 C 19.714844 767.941406 35.699219 767.941406 45.519531 758.117188 L 65.507812 738.128906 C 50.746094 729.269531 38.296875 716.523438 29.875 702.5 Z M 29.875 702.5 " fill-opacity="1" fill-rule="nonzero"/><path fill="#EE807D" d="M 412.640625 114.574219 C 389.046875 162.082031 386.886719 221.023438 412.203125 273.285156 C 429.953125 309.289062 460.273438 340.175781 499.699219 358.132812 C 548.125 379.789062 604.898438 379.46875 653.429688 355.363281 C 640.082031 342.015625 426.035156 127.96875 412.640625 114.574219 Z M 412.640625 114.574219 " fill-opacity="1" fill-rule="nonzero"/><path fill="#EE807D" d="M 493.433594 33.78125 L 734.226562 274.574219 C 768.019531 206.546875 755.113281 122.335938 700.394531 67.613281 C 645.671875 12.894531 561.460938 -0.0117188 493.433594 33.78125 Z M 493.433594 33.78125 " fill-opacity="1" fill-rule="nonzero"/><path fill="#EE807D" d="M 50.414062 301.484375 C 24 301.484375 2.507812 279.996094 2.507812 253.582031 C 2.507812 227.167969 23.996094 205.679688 50.414062 205.679688 C 76.828125 205.679688 98.316406 227.167969 98.316406 253.582031 C 98.316406 279.996094 76.824219 301.484375 50.414062 301.484375 Z M 50.414062 301.484375 " fill-opacity="1" fill-rule="nonzero"/><path fill="#EE807D" d="M 210.085938 270.503906 C 183.675781 270.503906 162.183594 249.015625 162.183594 222.601562 C 162.183594 196.1875 183.671875 174.699219 210.085938 174.699219 C 236.5 174.699219 257.988281 196.1875 257.988281 222.601562 C 257.988281 249.015625 236.5 270.503906 210.085938 270.503906 Z M 210.085938 270.503906 " fill-opacity="1" fill-rule="nonzero"/><path fill="#EE807D" d="M 82.347656 269.550781 C 73.527344 269.550781 66.378906 262.402344 66.378906 253.582031 L 66.378906 94.863281 C 66.378906 88.332031 70.351562 82.460938 76.414062 80.035156 L 236.09375 16.167969 C 246.578125 11.96875 257.988281 19.714844 257.988281 30.992188 L 257.988281 222.601562 C 257.988281 231.421875 250.839844 238.570312 242.023438 238.570312 C 233.203125 238.570312 226.054688 231.421875 226.054688 222.601562 L 226.054688 54.578125 L 98.3125 105.671875 L 98.3125 253.582031 C 98.3125 262.402344 91.164062 269.550781 82.347656 269.550781 Z M 82.347656 269.550781 " fill-opacity="1" fill-rule="nonzero"/><path fill="#EE807D" d="M 545.40625 765.5 C 518.992188 765.5 497.5 744.007812 497.5 717.59375 C 497.5 691.179688 518.992188 669.691406 545.40625 669.691406 C 571.816406 669.691406 593.308594 691.179688 593.308594 717.59375 C 593.308594 744.007812 571.816406 765.5 545.40625 765.5 Z M 545.40625 765.5 " fill-opacity="1" fill-rule="nonzero"/><path fill="#EE807D" d="M 705.078125 734.519531 C 678.667969 734.519531 657.175781 713.027344 657.175781 686.613281 C 657.175781 660.199219 678.664062 638.710938 705.078125 638.710938 C 731.492188 638.710938 752.984375 660.199219 752.984375 686.613281 C 752.984375 713.027344 731.492188 734.519531 705.078125 734.519531 Z M 705.078125 734.519531 " fill-opacity="1" fill-rule="nonzero"/><path fill="#EE807D" d="M 577.339844 733.5625 C 568.523438 733.5625 561.371094 726.414062 561.371094 717.59375 L 561.371094 558.875 C 561.371094 552.347656 565.347656 546.476562 571.410156 544.050781 L 731.085938 480.179688 C 741.554688 475.992188 752.984375 483.710938 752.984375 495.007812 L 752.984375 686.617188 C 752.984375 695.433594 745.835938 702.582031 737.015625 702.582031 C 728.199219 702.582031 721.046875 695.433594 721.046875 686.617188 L 721.046875 518.589844 L 593.308594 569.6875 L 593.308594 717.597656 C 593.308594 726.414062 586.15625 733.5625 577.339844 733.5625 Z M 577.339844 733.5625 " fill-opacity="1" fill-rule="nonzero"/></svg>