<svg xmlns="http://www.w3.org/2000/svg" xmlns:xlink="http://www.w3.org/1999/xlink" width="1024" zoomAndPan="magnify" viewBox="0 0 768 767.999994" height="1024" preserveAspectRatio="xMidYMid meet" version="1.0"><defs><clipPath id="84e229fcbd"><path d="M 152 359 L 549 359 L 549 764.597656 L 152 764.597656 Z M 152 359 " clip-rule="nonzero"/></clipPath><clipPath id="21cb6d331c"><path d="M 152 477 L 549 477 L 549 764.597656 L 152 764.597656 Z M 152 477 " clip-rule="nonzero"/></clipPath><clipPath id="a51fc99e44"><path d="M 287 3.347656 L 712 3.347656 L 712 232 L 287 232 Z M 287 3.347656 " clip-rule="nonzero"/></clipPath><clipPath id="dd77fae14f"><path d="M 601 3.347656 L 712 3.347656 L 712 89 L 601 89 Z M 601 3.347656 " clip-rule="nonzero"/></clipPath></defs><path fill="#EE807D" d="M 510.214844 385.410156 C 510.121094 369.148438 500.726562 368.398438 481.40625 368.511719 L 216.203125 369.910156 C 196.867188 370.035156 187.496094 370.875 187.566406 387.121094 C 187.566406 387.121094 160.882812 683.40625 160.894531 683.757812 C 161.144531 734.457031 261.628906 755.859375 350.808594 755.378906 C 439.808594 754.890625 540.328125 732.761719 540.054688 682.078125 C 540.054688 681.714844 510.214844 385.410156 510.214844 385.410156 " fill-opacity="1" fill-rule="nonzero"/><g clip-path="url(#84e229fcbd)"><path stroke-linecap="round" transform="matrix(0.290796, 0, 0, -0.290664, -234.395493, 1001.778018)" fill="none" stroke-linejoin="round" d="M 2560.591034 2120.548306 C 2560.268644 2176.495026 2527.962414 2179.075322 2461.523075 2178.68559 L 1549.533662 2173.874414 C 1483.040591 2173.444364 1450.814959 2170.554971 1451.056752 2114.662007 C 1451.056752 2114.662007 1359.296313 1095.324328 1359.336612 1094.114814 C 1360.196321 919.689525 1705.745364 846.05703 2012.419468 847.696593 C 2318.475657 849.376473 2664.145597 925.522068 2663.205291 1099.893601 C 2663.205291 1101.143432 2560.591034 2120.548306 2560.591034 2120.548306 Z M 2560.591034 2120.548306 " stroke="#393536" stroke-width="60" stroke-opacity="1" stroke-miterlimit="10"/></g><path fill="#EE807D" d="M 350.808594 524.484375 C 284.289062 524.847656 211.488281 513.003906 178.683594 485.960938 C 170.914062 572.160156 160.894531 683.542969 160.894531 683.757812 C 161.144531 734.457031 261.628906 755.859375 350.808594 755.378906 C 439.808594 754.890625 540.328125 732.761719 540.054688 682.078125 C 540.054688 681.875 529 572.125 520.355469 486.175781 C 486.757812 512.277344 415.738281 524.15625 350.808594 524.484375 " fill-opacity="1" fill-rule="nonzero"/><g clip-path="url(#21cb6d331c)"><path stroke-linecap="round" transform="matrix(0.290796, 0, 0, -0.290664, -234.395493, 1001.778018)" fill="none" stroke-linejoin="round" d="M 2012.419468 1642.078196 C 1783.66987 1640.828365 1533.320099 1681.575532 1420.510238 1774.614 C 1393.792113 1478.054723 1359.336612 1094.853962 1359.336612 1094.114814 C 1360.196321 919.689525 1705.745364 846.05703 2012.419468 847.696593 C 2318.475657 849.376473 2664.145597 925.522068 2663.205291 1099.893601 C 2663.205291 1100.592431 2625.19006 1478.175675 2595.462956 1773.874853 C 2479.926207 1684.075193 2235.701858 1643.207075 2012.419468 1642.078196 Z M 2012.419468 1642.078196 " stroke="#393536" stroke-width="60" stroke-opacity="1" stroke-miterlimit="10"/></g><path stroke-linecap="round" transform="matrix(0.290796, 0, 0, -0.290664, -234.395493, 1001.778018)" fill-opacity="1" fill="#EE807D" fill-rule="nonzero" stroke-linejoin="round" d="M 1258.15968 2286.37261 C 1115.434654 2242.73605 1029.450381 2186.493671 1029.450381 2125.090702 C 1029.450381 1986.37294 1467.847931 1873.955377 2008.671677 1873.955377 C 2549.455124 1873.955377 2987.852674 1986.37294 2987.852674 2125.090702 C 2987.852674 2235.519286 2709.965368 2329.31034 2323.714505 2362.934816 " stroke="#393536" stroke-width="60" stroke-opacity="1" stroke-miterlimit="10"/><path fill="#EE807D" d="M 349.71875 417.144531 C 268.558594 417.144531 202.753906 402.359375 202.753906 384.089844 C 202.753906 365.84375 268.558594 351.027344 349.71875 351.027344 C 430.878906 351.027344 496.671875 365.84375 496.671875 384.089844 C 496.671875 402.359375 430.878906 417.144531 349.71875 417.144531 " fill-opacity="1" fill-rule="nonzero"/><path stroke-linecap="round" transform="matrix(0.290796, 0, 0, -0.290664, -234.395493, 1001.778018)" fill="none" stroke-linejoin="round" d="M 2008.671677 2011.369552 C 1729.575406 2011.369552 1503.284037 2062.236316 1503.284037 2125.090702 C 1503.284037 2187.864453 1729.575406 2238.838729 2008.671677 2238.838729 C 2287.767948 2238.838729 2514.019019 2187.864453 2514.019019 2125.090702 C 2514.019019 2062.236316 2287.767948 2011.369552 2008.671677 2011.369552 Z M 2008.671677 2011.369552 " stroke="#393536" stroke-width="60" stroke-opacity="1" stroke-miterlimit="10"/><path fill="#EE807D" d="M 298.089844 202.003906 C 293.058594 191.117188 302.917969 188.164062 310.03125 184.894531 L 673.980469 16.660156 C 681.089844 13.371094 689.699219 7.78125 694.742188 18.671875 L 701.332031 32.886719 C 706.363281 43.777344 696.515625 46.695312 689.394531 49.996094 L 325.445312 218.207031 C 318.332031 221.511719 309.710938 227.121094 304.679688 216.234375 L 298.089844 202.003906 " fill-opacity="1" fill-rule="nonzero"/><g clip-path="url(#a51fc99e44)"><path stroke-linecap="round" transform="matrix(0.290796, 0, 0, -0.290664, -234.395493, 1001.778018)" fill="none" stroke-linejoin="round" d="M 1831.12846 2751.524633 C 1813.826829 2788.992674 1847.731579 2799.152588 1872.192969 2810.401063 L 3123.753765 3389.193601 C 3148.201723 3400.509272 3177.807931 3419.740537 3195.149861 3382.272496 L 3217.811237 3333.367832 C 3235.112869 3295.899791 3201.248418 3285.860829 3176.760161 3274.504841 L 1925.199365 2695.792938 C 1900.737974 2684.423511 1871.091468 2665.12505 1853.789836 2702.579652 Z M 1831.12846 2751.524633 " stroke="#393536" stroke-width="60" stroke-opacity="1" stroke-miterlimit="10"/></g><path fill="#EE807D" d="M 610.242188 46.113281 L 625.667969 79.449219 L 689.394531 49.996094 C 696.515625 46.695312 706.363281 43.777344 701.332031 32.886719 L 694.742188 18.671875 C 689.699219 7.78125 681.089844 13.371094 673.980469 16.660156 L 610.242188 46.113281 " fill-opacity="1" fill-rule="nonzero"/><g clip-path="url(#dd77fae14f)"><path stroke-linecap="round" transform="matrix(0.290796, 0, 0, -0.290664, -234.395493, 1001.778018)" fill="none" stroke-linejoin="round" d="M 2904.568423 3287.863246 L 2957.615118 3173.174486 L 3176.760161 3274.504841 C 3201.248418 3285.860829 3235.112869 3295.899791 3217.811237 3333.367832 L 3195.149861 3382.272496 C 3177.807931 3419.740537 3148.201723 3400.509272 3123.753765 3389.193601 Z M 2904.568423 3287.863246 " stroke="#393536" stroke-width="60" stroke-opacity="1" stroke-miterlimit="10"/></g><path fill="#EE807D" d="M 356.625 203.800781 L 341.199219 170.476562 L 310.03125 184.894531 C 302.917969 188.164062 293.058594 191.117188 298.089844 202.003906 L 304.679688 216.234375 C 309.710938 227.121094 318.332031 221.511719 325.445312 218.207031 L 356.625 203.800781 " fill-opacity="1" fill-rule="nonzero"/><path stroke-linecap="round" transform="matrix(0.290796, 0, 0, -0.290664, -234.395493, 1001.778018)" fill="none" stroke-linejoin="round" d="M 2032.421121 2745.356114 L 1979.374427 2860.004557 L 1872.192969 2810.401063 C 1847.731579 2799.152588 1813.826829 2788.992674 1831.12846 2751.524633 L 1853.789836 2702.579652 C 1871.091468 2665.12505 1900.737974 2684.423511 1925.199365 2695.792938 Z M 2032.421121 2745.356114 " stroke="#393536" stroke-width="60" stroke-opacity="1" stroke-miterlimit="10"/><path fill="#EE807D" d="M 262.195312 137.332031 C 262.195312 137.332031 238.75 143.476562 226.890625 179.683594 C 215.738281 143.261719 192.394531 136.664062 192.394531 136.664062 C 192.394531 136.664062 215.863281 130.507812 227.710938 94.371094 C 238.863281 130.734375 262.195312 137.332031 262.195312 137.332031 " fill-opacity="1" fill-rule="nonzero"/><path stroke-linecap="round" transform="matrix(0.290796, 0, 0, -0.290664, -234.395493, 1001.778018)" fill="none" stroke-linejoin="round" d="M 1707.693141 2974.034804 C 1707.693141 2974.034804 1627.068613 2952.895195 1586.286196 2828.328742 C 1547.935141 2953.634342 1467.65987 2976.33288 1467.65987 2976.33288 C 1467.65987 2976.33288 1548.364996 2997.512805 1589.107114 3121.837356 C 1627.458168 2996.719902 1707.693141 2974.034804 1707.693141 2974.034804 Z M 1707.693141 2974.034804 " stroke="#393536" stroke-width="60" stroke-opacity="1" stroke-miterlimit="10"/><path stroke-linecap="round" transform="matrix(0.290796, 0, 0, -0.290664, -234.395493, 1001.778018)" fill-opacity="1" fill="#EE807D" fill-rule="nonzero" stroke-linejoin="round" d="M 2169.611775 2372.825949 C 2117.223295 2375.043391 2063.478087 2376.212587 2008.671677 2376.212587 C 1829.489641 2376.212587 1661.564412 2363.875549 1517.106536 2342.305891 " stroke="#393536" stroke-width="60" stroke-opacity="1" stroke-miterlimit="10"/><path fill="#EE807D" d="M 211.761719 282.246094 C 211.761719 282.246094 179.75 290.636719 163.5625 340.09375 C 148.320312 290.339844 116.445312 281.347656 116.445312 281.347656 C 116.445312 281.347656 148.488281 272.945312 164.675781 223.589844 C 179.910156 273.253906 211.761719 282.246094 211.761719 282.246094 " fill-opacity="1" fill-rule="nonzero"/><path stroke-linecap="round" transform="matrix(0.290796, 0, 0, -0.290664, -234.395493, 1001.778018)" fill="none" stroke-linejoin="round" d="M 1534.260405 2475.47333 C 1534.260405 2475.47333 1424.177431 2446.606274 1368.511313 2276.454599 C 1316.095966 2447.627641 1206.483146 2478.564309 1206.483146 2478.564309 C 1206.483146 2478.564309 1316.673583 2507.471682 1372.339702 2677.273942 C 1424.728182 2506.409998 1534.260405 2475.47333 1534.260405 2475.47333 Z M 1534.260405 2475.47333 " stroke="#393536" stroke-width="60" stroke-opacity="1" stroke-miterlimit="10"/><path fill="#EE807D" d="M 454.710938 266.578125 C 454.710938 266.578125 431.265625 272.71875 419.40625 308.9375 C 408.253906 272.503906 384.910156 265.90625 384.910156 265.90625 C 384.910156 265.90625 408.378906 259.753906 420.226562 223.613281 C 431.378906 259.980469 454.710938 266.578125 454.710938 266.578125 " fill-opacity="1" fill-rule="nonzero"/><path stroke-linecap="round" transform="matrix(0.290796, 0, 0, -0.290664, -234.395493, 1001.778018)" fill="none" stroke-linejoin="round" d="M 2369.722337 2529.377316 C 2369.722337 2529.377316 2289.097809 2508.251146 2248.315392 2383.644376 C 2209.964338 2508.990294 2129.689067 2531.688831 2129.689067 2531.688831 C 2129.689067 2531.688831 2210.394192 2552.855317 2251.136311 2677.193307 C 2289.487365 2552.075853 2369.722337 2529.377316 2369.722337 2529.377316 Z M 2369.722337 2529.377316 " stroke="#393536" stroke-width="60" stroke-opacity="1" stroke-miterlimit="10"/></svg>