<svg xmlns="http://www.w3.org/2000/svg" xmlns:xlink="http://www.w3.org/1999/xlink" width="1024" zoomAndPan="magnify" viewBox="0 0 768 767.999994" height="1024" preserveAspectRatio="xMidYMid meet" version="1.0"><defs><clipPath id="45f651cc11"><path d="M 251 369 L 479 369 L 479 601.714844 L 251 601.714844 Z M 251 369 " clip-rule="nonzero"/></clipPath><clipPath id="648edc07e4"><path d="M 251 437 L 479 437 L 479 601.714844 L 251 601.714844 Z M 251 437 " clip-rule="nonzero"/></clipPath></defs><path fill="#EE807D" d="M 456.121094 384.664062 C 456.070312 375.355469 450.691406 374.929688 439.632812 374.992188 L 287.824219 375.792969 C 276.757812 375.863281 271.390625 376.34375 271.429688 385.644531 C 271.429688 385.644531 256.15625 555.242188 256.164062 555.445312 C 256.304688 584.464844 313.824219 596.714844 364.875 596.441406 C 415.820312 596.164062 473.359375 583.496094 473.203125 554.484375 C 473.203125 554.273438 456.121094 384.664062 456.121094 384.664062 " fill-opacity="1" fill-rule="nonzero"/><g clip-path="url(#45f651cc11)"><path stroke-linecap="round" transform="matrix(0.16646, 0, 0, -0.16638, 29.888541, 737.482832)" fill="none" stroke-linejoin="round" d="M 2560.575913 2120.556075 C 2560.270847 2176.503765 2527.957271 2179.062849 2461.523188 2178.687204 L 1549.538811 2173.874247 C 1483.057795 2173.451646 1450.814619 2170.563872 1451.049286 2114.663138 C 1451.049286 2114.663138 1359.294689 1095.325812 1359.341622 1094.104965 C 1360.186421 919.688101 1705.732827 846.061598 2012.418461 847.705047 C 2318.470496 849.371974 2664.134235 925.510605 2663.195569 1099.880513 C 2663.195569 1101.148316 2560.575913 2120.556075 2560.575913 2120.556075 Z M 2560.575913 2120.556075 " stroke="#393536" stroke-width="60" stroke-opacity="1" stroke-miterlimit="10"/></g><path fill="#EE807D" d="M 364.875 464.273438 C 326.796875 464.480469 285.125 457.703125 266.347656 442.222656 C 261.898438 491.5625 256.164062 555.320312 256.164062 555.445312 C 256.304688 584.464844 313.824219 596.714844 364.875 596.441406 C 415.820312 596.164062 473.359375 583.496094 473.203125 554.484375 C 473.203125 554.367188 466.878906 491.542969 461.929688 442.34375 C 442.695312 457.285156 402.042969 464.085938 364.875 464.273438 " fill-opacity="1" fill-rule="nonzero"/><g clip-path="url(#648edc07e4)"><path stroke-linecap="round" transform="matrix(0.16646, 0, 0, -0.16638, 29.888541, 737.482832)" fill="none" stroke-linejoin="round" d="M 2012.418461 1642.077721 C 1783.665568 1640.833396 1533.323357 1681.567446 1420.519176 1774.610121 C 1393.790663 1478.06154 1359.341622 1094.856256 1359.341622 1094.104965 C 1360.186421 919.688101 1705.732827 846.061598 2012.418461 847.705047 C 2318.470496 849.371974 2664.134235 925.510605 2663.195569 1099.880513 C 2663.195569 1100.584848 2625.203064 1478.178929 2595.47082 1773.882308 C 2479.921041 1684.079575 2235.703626 1643.204657 2012.418461 1642.077721 Z M 2012.418461 1642.077721 " stroke="#393536" stroke-width="60" stroke-opacity="1" stroke-miterlimit="10"/></g><path stroke-linecap="round" transform="matrix(0.16646, 0, 0, -0.16638, 29.888541, 737.482832)" fill-opacity="1" fill="#EE807D" fill-rule="nonzero" stroke-linejoin="round" d="M 1258.153432 2286.38005 C 1115.429273 2242.734748 1029.447472 2186.481846 1029.447472 2125.087298 C 1029.447472 1986.380227 1467.851407 1873.944857 2008.663797 1873.944857 C 2549.452722 1873.944857 2987.856657 1986.380227 2987.856657 2125.087298 C 2987.856657 2235.527051 2709.9646 2329.297539 2323.703559 2362.941282 " stroke="#393536" stroke-width="60" stroke-opacity="1" stroke-miterlimit="10"/><path fill="#EE807D" d="M 364.25 402.828125 C 317.792969 402.828125 280.125 394.367188 280.125 383.910156 C 280.125 373.464844 317.792969 364.984375 364.25 364.984375 C 410.710938 364.984375 448.371094 373.464844 448.371094 383.910156 C 448.371094 394.367188 410.710938 402.828125 364.25 402.828125 " fill-opacity="1" fill-rule="nonzero"/><path stroke-linecap="round" transform="matrix(0.16646, 0, 0, -0.16638, 29.888541, 737.482832)" fill="none" stroke-linejoin="round" d="M 2008.663797 2011.384125 C 1729.574942 2011.384125 1503.286046 2062.237124 1503.286046 2125.087298 C 1503.286046 2187.867039 1729.574942 2238.837427 2008.663797 2238.837427 C 2287.77612 2238.837427 2514.018082 2187.867039 2514.018082 2125.087298 C 2514.018082 2062.237124 2287.77612 2011.384125 2008.663797 2011.384125 Z M 2008.663797 2011.384125 " stroke="#393536" stroke-width="60" stroke-opacity="1" stroke-miterlimit="10"/><path fill="#EE807D" d="M 334.699219 279.683594 C 331.816406 273.449219 337.460938 271.757812 341.53125 269.886719 L 549.867188 173.589844 C 553.9375 171.703125 558.867188 168.507812 561.753906 174.738281 L 565.523438 182.875 C 568.40625 189.109375 562.765625 190.777344 558.691406 192.671875 L 350.355469 288.957031 C 346.285156 290.847656 341.351562 294.058594 338.46875 287.824219 L 334.699219 279.683594 " fill-opacity="1" fill-rule="nonzero"/><path stroke-linecap="round" transform="matrix(0.16646, 0, 0, -0.16638, 29.888541, 737.482832)" fill="none" stroke-linejoin="round" d="M 1831.138598 2751.522992 C 1813.820212 2788.993622 1847.729519 2799.159526 1872.181767 2810.405411 L 3123.752021 3389.181092 C 3148.204269 3400.520888 3177.81918 3419.72576 3195.161033 3382.278607 L 3217.806349 3333.374269 C 3235.124736 3295.903639 3201.238895 3285.878602 3176.763181 3274.49185 L 1925.192927 2695.786602 C 1900.740679 2684.423328 1871.102302 2665.124545 1853.783915 2702.595176 Z M 1831.138598 2751.522992 " stroke="#393536" stroke-width="60" stroke-opacity="1" stroke-miterlimit="10"/><path fill="#EE807D" d="M 513.382812 190.449219 L 522.210938 209.53125 L 558.691406 192.671875 C 562.765625 190.777344 568.40625 189.109375 565.523438 182.875 L 561.753906 174.738281 C 558.867188 168.507812 553.9375 171.703125 549.867188 173.589844 L 513.382812 190.449219 " fill-opacity="1" fill-rule="nonzero"/><path stroke-linecap="round" transform="matrix(0.16646, 0, 0, -0.16638, 29.888541, 737.482832)" fill="none" stroke-linejoin="round" d="M 2904.57352 3287.85074 L 2957.608146 3173.161498 L 3176.763181 3274.49185 C 3201.238895 3285.878602 3235.124736 3295.903639 3217.806349 3333.374269 L 3195.161033 3382.278607 C 3177.81918 3419.72576 3148.204269 3400.520888 3123.752021 3389.181092 Z M 2904.57352 3287.85074 " stroke="#393536" stroke-width="60" stroke-opacity="1" stroke-miterlimit="10"/><path fill="#EE807D" d="M 368.203125 280.710938 L 359.375 261.632812 L 341.53125 269.886719 C 337.460938 271.757812 331.816406 273.449219 334.699219 279.683594 L 338.46875 287.824219 C 341.351562 294.058594 346.285156 290.847656 350.355469 288.957031 L 368.203125 280.710938 " fill-opacity="1" fill-rule="nonzero"/><path stroke-linecap="round" transform="matrix(0.16646, 0, 0, -0.16638, 29.888541, 737.482832)" fill="none" stroke-linejoin="round" d="M 2032.412046 2745.34832 L 1979.37742 2860.014084 L 1872.181767 2810.405411 C 1847.729519 2799.159526 1813.820212 2788.993622 1831.138598 2751.522992 L 1853.783915 2702.595176 C 1871.102302 2665.124545 1900.740679 2684.423328 1925.192927 2695.786602 Z M 2032.412046 2745.34832 " stroke="#393536" stroke-width="60" stroke-opacity="1" stroke-miterlimit="10"/><path fill="#EE807D" d="M 314.152344 242.664062 C 314.152344 242.664062 300.730469 246.179688 293.941406 266.90625 C 287.554688 246.054688 274.195312 242.277344 274.195312 242.277344 C 274.195312 242.277344 287.628906 238.757812 294.410156 218.070312 C 300.796875 238.886719 314.152344 242.664062 314.152344 242.664062 " fill-opacity="1" fill-rule="nonzero"/><path stroke-linecap="round" transform="matrix(0.16646, 0, 0, -0.16638, 29.888541, 737.482832)" fill="none" stroke-linejoin="round" d="M 1707.704025 2974.022469 C 1707.704025 2974.022469 1627.072619 2952.892415 1586.287584 2828.319002 C 1547.919613 2953.643705 1467.663673 2976.346775 1467.663673 2976.346775 C 1467.663673 2976.346775 1548.365479 2997.500308 1589.103582 3121.838942 C 1627.471552 2996.725539 1707.704025 2974.022469 1707.704025 2974.022469 Z M 1707.704025 2974.022469 " stroke="#393536" stroke-width="60" stroke-opacity="1" stroke-miterlimit="10"/><path stroke-linecap="round" transform="matrix(0.16646, 0, 0, -0.16638, 29.888541, 737.482832)" fill-opacity="1" fill="#EE807D" fill-rule="nonzero" stroke-linejoin="round" d="M 2169.598076 2372.825452 C 2117.220515 2375.055847 2063.481889 2376.229739 2008.663797 2376.229739 C 1829.495933 2376.229739 1661.568593 2363.880396 1517.107903 2342.304262 " stroke="#393536" stroke-width="60" stroke-opacity="1" stroke-miterlimit="10"/><path fill="#EE807D" d="M 285.28125 325.613281 C 285.28125 325.613281 266.957031 330.414062 257.691406 358.726562 C 248.964844 330.246094 230.71875 325.097656 230.71875 325.097656 C 230.71875 325.097656 249.0625 320.289062 258.328125 292.039062 C 267.046875 320.464844 285.28125 325.613281 285.28125 325.613281 " fill-opacity="1" fill-rule="nonzero"/><path stroke-linecap="round" transform="matrix(0.16646, 0, 0, -0.16638, 29.888541, 737.482832)" fill="none" stroke-linejoin="round" d="M 1534.262023 2475.470563 C 1534.262023 2475.470563 1424.179973 2446.6163 1368.517082 2276.448924 C 1316.092588 2447.625847 1206.479871 2478.569638 1206.479871 2478.569638 C 1206.479871 2478.569638 1316.679254 2507.470858 1372.342145 2677.262588 C 1424.719706 2506.414355 1534.262023 2475.470563 1534.262023 2475.470563 Z M 1534.262023 2475.470563 " stroke="#393536" stroke-width="60" stroke-opacity="1" stroke-miterlimit="10"/><path fill="#EE807D" d="M 424.351562 316.644531 C 424.351562 316.644531 410.929688 320.160156 404.144531 340.890625 C 397.757812 320.035156 384.394531 316.261719 384.394531 316.261719 C 384.394531 316.261719 397.828125 312.738281 404.609375 292.050781 C 410.996094 312.867188 424.351562 316.644531 424.351562 316.644531 " fill-opacity="1" fill-rule="nonzero"/><path stroke-linecap="round" transform="matrix(0.16646, 0, 0, -0.16638, 29.888541, 737.482832)" fill="none" stroke-linejoin="round" d="M 2369.721658 2529.375681 C 2369.721658 2529.375681 2289.090252 2508.245626 2248.328683 2383.648736 C 2209.960712 2508.996917 2129.681306 2531.676509 2129.681306 2531.676509 C 2129.681306 2531.676509 2210.383112 2552.85352 2251.121214 2677.192154 C 2289.489185 2552.078751 2369.721658 2529.375681 2369.721658 2529.375681 Z M 2369.721658 2529.375681 " stroke="#393536" stroke-width="60" stroke-opacity="1" stroke-miterlimit="10"/></svg>