<svg xmlns="http://www.w3.org/2000/svg" xmlns:xlink="http://www.w3.org/1999/xlink" width="1024" zoomAndPan="magnify" viewBox="0 0 768 767.999994" height="1024" preserveAspectRatio="xMidYMid meet" version="1.0"><defs><clipPath id="670b56927c"><path d="M 2 0 L 768 0 L 768 761.25 L 2 761.25 Z M 2 0 " clip-rule="nonzero"/></clipPath></defs><g clip-path="url(#670b56927c)"><path fill="#EE807D" d="M 529.246094 261.507812 C 517.753906 257.683594 509.699219 252.46875 505.316406 246.011719 C 498.5625 236.070312 500.917969 220.125 510.257812 212.5625 C 514.480469 209.140625 520.082031 207.472656 525.714844 207.472656 C 532.554688 207.472656 539.449219 209.929688 544.015625 214.6875 C 555.722656 226.890625 557.40625 247.902344 554.777344 266.484375 C 546.078125 265.890625 537.472656 264.246094 529.246094 261.507812 Z M 484.800781 370.027344 C 521.363281 360.480469 551.535156 337.824219 567.582031 307.855469 C 570.015625 303.316406 572.398438 297.515625 574.4375 290.902344 C 595.832031 288.976562 616.738281 281.871094 634.910156 269.886719 C 668.144531 247.957031 689.960938 211.171875 693.269531 171.492188 L 668.769531 169.449219 C 666.121094 201.199219 647.960938 231.820312 621.367188 249.363281 C 608.914062 257.582031 594.546875 262.976562 579.6875 265.347656 C 582.234375 241.789062 578.796875 215.433594 561.761719 197.671875 C 544.644531 179.835938 513.996094 177.902344 494.789062 193.453125 C 475.585938 209 471.097656 239.394531 484.976562 259.828125 C 492.464844 270.855469 504.75 279.269531 521.488281 284.835938 C 530.296875 287.765625 539.351562 289.707031 548.488281 290.691406 C 547.65625 292.734375 546.792969 294.605469 545.90625 296.25 C 533.273438 319.84375 508.109375 338.53125 478.589844 346.238281 C 452.066406 353.167969 422.136719 352.199219 389.660156 343.363281 L 383.207031 367.089844 C 403.539062 372.617188 423.113281 375.386719 441.753906 375.386719 C 456.726562 375.386719 471.105469 373.601562 484.800781 370.027344 Z M 286.078125 179.007812 L 311.691406 179.007812 L 311.691406 227.242188 L 286.078125 227.242188 Z M 311.144531 132.136719 C 300.121094 132.136719 291.183594 123.199219 291.183594 112.179688 C 291.183594 101.160156 300.121094 92.226562 311.144531 92.226562 C 322.164062 92.226562 331.097656 101.160156 331.097656 112.179688 C 331.097656 123.199219 322.164062 132.136719 311.144531 132.136719 Z M 439.023438 273.835938 C 450.046875 273.835938 458.984375 282.769531 458.984375 293.789062 C 458.984375 304.808594 450.046875 313.746094 439.023438 313.746094 C 428.003906 313.746094 419.074219 304.808594 419.074219 293.789062 C 419.074219 282.769531 428.003906 273.835938 439.023438 273.835938 Z M 566.261719 470.957031 C 566.261719 481.976562 557.328125 490.914062 546.304688 490.914062 C 535.28125 490.914062 526.351562 481.976562 526.351562 470.957031 C 526.351562 459.9375 535.28125 451.003906 546.304688 451.003906 C 557.328125 451.003906 566.261719 459.9375 566.261719 470.957031 Z M 600.1875 332.863281 L 653.753906 332.863281 L 653.753906 358.742188 L 600.1875 358.742188 Z M 329.480469 309.96875 L 320.695312 287.007812 C 343.347656 278.335938 366.054688 268.273438 373.117188 249.191406 C 379.332031 232.410156 371.75 213 363.722656 192.449219 C 354.699219 169.359375 344.476562 143.191406 354.636719 117.457031 C 366.148438 88.300781 397.125 74.953125 419.753906 65.214844 C 452.925781 50.929688 465.371094 32.488281 461.339844 3.554688 L 485.695312 0.167969 C 491.296875 40.433594 472.902344 69.09375 429.46875 87.796875 C 405.285156 98.207031 384.675781 108.308594 377.503906 126.484375 C 370.890625 143.238281 378.527344 162.796875 386.621094 183.507812 C 395.53125 206.316406 405.636719 232.175781 396.175781 257.730469 C 385.542969 286.445312 356.171875 299.753906 329.480469 309.96875 Z M 641.957031 462.828125 C 640.933594 469.742188 636.761719 476.078125 631.074219 479.363281 C 627.890625 481.191406 622.835938 482.878906 616.722656 480.46875 C 608.886719 477.367188 607.925781 468.519531 607.871094 464.859375 C 607.726562 454.253906 613.738281 440.914062 627.519531 435.019531 C 628.699219 434.511719 629.945312 434.011719 631.257812 433.519531 C 643.289062 444.453125 642.695312 457.875 641.957031 462.828125 Z M 768.039062 427.730469 C 715.441406 392.84375 662.578125 399.425781 635.558594 406.53125 C 630.386719 403.585938 624.476562 401.023438 617.75 398.964844 C 564.390625 382.617188 509.828125 397.300781 468.023438 439.242188 L 485.433594 456.597656 C 518.917969 423.007812 561.878906 410.136719 604.15625 420.695312 C 589.585938 432.652344 583.085938 450.421875 583.292969 465.207031 C 583.535156 482.867188 592.886719 497.476562 607.6875 503.328125 C 612.664062 505.296875 617.773438 506.269531 622.851562 506.269531 C 629.90625 506.269531 636.898438 504.386719 643.363281 500.65625 C 655.582031 493.601562 664.140625 480.8125 666.273438 466.4375 C 668.082031 454.277344 666.015625 439.816406 657.707031 426.988281 C 684.78125 423.167969 720.8125 425.910156 754.449219 448.21875 Z M 101.074219 566.316406 L 300.515625 616.664062 L 167.390625 675.066406 L 64.738281 649.15625 Z M 146.109375 463.664062 L 465.492188 544.285156 L 332.367188 602.6875 L 109.769531 546.5 Z M 191.148438 361.011719 L 352.855469 401.828125 L 475.929688 524.90625 L 154.804688 443.84375 Z M 323.40625 372.382812 L 199.84375 341.191406 L 228.007812 276.988281 Z M 27.082031 736.589844 C 26.933594 736.566406 26.636719 736.273438 26.691406 735.867188 L 56.042969 668.976562 L 135.539062 689.042969 L 27.34375 736.503906 Z M 529.046875 543.25 L 219.949219 234.15625 L 4.1875 725.988281 C 0 735.519531 2.058594 746.433594 9.414062 753.792969 C 14.238281 758.617188 20.597656 761.160156 27.089844 761.160156 C 30.496094 761.160156 33.9375 760.460938 37.21875 759.019531 L 529.046875 543.25 " fill-opacity="1" fill-rule="nonzero"/></g></svg>