<svg xmlns="http://www.w3.org/2000/svg" xmlns:xlink="http://www.w3.org/1999/xlink" width="1024" zoomAndPan="magnify" viewBox="0 0 768 767.999994" height="1024" preserveAspectRatio="xMidYMid meet" version="1.0"><defs><clipPath id="0855ea8fb2"><path d="M 231 231.742188 L 537.898438 231.742188 L 537.898438 536.242188 L 231 536.242188 Z M 231 231.742188 " clip-rule="nonzero"/></clipPath></defs><g clip-path="url(#0855ea8fb2)"><path fill="#EE807D" d="M 442.097656 336.347656 C 437.496094 334.820312 434.277344 332.734375 432.523438 330.152344 C 429.820312 326.175781 430.765625 319.796875 434.5 316.769531 C 436.1875 315.402344 438.429688 314.734375 440.683594 314.734375 C 443.417969 314.734375 446.175781 315.71875 448.003906 317.621094 C 452.683594 322.503906 453.359375 330.90625 452.308594 338.339844 C 448.828125 338.101562 445.386719 337.445312 442.097656 336.347656 Z M 424.316406 379.753906 C 438.941406 375.9375 451.011719 366.875 457.429688 354.886719 C 458.402344 353.070312 459.355469 350.753906 460.171875 348.105469 C 468.726562 347.335938 477.09375 344.496094 484.359375 339.699219 C 497.652344 330.929688 506.378906 316.214844 507.703125 300.34375 L 497.90625 299.527344 C 496.84375 312.226562 489.582031 324.472656 478.945312 331.492188 C 473.960938 334.777344 468.214844 336.9375 462.269531 337.882812 C 463.289062 328.460938 461.914062 317.917969 455.101562 310.816406 C 448.253906 303.679688 435.996094 302.90625 428.3125 309.128906 C 420.632812 315.34375 418.835938 327.503906 424.386719 335.675781 C 427.382812 340.085938 432.296875 343.453125 438.992188 345.679688 C 442.515625 346.851562 446.136719 347.628906 449.792969 348.023438 C 449.460938 348.839844 449.113281 349.585938 448.757812 350.246094 C 443.707031 359.683594 433.640625 367.15625 421.832031 370.238281 C 411.222656 373.011719 399.253906 372.625 386.261719 369.089844 L 383.679688 378.582031 C 391.8125 380.792969 399.640625 381.898438 407.097656 381.898438 C 413.085938 381.898438 418.839844 381.183594 424.316406 379.753906 Z M 344.828125 303.347656 L 355.074219 303.347656 L 355.074219 322.644531 L 344.828125 322.644531 Z M 354.855469 284.601562 C 350.445312 284.601562 346.871094 281.027344 346.871094 276.617188 C 346.871094 272.210938 350.445312 268.636719 354.855469 268.636719 C 359.261719 268.636719 362.835938 272.210938 362.835938 276.617188 C 362.835938 281.027344 359.261719 284.601562 354.855469 284.601562 Z M 406.007812 341.28125 C 410.417969 341.28125 413.992188 344.855469 413.992188 349.261719 C 413.992188 353.667969 410.417969 357.242188 406.007812 357.242188 C 401.597656 357.242188 398.027344 353.667969 398.027344 349.261719 C 398.027344 344.855469 401.597656 341.28125 406.007812 341.28125 Z M 456.902344 420.128906 C 456.902344 424.535156 453.328125 428.109375 448.917969 428.109375 C 444.511719 428.109375 440.9375 424.535156 440.9375 420.128906 C 440.9375 415.71875 444.511719 412.144531 448.917969 412.144531 C 453.328125 412.144531 456.902344 415.71875 456.902344 420.128906 Z M 470.472656 364.890625 L 491.898438 364.890625 L 491.898438 375.242188 L 470.472656 375.242188 Z M 362.191406 355.734375 L 358.675781 346.546875 C 367.738281 343.082031 376.820312 339.054688 379.644531 331.421875 C 382.128906 324.710938 379.097656 316.945312 375.886719 308.726562 C 372.277344 299.492188 368.1875 289.023438 372.253906 278.730469 C 376.855469 267.066406 389.246094 261.730469 398.296875 257.832031 C 411.566406 252.117188 416.546875 244.742188 414.933594 233.167969 L 424.675781 231.816406 C 426.914062 247.921875 419.558594 259.386719 402.183594 266.863281 C 392.511719 271.03125 384.269531 275.070312 381.398438 282.339844 C 378.753906 289.042969 381.808594 296.867188 385.046875 305.148438 C 388.609375 314.273438 392.652344 324.617188 388.867188 334.839844 C 384.613281 346.324219 372.867188 351.648438 362.191406 355.734375 Z M 487.179688 416.875 C 486.769531 419.640625 485.101562 422.175781 482.824219 423.488281 C 481.550781 424.222656 479.53125 424.898438 477.085938 423.929688 C 473.949219 422.691406 473.566406 419.152344 473.546875 417.6875 C 473.484375 413.445312 475.890625 408.109375 481.402344 405.753906 C 481.875 405.550781 482.375 405.347656 482.898438 405.152344 C 487.710938 409.527344 487.472656 414.894531 487.179688 416.875 Z M 537.609375 402.835938 C 516.574219 388.882812 495.425781 391.515625 484.621094 394.359375 C 482.550781 393.179688 480.1875 392.15625 477.496094 391.332031 C 456.152344 384.792969 434.328125 390.664062 417.605469 407.441406 L 424.570312 414.382812 C 437.964844 400.949219 455.148438 395.800781 472.058594 400.023438 C 466.230469 404.804688 463.628906 411.914062 463.714844 417.828125 C 463.8125 424.890625 467.550781 430.734375 473.472656 433.074219 C 475.460938 433.863281 477.503906 434.253906 479.535156 434.253906 C 482.359375 434.253906 485.15625 433.5 487.742188 432.007812 C 492.628906 429.183594 496.050781 424.070312 496.90625 418.320312 C 497.628906 413.457031 496.800781 407.671875 493.480469 402.539062 C 504.308594 401.011719 518.71875 402.109375 532.175781 411.03125 Z M 270.828125 458.269531 L 350.605469 478.410156 L 297.355469 501.769531 L 256.292969 491.40625 Z M 288.84375 417.210938 L 416.59375 449.457031 L 363.34375 472.820312 L 274.308594 450.34375 Z M 306.859375 376.148438 L 371.539062 392.476562 L 420.769531 441.707031 L 292.320312 409.28125 Z M 359.761719 380.699219 L 310.335938 368.222656 L 321.601562 342.539062 Z M 241.230469 526.378906 C 241.171875 526.371094 241.054688 526.253906 241.078125 526.089844 L 252.816406 499.332031 L 284.613281 507.359375 L 241.335938 526.34375 Z M 442.015625 449.042969 L 318.378906 325.410156 L 232.074219 522.136719 C 230.398438 525.949219 231.222656 530.316406 234.164062 533.257812 C 236.09375 535.1875 238.640625 536.207031 241.234375 536.207031 C 242.597656 536.207031 243.976562 535.925781 245.285156 535.351562 L 442.015625 449.042969 " fill-opacity="1" fill-rule="nonzero"/></g></svg>