<svg xmlns="http://www.w3.org/2000/svg" xmlns:xlink="http://www.w3.org/1999/xlink" width="1024" zoomAndPan="magnify" viewBox="0 0 768 767.999994" height="1024" preserveAspectRatio="xMidYMid meet" version="1.0"><defs><clipPath id="ffbf1cd32d"><path d="M 183 190 L 573 190 L 573 592.601562 L 183 592.601562 Z M 183 190 " clip-rule="nonzero"/></clipPath></defs><g clip-path="url(#ffbf1cd32d)"><path fill="#EE807D" d="M 555.046875 547.777344 L 555.136719 547.777344 Z M 249.832031 208.949219 C 245.96875 208.949219 242.320312 210.699219 238.355469 214.171875 C 237.917969 214.582031 232.246094 219.96875 228.554688 223.480469 L 225.328125 226.527344 C 206.5 244.132812 197.964844 275.8125 203.582031 307.261719 C 205.390625 317.417969 208.308594 327.945312 212.257812 338.535156 C 232.15625 391.980469 269.933594 438.445312 298.125 468.023438 C 326.191406 497.796875 370.574219 538.007812 422.867188 560.738281 C 433.238281 565.242188 443.589844 568.722656 453.632812 571.078125 C 484.734375 578.363281 516.835938 571.535156 535.40625 553.683594 L 538.5 550.742188 C 542.097656 547.347656 547.707031 542.039062 548.519531 541.257812 C 560.085938 529.359375 554.308594 519.46875 531.109375 495.878906 L 525.308594 489.921875 C 510.613281 474.671875 485.960938 449.140625 465.117188 451.628906 C 459.449219 452.300781 453.535156 456.433594 447.273438 460.804688 C 441.058594 465.140625 434.632812 469.621094 426.929688 472.0625 C 406.238281 478.625 385.261719 474.3125 367.828125 459.949219 C 357.40625 451.355469 346.796875 441.304688 337.167969 430.910156 C 327.421875 420.867188 317.960938 409.742188 309.949219 398.886719 C 296.546875 380.71875 293.371094 359.539062 301.019531 339.230469 C 303.871094 331.660156 308.691406 325.488281 313.359375 319.515625 C 318.058594 313.492188 322.5 307.8125 323.464844 302.1875 C 327.050781 281.457031 302.890625 255.527344 288.445312 240.027344 L 282.820312 233.917969 C 267.515625 217.179688 258.207031 208.949219 249.832031 208.949219 Z M 478.730469 592.386719 C 468.332031 592.386719 458.339844 591.121094 449.425781 589.035156 C 438.308594 586.4375 426.898438 582.601562 415.507812 577.652344 C 360.347656 553.683594 313.945312 511.707031 284.738281 480.71875 C 255.382812 449.929688 215.957031 401.34375 194.96875 344.976562 C 190.632812 333.34375 187.425781 321.746094 185.417969 310.503906 C 180.097656 280.707031 184.472656 239.457031 212.730469 213.058594 L 215.851562 210.09375 C 219.785156 206.363281 225.902344 200.550781 226.152344 200.332031 C 254.417969 175.519531 279.707031 203.171875 296.433594 221.476562 L 301.945312 227.457031 C 318.71875 245.453125 346.789062 275.582031 341.648438 305.328125 C 339.882812 315.507812 333.515625 323.671875 327.898438 330.871094 C 323.910156 335.972656 320.136719 340.800781 318.28125 345.734375 C 312.835938 360.191406 315.089844 374.789062 324.796875 387.933594 C 332.324219 398.128906 341.230469 408.597656 350.554688 418.214844 C 359.78125 428.175781 369.769531 437.632812 379.5625 445.714844 C 392.175781 456.113281 406.625 459.132812 421.359375 454.484375 C 426.382812 452.878906 431.394531 449.382812 436.707031 445.675781 C 444.203125 440.453125 452.679688 434.519531 462.949219 433.3125 C 493.019531 429.765625 521.519531 459.410156 538.589844 477.125 L 544.273438 482.941406 C 561.648438 500.625 587.917969 527.351562 561.648438 554.222656 C 561.238281 554.617188 555.074219 560.46875 551.179688 564.144531 L 548.179688 566.992188 C 528.75 585.671875 502.707031 592.386719 478.730469 592.386719 " fill-opacity="1" fill-rule="nonzero"/></g></svg>