<svg xmlns="http://www.w3.org/2000/svg" xmlns:xlink="http://www.w3.org/1999/xlink" width="1024" zoomAndPan="magnify" viewBox="0 0 768 767.999994" height="1024" preserveAspectRatio="xMidYMid meet" version="1.0"><defs><clipPath id="787adde214"><path d="M 189.347656 189.347656 L 578.597656 189.347656 L 578.597656 578.597656 L 189.347656 578.597656 Z M 189.347656 189.347656 " clip-rule="nonzero"/></clipPath></defs><g clip-path="url(#787adde214)"><path fill="#EE807D" d="M 384.0625 189.28125 C 491.570312 189.28125 578.710938 276.433594 578.710938 383.929688 C 578.710938 465.972656 527.945312 536.15625 456.109375 564.804688 L 453.265625 503.46875 L 453.265625 503.351562 C 453.421875 491.21875 458.546875 481.667969 469.910156 476.855469 L 471.371094 476.269531 L 471.449219 476.246094 L 471.539062 476.207031 L 471.683594 476.152344 C 480.050781 472.765625 486.867188 468.203125 491.507812 460.304688 C 497.304688 450.464844 498.425781 437.355469 498.425781 426.199219 C 498.425781 404.746094 492.105469 379.421875 481.210938 360.875 C 473.46875 347.699219 461.257812 334.367188 444.769531 334.367188 C 428.28125 334.367188 416.070312 347.699219 408.328125 360.875 C 397.433594 379.421875 391.113281 404.746094 391.113281 426.199219 C 391.113281 437.367188 392.234375 450.476562 398.035156 460.304688 C 402.726562 468.253906 409.621094 472.828125 418.027344 476.21875 C 418.261719 476.308594 418.496094 476.414062 418.730469 476.503906 L 418.792969 476.503906 L 419.523438 476.816406 C 430.929688 481.613281 436.117188 491.0625 436.273438 503.351562 L 436.273438 503.46875 L 433.078125 572.363281 C 417.414062 576.429688 400.992188 578.59375 384.0625 578.59375 C 366.53125 578.59375 349.550781 576.261719 333.390625 571.921875 L 330.40625 507.417969 L 330.40625 507.277344 C 330.5625 494.84375 335.867188 485.042969 347.503906 480.117188 L 348.988281 479.527344 L 349.042969 479.515625 L 349.09375 479.488281 L 349.261719 479.425781 C 357.472656 476.101562 364.171875 471.632812 368.734375 463.875 C 374.457031 454.167969 375.550781 441.148438 375.550781 430.132812 C 375.550781 429.066406 375.511719 427.996094 375.445312 426.925781 C 375.40625 426.316406 375.355469 425.703125 375.277344 425.101562 L 375.171875 424.203125 L 375.34375 423.589844 L 368.265625 341.261719 L 360.863281 341.273438 L 360.222656 428.28125 L 347.894531 429.507812 L 340.570312 331.160156 L 332.542969 331.644531 L 330.953125 430.71875 L 326.585938 430.902344 C 325.671875 430.941406 324.761719 430.953125 323.863281 430.953125 C 322.949219 430.953125 322.023438 430.941406 321.113281 430.902344 L 316.773438 430.71875 L 314.542969 331.644531 L 306.515625 331.175781 L 299.828125 429.519531 L 287.488281 428.296875 L 286.863281 341.273438 L 279.417969 341.273438 L 269.851562 423.628906 L 270.007812 424.21875 L 269.90625 425.089844 C 269.839844 425.703125 269.789062 426.316406 269.75 426.925781 C 269.683594 427.996094 269.644531 429.066406 269.644531 430.132812 C 269.644531 441.148438 270.738281 454.167969 276.460938 463.875 C 281.0625 471.695312 287.839844 476.167969 296.101562 479.488281 C 296.296875 479.566406 296.492188 479.644531 296.675781 479.722656 L 296.742188 479.722656 L 297.601562 480.089844 C 309.265625 485.003906 314.621094 494.699219 314.792969 507.277344 L 314.792969 507.417969 L 312.132812 564.894531 C 240.203125 536.300781 189.359375 466.066406 189.359375 383.945312 C 189.414062 276.421875 276.550781 189.28125 384.0625 189.28125 " fill-opacity="1" fill-rule="evenodd"/></g></svg>