<svg xmlns="http://www.w3.org/2000/svg" xmlns:xlink="http://www.w3.org/1999/xlink" width="1024" zoomAndPan="magnify" viewBox="0 0 768 767.999994" height="1024" preserveAspectRatio="xMidYMid meet" version="1.0"><path fill="#EE807D" d="M 550.167969 416.332031 C 550.25 416.082031 613.75 267.832031 610.417969 266.167969 C 607.25 264.417969 566.25 348.25 536.332031 405 L 526.917969 400.082031 C 553 341.332031 593.417969 257.25 590.167969 255.5 C 586.917969 253.832031 543.332031 336.25 511.582031 392 L 502.167969 387.082031 C 530 329.25 573.082031 246.582031 569.832031 244.832031 C 566.582031 243.167969 520.25 324.167969 486.667969 379 L 477.25 374 C 507 317.167969 552.667969 235.832031 549.417969 234.167969 C 546.167969 232.417969 478.582031 340.417969 460.167969 369.082031 C 444.167969 394.082031 445.25 428.832031 465.75 447.5 C 437.667969 496.582031 409.667969 545.582031 381.582031 594.667969 C 352.832031 545.667969 324.082031 496.667969 295.25 447.667969 C 328.75 421.667969 334.332031 370.25 306.917969 330 C 278.082031 287 217.832031 239.25 181.917969 257.25 C 147.167969 277.417969 154 354 174.082031 401.667969 C 192.667969 446.667969 238.832031 470.25 278.832031 456.5 C 307 513.332031 335.082031 570.167969 363.167969 627 C 350.832031 648.5 338.582031 670 326.25 691.5 C 180.917969 664.332031 70.917969 537.082031 70.917969 384 C 70.917969 211.082031 211.082031 70.917969 384 70.917969 C 556.917969 70.917969 697.082031 211.082031 697.082031 384 C 697.082031 538.167969 585.5 666 438.75 692 C 426 670.25 413.25 648.5 400.5 626.832031 C 427.832031 570 455.082031 513.167969 482.417969 456.25 C 509.082031 463 537.167969 446.332031 550.082031 416.25 C 563.667969 384.75 550.167969 416.332031 550.167969 416.332031 Z M 412.832031 727.417969 C 403.25 728.167969 393.75 728.832031 384 728.832031 C 373.332031 728.832031 362.75 728.25 352.332031 727.25 C 346.332031 739.667969 340.417969 752 334.5 764.417969 C 350.75 766.582031 367.167969 768 384 768 C 400 768 415.75 766.667969 431.332031 764.75 C 425.167969 752.332031 419 739.832031 412.832031 727.417969 Z M 384 0 C 172.25 0 0 172.25 0 384 C 0 563.082031 123.417969 713.5 289.582031 755.75 C 296.25 744 302.917969 732.332031 309.667969 720.582031 C 155.167969 686.5 39.082031 548.582031 39.082031 384 C 39.082031 193.832031 193.832031 39.167969 384 39.167969 C 574.167969 39.167969 728.832031 193.832031 728.832031 384 C 728.832031 549.5 611.667969 688 455.917969 721.167969 C 462.75 732.917969 469.667969 744.582031 476.5 756.25 C 643.582031 714.667969 768 563.832031 768 384 C 768 172.25 595.75 0 384 0 Z M 397.5 696.417969 C 392.332031 686 387.25 675.667969 382.082031 665.25 C 377.167969 675.582031 372.167969 685.917969 367.25 696.25 C 372.832031 696.5 378.332031 697.082031 384 697.082031 C 388.582031 697.082031 393 696.582031 397.5 696.417969 Z M 397.5 696.417969 " fill-opacity="1" fill-rule="nonzero"/></svg>