<svg xmlns="http://www.w3.org/2000/svg" xmlns:xlink="http://www.w3.org/1999/xlink" width="1024" zoomAndPan="magnify" viewBox="0 0 768 767.999994" height="1024" preserveAspectRatio="xMidYMid meet" version="1.0"><defs><clipPath id="82e283017d"><path d="M 230.398438 230.398438 L 537.898438 230.398438 L 537.898438 537.898438 L 230.398438 537.898438 Z M 230.398438 230.398438 " clip-rule="nonzero"/></clipPath></defs><g clip-path="url(#82e283017d)"><path fill="#EE807D" d="M 450.464844 396.929688 C 450.496094 396.832031 475.894531 337.53125 474.5625 336.863281 C 473.296875 336.164062 456.898438 369.699219 444.929688 392.398438 L 441.164062 390.429688 C 451.597656 366.929688 467.761719 333.296875 466.464844 332.597656 C 465.164062 331.933594 447.730469 364.898438 435.03125 387.199219 L 431.261719 385.230469 C 442.398438 362.097656 459.628906 329.03125 458.328125 328.332031 C 457.03125 327.664062 438.496094 360.066406 425.0625 381.996094 L 421.296875 379.996094 C 433.195312 357.265625 451.464844 324.730469 450.164062 324.066406 C 448.863281 323.367188 421.832031 366.566406 414.464844 378.03125 C 408.0625 388.03125 408.496094 401.929688 416.695312 409.398438 C 405.464844 429.03125 394.265625 448.628906 383.03125 468.261719 C 371.53125 448.664062 360.03125 429.0625 348.5 409.464844 C 361.898438 399.0625 364.132812 378.496094 353.164062 362.398438 C 341.632812 345.199219 317.53125 326.097656 303.164062 333.296875 C 289.265625 341.363281 292 371.996094 300.03125 391.0625 C 307.464844 409.0625 325.933594 418.496094 341.929688 412.996094 C 353.199219 435.730469 364.429688 458.464844 375.664062 481.195312 C 370.730469 489.796875 365.832031 498.394531 360.898438 506.996094 C 302.765625 496.128906 258.765625 445.230469 258.765625 383.996094 C 258.765625 314.832031 314.832031 258.765625 383.996094 258.765625 C 453.164062 258.765625 509.230469 314.832031 509.230469 383.996094 C 509.230469 445.664062 464.597656 496.796875 405.898438 507.195312 C 400.796875 498.496094 395.699219 489.796875 390.597656 481.128906 C 401.53125 458.398438 412.429688 435.664062 423.363281 412.898438 C 434.03125 415.597656 445.261719 408.929688 450.429688 396.898438 C 455.863281 384.296875 450.464844 396.929688 450.464844 396.929688 Z M 395.53125 521.363281 C 391.699219 521.664062 387.898438 521.929688 383.996094 521.929688 C 379.730469 521.929688 375.496094 521.695312 371.332031 521.296875 C 368.929688 526.261719 366.566406 531.195312 364.199219 536.160156 C 370.699219 537.027344 377.265625 537.59375 383.996094 537.59375 C 390.398438 537.59375 396.699219 537.0625 402.929688 536.296875 C 400.464844 531.328125 397.996094 526.328125 395.53125 521.363281 Z M 383.996094 230.398438 C 299.300781 230.398438 230.398438 299.300781 230.398438 383.996094 C 230.398438 455.628906 279.765625 515.796875 346.230469 532.695312 C 348.898438 527.996094 351.566406 523.328125 354.265625 518.628906 C 292.464844 504.996094 246.03125 449.828125 246.03125 383.996094 C 246.03125 307.933594 307.933594 246.066406 383.996094 246.066406 C 460.0625 246.066406 521.929688 307.933594 521.929688 383.996094 C 521.929688 450.195312 475.0625 505.597656 412.765625 518.863281 C 415.496094 523.5625 418.265625 528.230469 420.996094 532.894531 C 487.828125 516.261719 537.59375 455.929688 537.59375 383.996094 C 537.59375 299.300781 468.695312 230.398438 383.996094 230.398438 Z M 389.398438 508.960938 C 387.332031 504.796875 385.296875 500.664062 383.230469 496.496094 C 381.265625 500.628906 379.265625 504.761719 377.296875 508.894531 C 379.53125 508.996094 381.730469 509.230469 383.996094 509.230469 C 385.832031 509.230469 387.597656 509.027344 389.398438 508.960938 Z M 389.398438 508.960938 " fill-opacity="1" fill-rule="nonzero"/></g></svg>