<svg xmlns="http://www.w3.org/2000/svg" xmlns:xlink="http://www.w3.org/1999/xlink" width="1024" zoomAndPan="magnify" viewBox="0 0 768 767.999994" height="1024" preserveAspectRatio="xMidYMid meet" version="1.0"><defs><clipPath id="c13c259324"><path d="M 11.21875 11.21875 L 756.71875 11.21875 L 756.71875 756.71875 L 11.21875 756.71875 Z M 11.21875 11.21875 " clip-rule="nonzero"/></clipPath></defs><g clip-path="url(#c13c259324)"><path fill="#EE807D" d="M 384.125 11.09375 C 590.019531 11.09375 756.902344 178.003906 756.902344 383.875 C 756.902344 540.996094 659.683594 675.40625 522.101562 730.269531 L 516.660156 612.808594 L 516.660156 612.582031 C 516.960938 589.34375 526.769531 571.050781 548.535156 561.839844 L 551.332031 560.714844 L 551.480469 560.667969 L 551.65625 560.589844 L 551.929688 560.492188 C 567.953125 554 581.007812 545.265625 589.894531 530.140625 C 601 511.296875 603.148438 486.183594 603.148438 464.820312 C 603.148438 423.734375 591.042969 375.238281 570.175781 339.71875 C 555.347656 314.484375 531.960938 288.949219 500.386719 288.949219 C 468.8125 288.949219 445.425781 314.484375 430.597656 339.71875 C 409.730469 375.238281 397.625 423.734375 397.625 464.820312 C 397.625 486.210938 399.773438 511.320312 410.878906 530.140625 C 419.867188 545.367188 433.070312 554.125 449.167969 560.617188 C 449.617188 560.789062 450.066406 560.992188 450.515625 561.164062 L 450.640625 561.164062 L 452.039062 561.765625 C 473.878906 570.949219 483.8125 589.046875 484.113281 612.582031 L 484.113281 612.808594 L 478 744.746094 C 447.996094 752.535156 416.546875 756.679688 384.125 756.679688 C 350.550781 756.679688 318.027344 752.210938 287.078125 743.898438 L 281.363281 620.371094 L 281.363281 620.097656 C 281.660156 596.285156 291.820312 577.515625 314.109375 568.078125 L 316.957031 566.957031 L 317.054688 566.929688 L 317.15625 566.882812 L 317.480469 566.757812 C 333.203125 560.390625 346.035156 551.832031 354.769531 536.980469 C 365.726562 518.382812 367.824219 493.449219 367.824219 472.355469 C 367.824219 470.3125 367.75 468.265625 367.625 466.21875 C 367.550781 465.042969 367.449219 463.871094 367.300781 462.722656 L 367.101562 461 L 367.425781 459.828125 L 353.871094 302.15625 L 339.695312 302.179688 L 338.472656 468.8125 L 314.859375 471.160156 L 300.832031 282.808594 L 285.457031 283.734375 L 282.410156 473.480469 L 274.050781 473.828125 C 272.300781 473.90625 270.554688 473.929688 268.832031 473.929688 C 267.085938 473.929688 265.3125 473.90625 263.566406 473.828125 L 255.253906 473.480469 L 250.984375 283.734375 L 235.609375 282.835938 L 222.804688 471.183594 L 199.167969 468.839844 L 197.96875 302.179688 L 183.71875 302.179688 L 165.398438 459.902344 L 165.695312 461.027344 L 165.496094 462.699219 C 165.371094 463.871094 165.273438 465.042969 165.199219 466.21875 C 165.074219 468.265625 165 470.3125 165 472.359375 C 165 493.449219 167.09375 518.382812 178.050781 536.980469 C 186.863281 551.957031 199.84375 560.515625 215.667969 566.882812 C 216.042969 567.03125 216.417969 567.179688 216.765625 567.332031 L 216.890625 567.332031 L 218.539062 568.03125 C 240.878906 577.441406 251.136719 596.011719 251.460938 620.097656 L 251.460938 620.371094 L 246.367188 730.445312 C 108.613281 675.683594 11.242188 541.171875 11.242188 383.898438 C 11.34375 177.976562 178.226562 11.09375 384.125 11.09375 " fill-opacity="1" fill-rule="evenodd"/></g></svg>